<?xml version="1.0" encoding="utf-8"?>
<!-- Generator: Adobe Illustrator 22.1.0, SVG Export Plug-In . SVG Version: 6.00 Build 0)  -->
<svg version="1.1" id="Layer_1" xmlns="http://www.w3.org/2000/svg" xmlns:xlink="http://www.w3.org/1999/xlink" x="0px" y="0px"
	 viewBox="0 0 355 261.6880188" style="enable-background:new 0 0 355 261.6880188;" xml:space="preserve">
<path d="M317.125,0.0000305H37.875c-20.8840008,0-37.875,16.9909973-37.875,37.875v153.25
	c0,20.8840027,16.9909992,37.875,37.875,37.875h17.4360008l-5.9379997,23.3389893
	c-0.7130013,2.8049927,0.2509995,5.7709961,2.4780006,7.6199951c1.3730011,1.1400146,3.0740013,1.7290039,4.7919998,1.7290039
	c1.0699997,0,2.1459999-0.2290039,3.1540031-0.6960144L128.7799988,229H317.125C338.0100098,229,355,212.0090027,355,191.125V37.875
	C355,16.9900055,338.0100098,0,317.125,0V0.0000305z M340,191.1250305c0,12.6130066-10.2619934,22.875-22.875,22.875h-190
	c-1.0899963,0-2.1670074,0.2380066-3.1549988,0.6960144l-56.1689987,26.0490112l4.4260025-17.3959961
	c0.5709991-2.2430115,0.072998-4.625-1.3479996-6.4530029s-3.6060028-2.8959961-5.9209976-2.8959961H37.8750076
	c-12.612999,0-22.875-10.2619934-22.875-22.875v-153.25c0-12.6130066,10.262001-22.875,22.875-22.875h279.25
	c12.6130066,0,22.875,10.2619934,22.875,22.875v153.25V191.1250305z"/>
<path d="M281.6073608,57.3330383H76.0376282c-3.5184708,0-6.3709641,3.3580017-6.3709641,7.5s2.8524933,7.5,6.3709641,7.5
	h205.5697327c3.5193176,0,6.3709717-3.3580017,6.3709717-7.5S285.125824,57.3330383,281.6073608,57.3330383z"/>
<path d="M281.6073608,108.1665344H76.0376282c-3.5184708,0-6.3709641,3.3580017-6.3709641,7.5s2.8524933,7.5,6.3709641,7.5
	h205.5697327c3.5193176,0,6.3709717-3.3580017,6.3709717-7.5S285.125824,108.1665344,281.6073608,108.1665344z"/>
<path d="M281.6073608,159.0000305H76.0376282c-3.5184708,0-6.3709641,3.3580017-6.3709641,7.5s2.8524933,7.5,6.3709641,7.5
	h205.5697327c3.5193176,0,6.3709717-3.3580017,6.3709717-7.5S285.125824,159.0000305,281.6073608,159.0000305z"/>
</svg>
