<?xml version="1.0" encoding="utf-8"?>
<!-- Generator: Adobe Illustrator 22.1.0, SVG Export Plug-In . SVG Version: 6.00 Build 0)  -->
<svg version="1.1" id="Capa_1" xmlns="http://www.w3.org/2000/svg" xmlns:xlink="http://www.w3.org/1999/xlink" x="0px" y="0px"
	 viewBox="0 0 32 32" style="enable-background:new 0 0 32 32;" xml:space="preserve">
<g>
	<g id="User">
		<g>
			<path d="M16,22c5,0,9-4.9,9-11S21,0,16,0c-2.4,0-4.7,1.2-6.4,3.3C7.9,5.4,7,8.1,7,11C7,17.1,11,22,16,22z M16,2c3.9,0,7,4,7,9
				c0,5-3.1,9-7,9s-7-4-7-9C9,6,12.1,2,16,2z M23,20c-0.6,0-1,0.4-1,1s0.4,1,1,1c3.9,0,7,3.1,7,7c0,0.6-0.4,1-1,1H3
				c-0.6,0-1-0.4-1-1c0-3.9,3.1-7,7-7c0.6,0,1-0.4,1-1s-0.4-1-1-1c-5,0-9,4-9,9c0,1.7,1.3,3,3,3h26c1.7,0,3-1.3,3-3
				C32,24,28,20,23,20z"/>
		</g>
	</g>
</g>
</svg>
