<?xml version="1.0" encoding="utf-8"?>
<!-- Generator: Adobe Illustrator 22.1.0, SVG Export Plug-In . SVG Version: 6.00 Build 0)  -->
<svg version="1.1" id="Capa_1" xmlns="http://www.w3.org/2000/svg" xmlns:xlink="http://www.w3.org/1999/xlink" x="0px" y="0px"
	 viewBox="0 0 28.1758747 35.2626953" style="enable-background:new 0 0 28.1758747 35.2626953;" xml:space="preserve">
<g>
	<g id="Phone_x5F_2">
		<g>
			<path d="M3.6791549,0.6455998L2.6377032,1.3748325C1.3561037,2.2739444,0.5016329,3.7510078,0.1682284,5.6418386
				c-0.8239604,4.6729121,1.4184182,11.5182953,5.8571429,17.8685455
				c6.4448395,9.220211,15.0546494,13.9481163,19.5985165,10.7586975l1.0394821-0.7295799
				c0.7743683-0.5448112,1.2924843-1.3581963,1.4574509-2.293766c0.1649647-0.9355659-0.0437088-1.8771057-0.5868378-2.655241
				l-2.9106731-4.1667366c-1.1196918-1.6027813-3.3351612-1.9954586-4.9378262-0.8706703l-1.0404682,0.7294064
				c-1.1088161,0.7772636-3.4796572-0.0875683-6.8106861-4.8533974c-2.834425-4.0578413-2.9973211-6.1458492-2.8413849-7.0302067
				c0.0826569-0.4687691,0.2857647-0.8086643,0.6205587-1.0430889l1.0383234-0.7287693
				c1.5525045-1.0879383,1.9615059-3.3959799,0.8724089-4.9476743L8.6130409,1.515577
				C8.0712433,0.7356461,7.2576823,0.2185145,6.3250694,0.0540697C5.3932676-0.1092133,4.4546828,0.0999807,3.6791549,0.6455998z
				 M6.9658337,2.6741438l2.9106731,4.1667347c0.468503,0.6715574,0.2952614,1.665576-0.3764687,2.1350622L8.4617147,9.70471
				c-0.7728639,0.5420284-1.2751646,1.3521118-1.4503756,2.3457832c-0.3729968,2.1153679,0.6953144,4.9885273,3.1746254,8.5379791
				c5.1177807,7.324976,8.4309559,6.1799068,9.6164036,5.3481216l1.0383244-0.7287693
				c0.6929302-0.4860573,1.6481953-0.3176193,2.1311226,0.3757763l2.9110222,4.1647644
				c0.4681549,0.6735268,0.292944,1.6671982-0.3768158,2.1370335l-1.0381508,0.7277832
				c-3.500391,2.4544525-11.1879749-2.2458916-16.7908325-10.2636242c-4.0792074-5.8380413-6.2473207-12.2580652-5.52425-16.3588028
				C2.394855,4.6179323,2.9462528,3.6215446,3.7952273,3.027951l1.0381501-0.7277832
				c0.3359523-0.2352371,0.7427135-0.3249655,1.1445146-0.2541173C6.3802152,2.1139426,6.7305975,2.3381927,6.9658337,2.6741438z"/>
		</g>
	</g>
</g>
</svg>
