<?xml version="1.0" encoding="utf-8"?>
<!-- Generator: Adobe Illustrator 22.1.0, SVG Export Plug-In . SVG Version: 6.00 Build 0)  -->
<svg version="1.1" id="Layer_1" xmlns="http://www.w3.org/2000/svg" xmlns:xlink="http://www.w3.org/1999/xlink" x="0px" y="0px"
	 viewBox="0 0 371 512" style="enable-background:new 0 0 371 512;" xml:space="preserve">
<g>
	<g>
		<path d="M360.8,0H10.2C4.6,0,0,4.6,0,10.2v491.6c0,5.6,4.6,10.2,10.2,10.2h266.6c2.7,0,5.3-1.1,7.2-3l84-84c1.9-1.9,3-4.5,3-7.2
			V10.2C371,4.6,366.4,0,360.8,0z M286.9,477.2l0-49.3l49.3,0L286.9,477.2z M350.6,407.6l-73.9-0.1c0,0,0,0,0,0
			c-2.7,0-5.3,1.1-7.2,3c-1.9,1.9-3,4.5-3,7.2l0.1,73.9H20.4V20.4h330.2V407.6z"/>
	</g>
</g>
<g>
	<g>
		<path d="M104.5,368C78.9,368,58,388.8,58,414.5c0,25.6,20.9,46.5,46.5,46.5c25.6,0,46.5-20.9,46.5-46.5
			C151,388.8,130.1,368,104.5,368z M104.5,440.6c-14.4,0-26.1-11.7-26.1-26.1s11.7-26.1,26.1-26.1s26.1,11.7,26.1,26.1
			S118.9,440.6,104.5,440.6z"/>
	</g>
</g>
<g>
	<g>
		<path d="M237.5,405.9h-56.1c-5.6,0-10.2,4.6-10.2,10.2s4.6,10.2,10.2,10.2h56.1c5.6,0,10.2-4.6,10.2-10.2S243.1,405.9,237.5,405.9
			z"/>
	</g>
</g>
<g>
	<g>
		<path d="M100.8,61.2H71.2c-5.6,0-10.2,4.6-10.2,10.2c0,5.6,4.6,10.2,10.2,10.2h29.6c5.6,0,10.2-4.6,10.2-10.2
			S106.5,61.2,100.8,61.2z"/>
	</g>
</g>
<g>
	<g>
		<path d="M303.8,61.2h-88.7c-5.6,0-10.2,4.6-10.2,10.2c0,5.6,4.6,10.2,10.2,10.2h88.7c5.6,0,10.2-4.6,10.2-10.2
			S309.4,61.2,303.8,61.2z"/>
	</g>
</g>
<g>
	<g>
		<path d="M303.8,105.1H152.8c-5.6,0-10.2,4.6-10.2,10.2c0,5.6,4.6,10.2,10.2,10.2h150.9c5.6,0,10.2-4.6,10.2-10.2
			C314,109.6,309.4,105.1,303.8,105.1z"/>
	</g>
</g>
<g>
	<g>
		<path d="M304.3,185.6H66.7c-5.6,0-10.2,4.6-10.2,10.2S61,206,66.7,206h237.6c5.6,0,10.2-4.6,10.2-10.2S309.9,185.6,304.3,185.6z"
			/>
	</g>
</g>
<g>
	<g>
		<path d="M304.3,220.3H66.7c-5.6,0-10.2,4.6-10.2,10.2c0,5.6,4.6,10.2,10.2,10.2h237.6c5.6,0,10.2-4.6,10.2-10.2
			C314.5,224.9,309.9,220.3,304.3,220.3z"/>
	</g>
</g>
<g>
	<g>
		<path d="M304.3,258H66.7c-5.6,0-10.2,4.6-10.2,10.2s4.6,10.2,10.2,10.2h237.6c5.6,0,10.2-4.6,10.2-10.2
			C314.5,262.6,309.9,258,304.3,258z"/>
	</g>
</g>
<g>
	<g>
		<path d="M304.3,292.7h-5.6c-5.6,0-10.2,4.6-10.2,10.2s4.6,10.2,10.2,10.2h5.6c5.6,0,10.2-4.6,10.2-10.2
			C314.5,297.3,309.9,292.7,304.3,292.7z"/>
	</g>
</g>
<g>
	<g>
		<path d="M263,292.7H66.7c-5.6,0-10.2,4.6-10.2,10.2s4.6,10.2,10.2,10.2H263c5.6,0,10.2-4.6,10.2-10.2
			C273.2,297.3,268.6,292.7,263,292.7z"/>
	</g>
</g>
</svg>
