<?xml version="1.0" encoding="utf-8"?>
<!-- Generator: Adobe Illustrator 22.1.0, SVG Export Plug-In . SVG Version: 6.00 Build 0)  -->
<svg version="1.1" id="Слой_1" xmlns="http://www.w3.org/2000/svg" xmlns:xlink="http://www.w3.org/1999/xlink" x="0px" y="0px"
	 viewBox="0 0 1007.2571411 1016.2542114" style="enable-background:new 0 0 1007.2571411 1016.2542114;" xml:space="preserve">
<style type="text/css">
	.st0{fill:none;stroke:#000000;stroke-width:28;stroke-miterlimit:10;}
</style>
<path class="st0" d="M993.2571411,748.4025879c-5.5792847,7.4865723-10.3155518,15.8223877-16.868042,22.3286743
	C908.9084473,837.7355347,841.2247314,904.536377,773.3306274,971.121582
	c-8.8568115,8.6860352-19.0383911,16.0733643-28.9449463,23.6175537
	c-6.3027344,4.7998657-13.9533081,5.8710938-21.7949829,6.9366455
	c-24.0265503,3.2646484-41.9603271-7.6630859-58.1791992-23.3475342
	c-35.7414551-34.5638428-71.7397461-68.8665771-107.1724854-103.7439575
	c-37.7260742-37.1348877-74.9353333-74.7952271-112.3107605-112.2853394
	c-2.2360229-2.2427979-4.4671936-4.7606812-5.8123779-7.5752563c-6.2414246-13.0591431,1.2981567-25.6265869,17.4864807-27.7608032
	c11.9506226-1.5756836,24.1199036-1.9405518,36.1974792-2.0258789c48.3999939-0.3422852,96.8022766-0.3654785,145.2036438-0.5053711
	c2.2532349-0.0064697,4.5064087-0.0008545,7.6953735-0.0008545c0-2.7266235-0.0031738-5.1027832,0.0004272-7.4790039
	c0.1119995-73.1744995,0.1929932-146.3490601,0.383728-219.5233459c0.0202026-7.7412109,0.5003662-15.494873,1.0923462-23.2178345
	c1.0377808-13.5365906,10.0592041-23.6970215,23.3521729-26.3995361c3.5004272-0.7116699,7.1221924-1.2202454,10.6817017-1.1838684
	c24.1888428,0.2474365,48.3753662,0.8875732,72.5637207,0.9496155
	c15.7772217,0.0404663,29.0643921,13.1540222,29.0144653,28.0033264
	c-0.0585327,17.3845825,1.0164185,34.7703857,1.1166992,52.1585083
	c0.3630981,62.9630737,0.5241699,125.9272461,0.7599487,188.8909912c0.0084839,2.2570801,0.0010376,4.5140991,0.0010376,7.8010864
	c2.4760132,0,4.6349487-0.0019531,6.7938232,0.0003052c45.5661621,0.046875,91.1335449-0.0724487,136.697937,0.2384644
	c14.5321045,0.0991211,29.0620728,1.2437744,43.5823975,2.0926514c10.0788574,0.5890503,17.5803833,5.1947021,21.5178833,14.8318481
	C993.2571411,743.8635254,993.2571411,746.1330566,993.2571411,748.4025879z"/>
<polyline class="st0" points="496.7539063,14.0000467 496.7539063,253.413681 744.3428345,253.413681 "/>
<path class="st0" d="M748.9731445,443.2479858c0-2.3127441,0-4.1017456,0-5.890686
	c0-57.1663818-0.0421143-114.3328857,0.0904541-171.4990234c0.0093994-4.0087891-1.1849365-6.744812-3.9940186-9.5488892
	C665.5705566,176.9499359,586.1367188,97.5251389,506.8012695,18.0021858
	c-3.0003662-3.0075064-5.9541016-4.010375-10.0473633-4.0021353
	c-100.8266602,0.2019043-201.6540527,0.1497192-302.4804077,0.4661865
	c-42.8236694,0.1343994-85.6454468,0.9724731-128.4665527,1.5931997c-2.7719116,0.0401611-5.6456909,0.6270752-8.2775269,1.5278931
	C40.6558228,23.3629036,28.2919922,34.4360237,20.010376,50.143177C17.9230957,54.1019173,15.9990234,58.1467781,14,62.1520271
	c0,254.3457184,0,508.6913452,0,763.0369873c1.4069214,2.5651855,2.9555054,5.0637817,4.1967163,7.7067871
	c5.9667969,12.7055664,14.736145,22.9768677,26.7371216,30.260376c8.5539551,5.1914063,17.3054199,9.4614868,28.020752,8.6582642
	c9.7712402-0.7324219,19.6500854,0.0189209,29.4816895,0.0360107
	c133.6569824,0.2327271,289.3139648,0.4523315,422.9709473,0.6626587c1.7231445,0.0027466,3.4466553-0.1580811,5.9785156-0.2821655
	c-1.907959-2.0319214-3.1323242-3.3341064-4.3549805-4.6380005"/>
<line class="st0" x1="112.8000031" y1="356.2708435" x2="577.7142944" y2="356.2708435"/>
<line class="st0" x1="112.8000031" y1="475.0708313" x2="577.7142944" y2="475.0708313"/>
<line class="st0" x1="112.8000031" y1="609.956543" x2="577.7142944" y2="609.956543"/>
</svg>
