<?xml version="1.0" encoding="utf-8"?>
<!-- Generator: Adobe Illustrator 22.1.0, SVG Export Plug-In . SVG Version: 6.00 Build 0)  -->
<svg version="1.1" id="Capa_1" xmlns="http://www.w3.org/2000/svg" xmlns:xlink="http://www.w3.org/1999/xlink" x="0px" y="0px"
	 viewBox="0 0 512 394.1990051" style="enable-background:new 0 0 512 394.1990051;" xml:space="preserve">
<g>
	<path d="M512,154.2089996V82.2129974h-56.5090027V56.2949982C455.4909973,25.2529984,430.2369995,0,399.1959839,0H112.8040009
		C81.7630005,0,56.5090027,25.2539978,56.5090027,56.2949982v25.9179993H0v71.9960022H512z M86.5090027,56.2949982
		c0-14.5,11.7959976-26.2949982,26.2949982-26.2949982h286.3919678c14.4989929,0,26.2950134,11.7959976,26.2950134,26.2949982
		v25.9179993H86.5090027V56.2949982z"/>
	<path d="M71.4189987,394.1990051h369.1619873l48.3569946-209.9900055H23.0620003L71.4189987,394.1990051z M340,241.2049866h30v94
		h-30V241.2049866z M274,241.2049866h30v94h-30V241.2049866z M208,241.2049866h30v94h-30V241.2049866z M142,241.2049866h30v94h-30
		V241.2049866z"/>
</g>
</svg>
