<svg viewBox="0 0 270.4 98.1">
  <path d="M175.1,51.8c0.2,1.2,0.3,2.1,0.5,3c2,8.4,8.6,14,17.2,14.7c7.6,0.6,13.6-2.3,18-8.5c2.2-3,5.7-3.5,8.5-1.1
    c1.6,1.4,1.8,3.2,0.5,4.9c-0.7,0.9-1.4,1.8-2.1,2.8c-2.9,4-6.7,6.7-11.4,8.3c-7.6,2.6-15.2,3-22.7,0.2
    c-10.1-3.7-16.1-11.1-17.8-21.7c-1-6.5-0.4-13,2.6-18.9c4.3-8.4,11.1-13.6,20.5-15.1c6.2-1,12.4-0.4,18.2,2.4
    c8.2,3.9,13.2,10.5,15.1,19.3c0.5,2.4,0.7,4.9,0.9,7.3c0.2,1.5-0.5,2.2-2.1,2.3c-0.7,0-1.4,0-2.1,0c-14,0-28,0-42,0
    C176.5,51.8,176,51.8,175.1,51.8z M213.4,42.6c-1.2-7.9-10.7-14.7-19.4-14.2c-9.1,0.5-18.2,7.5-18.5,14.2
    C188,42.6,200.7,42.6,213.4,42.6z"/>
  <path d="M112.4,51.6c0.1,0.8,0.2,1.4,0.3,2c1.7,9.3,9.3,15.7,18.7,15.9c7.1,0.1,12.7-2.8,16.8-8.6
    c2.2-3.1,6.1-3.4,8.8-0.7c1.3,1.4,1.5,3,0.3,4.6c-0.5,0.8-1.1,1.5-1.7,2.2c-3.1,4.5-7.3,7.4-12.5,9.1c-7.6,2.5-15.2,2.7-22.5-0.2
    C110,71.8,104.2,63.8,103,52.6c-0.6-5.4-0.1-10.7,2.2-15.6c4.3-9.4,11.4-15.2,21.8-16.6c5.5-0.7,11-0.3,16.1,1.8
    c9.2,3.8,14.6,10.9,16.6,20.6c0.4,2.2,0.6,4.5,0.7,6.7c0.1,1.8-0.3,2.2-2.2,2.2c-3.3,0-6.7,0-10,0c-11.2,0-22.4,0-33.5,0
    C114,51.6,113.3,51.6,112.4,51.6z M150.8,42.5c-1.2-7.8-10.4-14.4-19.4-14.2c-8.8,0.2-17.9,7.2-18.6,14.2
    C125.4,42.5,138,42.5,150.8,42.5z"/>
  <path d="M251.8,56c0.7,0.6,1.1,1,1.5,1.4c4.9,4.2,9.8,8.3,14.6,12.5c0.3,0.3,0.7,0.6,1,0.9c1.8,1.8,2,4.4,0.3,6.2
    c-1.6,1.8-4.2,2.1-6.1,0.5c-3.4-2.8-6.7-5.7-10-8.5c-4.8-4.1-9.5-8.1-14.3-12.2c-0.4-0.4-0.9-0.7-1.6-1.3c0,1-0.1,1.6-0.1,2.3
    c0,11.5,0,23,0,34.5c0,0.5,0,1.1,0,1.6c-0.2,2.5-2.1,4.3-4.6,4.2c-2.4-0.1-4.1-1.9-4.2-4.4c0-0.5,0-1.1,0-1.6c0-22.7,0-45.4,0-68.1
    c0-0.7,0-1.4,0-2.1c0-1.6,0.2-1.9,1.7-1.9c2.1-0.1,4.2-0.1,6.2-0.1c5,0,10.1,0.2,15.1-0.1c8.4-0.4,17.8,6.4,18.7,16.3
    c0.8,8.9-5.2,17.3-14.3,19.1C254.6,55.4,253.4,55.7,251.8,56z M236.5,49.1c0.5,0.1,0.9,0.1,1.2,0.1c4.2,0,8.4,0,12.6,0
    c1.2,0,2.4-0.1,3.6-0.5c3.9-1.2,7-3.5,8-7.7c1.7-7.1-3.6-13.7-10.9-13.7c-4.3,0-8.6,0-13,0c-0.5,0-1,0.1-1.5,0.1
    C236.5,34.6,236.5,41.7,236.5,49.1z"/>
  <path d="M88.5,52c-8.3,0-16.4,0-24.6,0c0,0.7-0.1,1.4-0.1,2c0,6.3,0,12.6,0,18.9c0,0.8,0,1.6-0.2,2.3
    c-0.6,1.9-2.6,3.1-4.5,3c-2.1-0.2-3.8-1.8-4.1-3.9c-0.1-0.5,0-1,0-1.5c0-22.5,0-45,0-67.4c0-0.9,0.1-1.8,0.4-2.6
    C56,0.8,58-0.2,60.1,0C62,0.3,63.6,2,63.8,3.9c0.1,0.6,0,1.2,0,1.8c0,11.6,0,23.1,0,34.7c0,0.7,0.1,1.4,0.1,2
    c1.5,0.4,22.9,0.4,24.5,0c0-0.5,0.1-1.1,0.1-1.7c0-5.1,0-10.2,0-15.3c0-0.5,0-1,0-1.5c0.2-2.3,1.9-4,4.2-4.1
    c2.3-0.1,4.3,1.6,4.6,3.9c0.1,0.5,0,1,0,1.5c0,15.8,0,31.6,0,47.4c0,0.5,0,1,0,1.5c-0.3,2.3-2.3,4.1-4.5,4c-2.3-0.1-4.1-1.9-4.3-4.2
    c0-0.5,0-1,0-1.5c0-6.1,0-12.3,0-18.4C88.5,53.4,88.5,52.8,88.5,52z"/>
  <path d="M25,78.3c-5.9-0.1-11.4-1.4-16.5-4.4c-2.2-1.3-4.2-2.9-5.8-4.8c-0.8-1-1.6-2.1-2.2-3.3c-1-1.9-0.6-3.4,0.9-4.9
    c1.7-1.6,4.1-2.3,6.4-0.7C9,61,10,62,10.9,63c0.9,0.9,1.6,1.9,2.5,2.8c2.7,2.7,6,4.2,9.8,4.6c3.5,0.4,7,0.3,10.4-0.9
    c1.4-0.5,2.8-1.2,4-2.1c2.9-2.2,3-5.9,0.2-8.2c-1.3-1.1-2.9-1.9-4.5-2.6c-4-1.7-8.1-2.9-12.3-4c-3.4-0.8-6.7-1.9-10.1-2.9
    c-1.3-0.4-2.5-1.1-3.7-1.7c-3.2-1.7-5-4.4-5.5-7.9c-1-7.1,1.7-12.8,8.1-15.9c9.8-4.8,19.7-5.2,29.4,0.4c1.8,1,3.5,2.5,5.1,3.9
    c1.2,1,2,2.5,2.5,4c0.8,2.6-0.5,3.9-2.8,4.4c-2,0.4-3.8-0.2-5.2-1.7c-0.3-0.3-0.5-0.6-0.7-0.9c-2.3-3.4-5.6-5.3-9.6-6.1
    c-4-0.7-8-0.6-11.8,0.9c-1.4,0.5-2.8,1.3-3.9,2.3c-2.7,2.3-2.7,5.4-0.1,7.8c1.7,1.6,3.7,2.5,5.9,3c4.8,1.2,9.7,2.4,14.5,3.6
    c3.1,0.8,6.1,1.8,8.9,3.4c3.6,1.9,6.2,4.7,7.1,8.8c1.1,5,0,9.4-3.9,13c-4.4,4-9.5,6.3-15.4,7C28.1,78.1,26.5,78.2,25,78.3z"/>
</svg>