<?xml version="1.0" encoding="utf-8"?>
<!-- Generator: Adobe Illustrator 22.1.0, SVG Export Plug-In . SVG Version: 6.00 Build 0)  -->
<svg version="1.1" id="Слой_1" xmlns="http://www.w3.org/2000/svg" xmlns:xlink="http://www.w3.org/1999/xlink" x="0px" y="0px"
	 viewBox="0 0 841 841" style="enable-background:new 0 0 841 841;" xml:space="preserve">
<style type="text/css">
	.st0{fill:none;stroke:#000000;stroke-width:41;stroke-miterlimit:10;}
	.st1{fill:none;stroke:#000000;stroke-width:41;stroke-linecap:round;stroke-linejoin:round;stroke-miterlimit:10;}
</style>
<path class="st0" d="M380.5,20.5000019C401.1666565,20.5,421.8333435,20.5,442.5,20.5
	c5.6279602,0.3863773,11.2553406,0.7815666,16.8839722,1.1577015
	c36.3658142,2.4301529,71.3406982,11.2332935,105.0531006,24.5799007
	c92.9924316,36.8154068,163.0641479,99.6712112,210.3060913,187.7686157
	c22.7973022,42.5126495,36.9436035,87.9114838,42.973877,135.7929535C818.8349609,378.6754761,819.5818481,387.5985107,820.5,396.5
	c0,14,0,28,0,42c-0.3032837,2.4462891-0.6953125,4.8854065-0.8945313,7.3401489
	c-0.9022217,11.1152954-1.076416,22.3366699-2.7366333,33.3351135
	c-6.4078369,42.4498596-19.4358521,82.8448792-38.8638916,121.1595154
	c-22.8357544,45.0351563-52.8092041,84.6204834-90.367981,118.4049683
	c-33.9950562,30.5788574-72.3057861,54.3898926-114.5183105,71.7805176
	c-35.7049561,14.7096558-72.5703735,25.2318115-111.2967224,28.2179565C454.380249,819.3119507,446.9405823,819.9119873,439.5,820.5
	c-15,0-30,0-45,0c-1.2846069-0.2758179-2.5566406-0.6609497-3.8557739-0.8106689
	c-12.0582581-1.3891602-24.2084961-2.2095947-36.1681213-4.1867676
	c-61.8394165-10.2230835-118.1806183-33.8889771-168.9352722-70.5929565
	C134.91362,708.2977905,94.9275208,662.2937012,65.652153,607.0578003
	c-21.47575-40.5197144-35.4495468-83.5365601-42.2810555-128.8490906
	c-1.4319534-9.4979858-1.9382477-19.135498-2.8710957-28.7087097C20.5,429.8333435,20.5,410.1666565,20.5,390.5
	c0.2822418-1.6092834,0.7808247-3.2141724,0.8137112-4.8285217c0.3854389-18.9207458,3.9719124-37.3466187,8.3128834-55.6815796
	c13.7921448-58.2537842,38.9504547-111.0239868,76.1396866-157.9792023
	c32.1309662-40.5686188,70.8164063-73.5583344,115.6387939-99.3600006
	c42.5803375-24.5110512,88.1125946-40.7125206,136.6871185-48.3003159
	C365.5792542,23.1808243,373.0315857,21.7890224,380.5,20.5000019z"/>
<path class="st0" d="M420.3573914,156.9587402c-143.3639832,0.5692596-262.898407,116.0631714-263.1499023,263.7614441
	c-0.2466888,144.8800354,119.7754211,265.9390564,268.9866638,262.4832458
	c140.6035767-3.2564087,256.5613403-116.5288696,256.9335327-262.6057129
	C683.5003662,274.3368835,565.4478149,157.9471741,420.3573914,156.9587402z"/>
<polyline class="st1" points="404.5839539,290.1799622 404.5839539,435.2773743 543.3916016,435.2773743 "/>
</svg>
