<?xml version="1.0" encoding="utf-8"?>
<!-- Generator: Adobe Illustrator 22.1.0, SVG Export Plug-In . SVG Version: 6.00 Build 0)  -->
<svg version="1.1" id="Capa_1" xmlns="http://www.w3.org/2000/svg" xmlns:xlink="http://www.w3.org/1999/xlink" x="0px" y="0px"
	 viewBox="0 0 330 330" style="enable-background:new 0 0 330 330;" xml:space="preserve">
<path d="M215,215c0-8.2850037-6.7160034-15-15-15h-90c-8.2839966,0-15,6.7149963-15,15c0,8.2830048,6.7160034,15,15,15h90
	C208.2839966,230,215,223.2830048,215,215z"/>
<path d="M215,155c0-8.2850037-6.7160034-15-15-15h-90c-8.2839966,0-15,6.7149963-15,15c0,8.2830048,6.7160034,15,15,15h90
	C208.2839966,170,215,163.2830048,215,155z"/>
<path d="M185,94.9999924c0-8.2850037-6.7160034-15-15-15h-60c-8.2839966,0-15,6.7149963-15,15c0,8.2829971,6.7160034,15,15,15h60
	C178.2839966,109.9999924,185,103.2829895,185,94.9999924z"/>
<path d="M325.6069946,304.3940125l-50.9609985-50.9609985C296.7250061,226.6450043,310,192.3439941,310,155
	c0-85.4670105-69.5330048-155-155-155c-85.4680023,0-155,69.5329971-155,155s69.5319977,155,155,155
	c37.3439941,0,71.6439972-13.276001,98.4339905-35.3540039l50.9609985,50.9609985C307.321991,328.5350037,311.1619873,330,315,330
	c3.8399963,0,7.678009-1.4649963,10.6069946-4.3940125C331.4649963,319.7479858,331.4649963,310.2520142,325.6069946,304.3940125z
	 M30,155C30,86.0749893,86.0739975,29.9999924,155,29.9999924S280,86.0749893,280,155s-56.0740051,125-125,125
	S30,223.9259949,30,155z"/>
</svg>
