<?xml version="1.0" encoding="utf-8"?>
<!-- Generator: Adobe Illustrator 22.1.0, SVG Export Plug-In . SVG Version: 6.00 Build 0)  -->
<svg version="1.1" id="Capa_1" xmlns="http://www.w3.org/2000/svg" xmlns:xlink="http://www.w3.org/1999/xlink" x="0px" y="0px"
	 viewBox="0 0 327.6199951 287.9370117" style="enable-background:new 0 0 327.6199951 287.9370117;" xml:space="preserve">
<g>
	<g>
		<path d="M303.1420288,28.9890003C286.5079956,10.2950001,263.4509888,0,238.2169952,0
			c-28.1660156,0-52.5809937,13.3179998-70.6060181,38.5130005c-1.3519897,1.8889999-2.6159973,3.7779999-3.8009949,5.6479988
			c-1.1839905-1.8709984-2.447998-3.7589989-3.7999878-5.6479988C141.9840088,13.3179998,117.5690002,0,89.4029999,0
			C64.1690063,0,41.1110077,10.2950001,24.4779968,28.9880009C8.6940002,46.7280006,0,70.4440002,0,95.7669983
			c0,27.5189972,10.6790009,52.9120026,33.6040039,79.9160004c20.003006,23.5599976,48.6949921,47.7769928,81.9189911,75.8190002
			c12.2770081,10.3629913,24.9729919,21.0779877,38.4640045,32.7710114
			c2.8179932,2.4419861,6.3199921,3.6640015,9.8220062,3.6640015c3.5010071,0,7.0029907-1.2219849,9.821991-3.6640015
			c13.4890137-11.6900024,26.1830139-22.4049988,38.4599915-32.7659912
			c21.3370056-18.0099945,39.7640076-33.5630035,55.7550201-48.6490021
			c31.0459595-29.2920074,59.7739868-62.5390015,59.7739868-107.0899963
			C327.6199951,70.4440002,318.927002,46.7290001,303.1420288,28.9890003z M247.2630157,181.0410004
			c-15.3859863,14.5169983-33.519989,29.8220062-54.5169983,47.5439911
			c-9.3410034,7.8829956-18.92099,15.9689941-28.9360046,24.5570068
			c-10.0169983-8.5870056-19.6000061-16.6750031-28.9409943-24.5599976
			c-65.3990021-55.1990051-104.875-88.5169983-104.875-132.8139954
			c-0.0019989-37.4970016,25.5379944-65.7730026,59.4080048-65.7730026c18.0950012,0,33.4840088,8.5179977,45.7389984,25.3170013
			c10.0579987,13.7860031,14.1869965,28.0779953,14.2149963,28.1740036
			c1.8000031,6.4970016,7.7119904,10.9950027,14.4529877,10.9950027s12.6529846-4.4980011,14.4530029-10.9950027
			c0.1480103-0.5350037,15.3299866-53.4910011,59.9549866-53.4910011c33.8690033,0,59.4100189,28.2770004,59.4100189,65.772995
			C297.6270142,122.9369965,283.5059814,146.8450012,247.2630157,181.0410004z"/>
	</g>
</g>
</svg>
