<?xml version="1.0" encoding="utf-8"?>
<!-- Generator: Adobe Illustrator 22.1.0, SVG Export Plug-In . SVG Version: 6.00 Build 0)  -->
<svg version="1.1" id="Layer_1" xmlns="http://www.w3.org/2000/svg" xmlns:xlink="http://www.w3.org/1999/xlink" x="0px" y="0px"
	 viewBox="0 0 289.0480652 492.0039673" style="enable-background:new 0 0 289.0480652 492.0039673;" xml:space="preserve" fill="#fff">
<g>
	<g>
		<path d="M281.2000122,226.8040009L62.2519836,7.8600001C57.1879883,2.7920001,50.4279938,0,43.219986,0
			S29.2519836,2.7920001,24.1879883,7.8600001L8.0639877,23.9800014c-10.4919968,10.5039997-10.4919968,27.5759983,0,38.0639954
			l183.8560181,183.8559875L7.8600006,429.9599915C2.7959976,435.0279846,0,441.7839966,0,448.9879761
			c0,7.2120056,2.7959976,13.9679871,7.8600006,19.0400085l16.1240005,16.1159973
			c5.0680008,5.0679932,11.8239975,7.8599854,19.0320053,7.8599854s13.9680023-2.7919922,19.0319977-7.8599854L281.2000122,265
			c5.0759888-5.0840149,7.8640137-11.871994,7.8479614-19.0879974
			C289.0639648,238.6679993,286.276001,231.8840027,281.2000122,226.8040009z"/>
	</g>
</g>
</svg>
