<svg width="17" height="17" fill="none" xmlns="http://www.w3.org/2000/svg"><g clip-path="url(#clip0)"><path d="M16.28 6.191a.708.708 0 00-1.001.003l-8.515 8.561a2.834 2.834 0 01-4.006-4.008l8.767-8.813a1.77 1.77 0 012.503 2.506l-7.263 7.262-.001.002a.708.708 0 01-1-1.003l3.505-3.506a.708.708 0 00-1.001-1.002L4.762 9.699a2.125 2.125 0 103.005 3.005l.003-.003 7.26-7.26A3.188 3.188 0 0010.522.933L1.755 9.746a4.25 4.25 0 006.012 6.01l8.516-8.563a.708.708 0 00-.002-1.002z" fill="#000"/></g><defs><clipPath id="clip0"><path fill="#fff" d="M0 0h17v17H0z"/></clipPath></defs></svg>
