<?xml version="1.0" encoding="utf-8"?>
<!-- Generator: Adobe Illustrator 22.1.0, SVG Export Plug-In . SVG Version: 6.00 Build 0)  -->
<svg version="1.1" id="Layer_1" xmlns="http://www.w3.org/2000/svg" xmlns:xlink="http://www.w3.org/1999/xlink" x="0px" y="0px"
	 viewBox="0 0 194.2535706 187.8288574" style="enable-background:new 0 0 194.2535706 187.8288574;" xml:space="preserve">
<style type="text/css">
	.st0{fill-rule:evenodd;clip-rule:evenodd;fill:#efeeed;}
</style>
<path class="st0" d="M163.9637146,95.5619125c0.8968506,0.4580383,1.8600769,0.525238,2.8729248-0.3537903
	c0.5482178-0.4742432,0.9311523-0.9802246,1.518219-1.2940063c-0.5870667-0.3140869-0.9700012-0.8192444-1.518219-1.2951355
	c-1.0230713-0.8869629-1.9958801-0.8090515-2.9010315-0.3390503c0.6899719-0.1329651,1.3972473-0.0359802,2.1271362,0.4422302
	c0.4728394,0.3109131,0.9178772,0.7338867,1.4408875,0.9538574l0.5651855,0.2369385l-0.5651855,0.2380981
	c-0.1099854,0.045929-0.2160034,0.1009216-0.3177795,0.1618652c-0.2701416,0.1601563-0.519043,0.3571777-0.7710266,0.5439758
	C165.5256042,95.5151291,164.7446594,95.6990891,163.9637146,95.5619125L163.9637146,95.5619125z M174.167572,93.8690109
	c-0.2619019-0.1320801-0.5028381-0.3010254-0.723938-0.5209961c-0.5428467-0.5411377-0.934906-1.3778992-1.3320313-2.0361328
	c-0.6899414-1.1417847-1.4867859-2.0817261-2.475769-2.9797363c-1.3201294-1.1982117-3.0330505-1.4570313-4.696167-0.9062805
	c-3.5580444,1.1792297-4.2669983,5.3821716-6.7410889,6.4882507c2.4740906,1.1058044,3.1821899,5.309021,6.7410889,6.487915
	c1.6631165,0.5519409,3.3760376,0.2919922,4.696167-0.9059448c0.9898376-0.8980103,1.7858276-1.8379517,2.475769-2.9811707
	c0.3980103-0.6579285,0.7891846-1.4949951,1.3320313-2.0358887c0.2221985-0.2219543,0.4651489-0.3911743,0.7282104-0.5229797
	l-1.4082947,0.2120667c-0.9527283,0.1439514-1.9357605,0.4809875-2.5049744,1.3089905
	c-1.0958252,1.5967712-2.7467346,3.3409119-4.8829651,2.9358521c-2.645813-0.5028381-4.5578308-3.9639587-5.8619995-4.2480164
	l-1.1568604-0.2519836l1.1568604-0.250824c0.696991-0.1522522,2.4921875-2.1560669,3.1220398-2.7102051
	c3.0081177-2.6489868,5.3739624-1.8760071,7.6229248,1.3991699c0.5692139,0.8279724,1.5522461,1.1639099,2.5049744,1.3079224
	L174.167572,93.8690109L174.167572,93.8690109z M171.838623,101.1671371
	c1.7180786,0.4149475,2.4151306,2.0548096,2.0899963,3.927948l-0.1289673,0.742981l-0.3520813-0.6670227
	c-0.6939087-1.3090515-1.6619568-1.5539246-3.039856-1.4380188c-1.0230103,0.0858765-2.0049744,0.4391174-3.0220032,0.5150452
	c-2.3459778,0.1740417-4.0569458-0.3940125-5.7059021-2.0661621c-2.7320251-2.7719727-3.7691956-7.1367798-8.0571594-8.0118408
	l-0.0087891-0.0019531h-0.1732178l-0.0039368-0.0360107l-0.0419922-0.0090942l0.0201416-0.2088928l-0.0201416-0.2092285
	l0.0419922-0.0087891l0.0039368-0.0359802h0.1720886l0.0099182-0.0019836
	c4.289093-0.8761902,5.3231506-5.2390137,8.0571594-8.012146c1.6489563-1.6718445,3.3599243-2.2399292,5.7059021-2.0658569
	c1.0159302,0.0748291,1.9989929,0.4277649,3.0220032,0.51474c1.3778992,0.1162415,2.3459473-0.1278076,3.039856-1.4380188
	l0.3520813-0.6658325l0.1289673,0.7429504c0.3251343,1.8719788-0.3730164,3.512146-2.0899963,3.927124
	c3.0429993,1.8257751,2.5851746,6.243866,6.0440369,7.0010376l1.1519775,0.250824l-1.1519775,0.2519836
	C174.4237976,94.9209824,174.8816223,99.3398972,171.838623,101.1671371L171.838623,101.1671371z M152.3337402,93.9129562
	c5.111969,2.6710815,8.4480591,6.7070923,8.941864,12.6340332c0.4411011,0.9249268,1.4241333,1.7750549,2.3250122,2.2189636
	c1.5170898,0.7469177,2.9740601,0.5569763,4.0991211-0.6400452c-0.6890564-0.2417908-1.066925-0.9938354-0.9969482-1.7498474
	c0.0839539-0.8952026,0.7880554-1.4530334,1.6449585-1.5602112c3.5019531-0.4379272,3.6790771,4.9971924-0.244873,6.4862366
	c-2.8590698,1.0848694-5.9011841-0.2539368-7.4230957-2.7739563c-0.6431885,1.0298462-1.7561035,1.7418518-3.0180664,1.5729675
	c-1.8130188-0.2429504-2.5528564-2.0310364-2.6018982-3.6629639l-0.0169983-0.5802612l0.4418945,0.3761902
	c1.3249207,1.1298523,2.6960449,1.0340576,3.1580811-0.7769775c0.43396-1.703064-0.8160706-4.6831055-2.1801147-6.5009766
	c0.5459595,1.8439331,0.0819397,3.8349609-1.9970093,4.6337891l-0.447052,0.1720581l0.1031799-0.4679871
	c0.6599121-2.9888611-0.3911438-5.927002-2.4910583-8.0149841c0.3999634,1.229126,0.316925,2.6671143-0.5629883,3.6201172
	l-0.5019836,0.5428467l0.0558472-0.7369995c0.0620728-0.8339844-0.1737671-1.5128784-0.7169189-2.1418457
	c-0.7809448-0.9039917-2.1528931-1.5500183-2.7249146-2.5191956l-0.0780029-0.1309509l0.0780029-0.1309204
	c0.4798584-0.8121338,1.5930786-1.4440002,2.3008423-2.0880127c0.7821045-0.7089233,1.2220459-1.4771729,1.1409912-2.5710449
	l-0.0558472-0.7369995L151.067749,88.9291c0.8799133,0.9530334,0.9629517,2.3909912,0.5629883,3.6190186
	c2.0999146-2.0871887,3.1509705-5.0250244,2.4910583-8.01297l-0.1031799-0.4680176l0.447052,0.1717529
	c2.078949,0.7982483,2.5429688,2.7890015,1.9970093,4.6332397c1.3651733-1.8170166,2.6129761-4.7981873,2.1801147-6.5009766
	c-0.4611816-1.8121643-1.8331604-1.9079895-3.1580811-0.7781067l-0.4418945,0.3769836l0.0169983-0.5810547
	c0.0490417-1.6319275,0.7888794-3.4188843,2.6018982-3.6618347c1.2611084-0.16922,2.3740234,0.5419922,3.0180664,1.5718079
	c1.5230103-2.5199585,4.5648804-3.8559265,7.4230957-2.7728271c3.9239502,1.487915,3.7468262,6.92276,0.244873,6.4848022
	c-0.8569031-0.106842-1.5610046-0.6638794-1.6449585-1.5598755c-0.0711365-0.7571411,0.3078918-1.5069275,0.9969482-1.7489929
	c-0.6859436-0.7330322-1.5530701-1.1550903-2.6081543-1.0700684c-1.4788208,0.1170654-3.1829834,1.3161316-3.815979,2.6489563
	C160.7817993,87.2079086,157.4446106,91.2430344,152.3337402,93.9129562L152.3337402,93.9129562z M181.4276733,93.9129562
	c-3.9180603-2.0519714-4.5059509-8.0319519-5.5459595-11.8657837c-1.4811401-5.4572754-6.1208496-9.8200684-11.9769592-9.6230774
	c-3.118103,0.1060181-5.8379822,1.5409241-8.0390625,3.7029114c-0.816925,0.8019104-1.473999,1.6860352-2.144989,2.6069946
	c-2.0729675,2.8409119-3.6898499,4.3129578-6.8340454,5.6698608c1.6370239,0.7591553,2.5920105,2.6271362,2.690094,4.3920288
	c0.1190186,2.1381226-1.1970825,4.2800293-3.1569824,5.1170654c1.9598999,0.8379211,3.276001,2.9809265,3.1569824,5.1191101
	c-0.0980835,1.7659912-1.0530701,3.6328735-2.690094,4.3919678c3.1430664,1.355835,4.7610779,2.8269958,6.8320923,5.6679077
	c0.6720581,0.9221191,1.3300171,1.8059387,2.1469421,2.6089783c2.2010803,2.1620178,4.9209595,3.597168,8.0390625,3.703186
	c5.8561096,0.197876,10.4958191-4.1672058,11.9769592-9.6230469
	C176.922821,101.9469223,177.509613,95.9669724,181.4276733,93.9129562L181.4276733,93.9129562z M30.3206425,95.5471725
	c-0.6899414,0.1329041-1.3969269,0.0379333-2.1259918-0.4402161c-0.4750824-0.3110046-0.9198456-0.7350769-1.4439545-0.9559021
	l-0.5649414-0.2380981l0.5649414-0.2369385c0.1091309-0.0459595,0.2151489-0.1009521,0.316925-0.1610107
	c0.2729645-0.1618652,0.5240936-0.361969,0.7792358-0.5499573c0.884964-0.6550598,1.6647949-0.835907,2.4448853-0.6990051
	c-0.8980103-0.4580994-1.8620911-0.526123-2.8749084,0.3529358c-0.5470886,0.4750366-0.9311829,0.9810486-1.5171204,1.2939758
	c0.5859375,0.3140869,0.9669037,0.8189697,1.5171204,1.295166C28.4406986,96.0970688,29.4146976,96.0179672,30.3206425,95.5471725
	L30.3206425,95.5471725z M20.0855808,93.8698959l1.4059906-0.2108765c0.9521484-0.1440125,1.934082-0.47995,2.5032654-1.3079224
	c1.0958862-1.5961914,2.7467957-3.341217,4.8829651-2.9361572c2.645874,0.5020447,4.5589619,3.9631348,5.8640461,4.2471924
	l1.1567993,0.250824l-1.1567993,0.2519836c-0.6981812,0.1519775-2.4930725,2.1549377-3.1232319,2.7099304
	c-3.0089722,2.6489868-5.3739014,1.8782654-7.6237793-1.3977661c-0.5691833-0.8271179-1.5502625-1.1650391-2.5032654-1.3089905
	l-1.4099579-0.2131653c0.2630768,0.1320801,0.5059814,0.302124,0.7282257,0.5240784
	c0.5428314,0.5408936,0.9348755,1.3779602,1.3319855,2.0358887c0.6899719,1.143219,1.4867859,2.0831604,2.476944,2.9811707
	c1.3200684,1.197937,3.0330505,1.4578857,4.6958618,0.9059448c3.5580463-1.178894,4.2661304-5.3821106,6.7379475-6.487915
	c-2.471817-1.1060791-3.1799011-5.309021-6.7379475-6.4882507c-1.6628113-0.5507507-3.3757935-0.2919312-4.6958618,0.9062805
	c-0.9901581,0.8980103-1.7861328,1.8379517-2.4760742,2.9797363c-0.3979797,0.6582336-0.7900238,1.4949951-1.3328552,2.0361328
	C20.5887241,93.5691452,20.3477879,93.7380905,20.0855808,93.8698959L20.0855808,93.8698959z M22.4148197,101.1671371
	c-3.0421448-1.82724-2.5852051-6.2461548-6.0440369-7.0021973l-1.1520071-0.2519836l1.150878-0.250824
	c3.4599609-0.7571716,3.0030212-5.1752625,6.045166-7.0010376c-1.7172394-0.414978-2.4139709-2.0551453-2.0899963-3.927124
	l0.1289978-0.7429504l0.3529053,0.6658325c0.6930695,1.3102112,1.6619568,1.5542603,3.0398712,1.4380188
	c1.022171-0.0869751,2.0052338-0.4399109,3.0220184-0.51474c2.3450928-0.1740723,4.0572205,0.3940125,5.7061329,2.0658569
	c2.7439423,2.7830811,3.7570496,7.1339722,8.0569305,8.012146l0.0099182,0.0019836h0.1720581l0.003952,0.0359802
	l0.0419617,0.0087891l-0.0209808,0.2092285l0.0209808,0.2088928l-0.0419617,0.0090942l-0.003952,0.0360107h-0.1720581
	l-0.0099182,0.0019531c-4.299881,0.8770752-5.3129883,5.2279358-8.0569305,8.0118408
	c-1.6489124,1.6721497-3.359911,2.2402039-5.7061329,2.0661621c-1.0167847-0.0759277-1.9998474-0.4291687-3.0220184-0.5150452
	c-1.3767853-0.1159058-2.3479462,0.130127-3.0398712,1.4380188l-0.3529053,0.6670227l-0.1289978-0.742981
	C20.0008488,103.2219467,20.6967258,101.5820847,22.4148197,101.1671371L22.4148197,101.1671371z M41.9205894,93.9129562
	c-5.1119995-2.6699219-8.4489594-6.7050476-8.942749-12.632019c-0.4402161-0.9249268-1.4230061-1.7750244-2.3241291-2.2189331
	c-1.5170898-0.7469482-2.9749451-0.5578918-4.1000366,0.6400452c0.6899719,0.2420654,1.0681,0.9918518,0.9969482,1.7489929
	c-0.0830536,0.8959961-0.7880249,1.4530334-1.6449432,1.5598755c-3.5010529,0.4379578-3.6779633-4.9968872,0.2469025-6.4848022
	c2.8570251-1.0830994,5.8992023,0.2528687,7.421114,2.7728271c0.6440125-1.0298157,1.756897-1.7410278,3.0180206-1.5718079
	c1.8130646,0.2429504,2.5540314,2.0299072,2.6019287,3.6618347l0.0170135,0.5810547l-0.441925-0.3769836
	c-1.3248901-1.1298828-2.6960144-1.032959-3.1580811,0.7781067c-0.4348145,1.7038879,0.8161011,4.6859741,2.1809998,6.5018005
	c-0.546814-1.8439026-0.0839233-3.8349915,1.9961395-4.6340637l0.4470215-0.1717529l-0.1031799,0.4680176
	c-0.6599121,2.9868469,0.3911743,5.9249268,2.4911041,8.01297c-0.3999786-1.229126-0.3160706-2.6659851,0.5640717-3.6190186
	l0.5020294-0.5431213l-0.0561218,0.7369995c-0.062088,0.8351135,0.174881,1.5151062,0.7200012,2.144989
	c0.7789612,0.901123,2.1500854,1.5480042,2.7209778,2.5140686l0.0770874,0.1309204l-0.0770874,0.1309509
	c-0.4810486,0.8141479-1.5930786,1.4459534-2.3020325,2.0900269c-0.7809448,0.709198-1.2200317,1.4771423-1.1389465,2.5710144
	l0.0561218,0.736145l-0.5020294-0.5419922c-0.8801422-0.9521484-0.9640503-2.3901367-0.5640717-3.6189575
	c-2.0999298,2.0879822-3.1510162,5.0258179-2.4911041,8.0138245l0.1031799,0.4679871l-0.4470215-0.1720581
	c-2.0800629-0.7988281-2.5429535-2.7910156-1.9961395-4.6358032c-1.3648987,1.8178711-2.6158142,4.7999268-2.1809998,6.5029907
	c0.4620667,1.8110352,1.8331909,1.9068298,3.1580811,0.7769775l0.441925-0.3761902l-0.0170135,0.5802612
	c-0.0478973,1.6319275-0.7888641,3.4200134-2.6019287,3.6629639c-1.2619781,0.1688843-2.3751373-0.5431213-3.0180206-1.5729675
	c-1.5219116,2.5200195-4.5640888,3.8588257-7.421114,2.7739563c-3.9248657-1.4890442-3.7479553-6.9241638-0.2469025-6.4862366
	c0.8569183,0.1071777,1.5618896,0.6650085,1.6449432,1.5602112c0.0711517,0.7568665-0.3078461,1.5080566-0.9969482,1.7498474
	c0.6871338,0.7330322,1.5539551,1.1550903,2.6101685,1.0700684c1.4677734-0.1170654,3.1787434-1.3110352,3.8139973-2.6489868
	C33.4716301,100.6200485,36.8085899,96.5840378,41.9205894,93.9129562L41.9205894,93.9129562z M12.8257704,93.9129562
	c3.9180441,2.0540161,4.5068045,8.0331116,5.5468435,11.868103c1.4799652,5.4558411,6.1211243,9.8209229,11.9760895,9.6230469
	c3.1181202-0.1060181,5.8390827-1.5400696,8.0410328-3.703186c0.8169556-0.8030396,1.4740295-1.6868591,2.1458435-2.6078796
	c2.0712585-2.841156,3.6881409-4.3131714,6.8320465-5.6690063c-1.6370087-0.7590942-2.5919952-2.6259766-2.6889191-4.3919678
	c-0.1190796-2.1381836,1.1959229-4.281189,3.1569214-5.1191101c-1.9598694-0.8370361-3.276001-2.9789429-3.1569214-5.1170654
	c0.0969238-1.7648926,1.0510864-3.6328735,2.6889191-4.3928833c-3.1450348-1.3560486-4.760788-2.8280945-6.8340302-5.67099
	c-0.6709595-0.9201355-1.3277588-1.8031006-2.1438599-2.605011c-2.2019501-2.163147-4.9229126-3.5968933-8.0410328-3.7029114
	c-5.8549652-0.196991-10.4961243,4.1669006-11.9760895,9.6230774
	C17.3325748,85.8810043,16.7438145,91.8609848,12.8257704,93.9129562L12.8257704,93.9129562z M97.1267319,30.5129948
	c0.3840637-0.8948669,1.0510864-1.6520081,1.9479675-2.0809326c0.6610413-0.315155,1.492157-0.5039978,2.3309326-0.5949402
	c-1.5429382-0.4980469-2.9599304-1.3442078-3.789917-2.7961121c-0.210907-0.3690796-0.3690796-0.8140869-0.4889832-1.2710571
	c-0.1199341,0.4569702-0.2781067,0.9019775-0.4890137,1.2710571c-0.8299561,1.4519043-2.2461243,2.2988892-3.7898865,2.7961121
	c0.8387756,0.0909424,1.67099,0.2808838,2.3309021,0.5949402C96.0756454,28.8609867,96.7426071,29.6181278,97.1267319,30.5129948
	L97.1267319,30.5129948z M97.1267319,157.3149414c-0.3841248,0.894043-1.0510864,1.6520386-1.947998,2.0812073
	c-0.6599121,0.3137512-1.492981,0.5028381-2.3328857,0.5950012c1.5437317,0.4968872,2.9607849,1.3438721,3.7918701,2.7957764
	c0.210907,0.3682251,0.3690796,0.8141479,0.4890137,1.2710876c0.1199036-0.4569397,0.2789307-0.9028625,0.4889832-1.2710876
	c0.8310852-1.4519043,2.2478638-2.2988892,3.7919006-2.7957764c-0.8399048-0.0921631-1.671875-0.2800903-2.3317871-0.5950012
	C98.1778183,158.9680786,97.5107956,158.2089844,97.1267319,157.3149414L97.1267319,157.3149414z M97.62957,37.4791794
	c0-0.2571411-0.1298218-1.1840515-0.5028381-1.1840515c-0.3730469,0-0.5031433,0.9269104-0.5031433,1.1840515
	c0,0.2579346,0.1300964,1.1837463,0.5031433,1.1837463C97.4997482,38.6629257,97.62957,37.737114,97.62957,37.4791794
	L97.62957,37.4791794z M97.62957,150.3479614c0-0.2579651-0.1289673-1.1828918-0.5028381-1.1828918
	c-0.3730469,0-0.5031433,0.9260559-0.5031433,1.1828918c0,0.2579346,0.1300964,1.183136,0.5031433,1.183136
	C97.5006027,151.5310974,97.62957,150.605896,97.62957,150.3479614L97.62957,150.3479614z M39.8056602,121.2029343
	l-0.585083-0.4849854c-1.1298828-0.9379883-2.1557312-2.8389282-1.9808502-4.4438477
	c-0.3730316,0.3817749-0.6891022,0.8137817-0.947052,1.2920227c-1.0800018,2.0069275-0.9929657,4.5458984-0.483017,6.7048035
	c0.5249634,2.2192383,1.8079224,5.1059952,3.5809937,6.6112442l0.7639465,0.6479492l-0.9819031-0.1989441
	c-2.0678864-0.419281-3.4999695-1.5942383-4.3358765-3.2530823c0.9819031,5.0448303,4.6819763,10.0378113,9.128952,12.2298279
	c3.5078888,1.7299805,7.3658295,1.8331604,9.4288788-2.0049744c0.6701202-1.2469177,0.7001648-2.6350403,0.420105-3.9940186
	c-0.4541168-2.2059326-2.1120911-3.9639587-4.5011444-3.401825c-1.1358185,0.2678528-1.8028259,1.0618286-1.9357758,2.1030273
	c0.3829651-0.4090271,0.8699646-0.7151794,1.4377441-0.7800903c1.5692596-0.1811523,2.7062225,1.1690063,2.7240906,2.6520996
	c0.0269165,2.269928-2.9999084,3.2198486-4.8058472,2.1798096c-2.7062378-1.5590515-2.5931396-4.8370361-0.8240509-6.9199219
	c-1.5460052,0.2088928-2.8961639-0.4580688-4.160965-1.4851074c-1.1242218-0.913002-1.9590149-2.8839493-3.4231262-3.0268021
	l-0.513916-0.0502014l0.348938-0.3809814c0.4711304-0.513031,1.0839691-0.8699341,1.703064-0.7449036
	c-0.2950897-0.8651428-0.3651123-1.7790527-0.1910553-2.6948853
	C39.7087059,121.5689011,39.7537804,121.3841171,39.8056602,121.2029343L39.8056602,121.2029343z M39.8056602,66.6249619
	c-0.0518799-0.1799927-0.0969543-0.3639526-0.1318207-0.5530396c-0.1751862-0.9170227-0.1060028-1.8320007,0.1899261-2.6988831
	c-0.6190948,0.125885-1.2319336-0.2301636-1.703064-0.7440796l-0.3480835-0.3798218l0.512207-0.0502014
	c1.4649658-0.1439514,2.2989044-2.1148987,3.4239807-3.0279541c1.264801-1.0269775,2.6149597-1.6940002,4.160965-1.4850769
	c-1.7679596-2.0840454-1.8821869-5.3600159,0.8240509-6.9187622c1.8059387-1.0400391,4.8327637-0.0910034,4.8058472,2.1789551
	c-0.017868,1.4828186-1.1539917,2.8318176-2.7240906,2.651825c-0.5677795-0.0649109-1.0547791-0.3718872-1.4377441-0.7797852
	c0.1318207,1.0408325,0.7988281,1.8348083,1.9357758,2.1029663c2.3901825,0.5629883,4.0470276-1.1981812,4.5011444-3.4041138
	c0.2800598-1.3569031,0.2488708-2.7470398-0.420105-3.9920349c-2.0630493-3.8369751-5.92099-3.7360535-9.4288788-2.006073
	c-4.4469757,2.1920471-8.1461945,7.1861572-9.1281128,12.2312317c0.8350677-1.6591492,2.2671509-2.8341064,4.3350372-3.2530518
	l0.9819031-0.1989746l-0.7639465,0.6479797c-1.7730713,1.5049133-3.0568848,4.3928528-3.5818481,6.6118469
	c-0.6392212,2.7090149-0.5870667,5.9320374,1.4309235,7.99823c-0.174881-1.6061401,0.8509674-3.507019,1.9808502-4.446167
	L39.8056602,66.6249619L39.8056602,66.6249619z M154.4477844,66.6249619l0.5848083,0.4850159
	c1.1310425,0.9391479,2.1571655,2.8400269,1.9822693,4.4450073c0.3727722-0.3820801,0.6888123-0.8149414,0.9459229-1.2920532
	c1.0799561-2.0069275,0.9938049-4.5450134,0.4838562-6.7039185c-0.5238342-2.2189331-1.8068237-5.1080322-3.5809937-6.6129456
	l-0.7628174-0.6479797l0.9808044,0.1989746c2.0681152,0.4189453,3.5002136,1.5939026,4.3349915,3.2530518
	c-0.9818726-5.0450745-4.6828003-10.0391846-9.1289673-12.2312317c-3.5090027-1.7299805-7.3649597-1.8309021-9.428009,2.006073
	c-0.6698608,1.2449951-0.7010193,2.6351318-0.4209595,3.9920349c0.4541016,2.2070923,2.1109619,3.9671021,4.5011597,3.4041138
	c1.1378174-0.268158,1.8048096-1.0621338,1.9377136-2.1041565c-0.3837891,0.4090881-0.8707886,0.7160645-1.4388123,0.7809753
	c-1.5690002,0.1799927-2.7059937-1.1679077-2.7249756-2.651825c-0.0269165-2.2699585,3.0010681-3.2181702,4.8058777-2.1789551
	c2.7070923,1.5587463,2.5931091,4.8347168,0.8240356,6.9187622c1.5460205-0.2089233,2.8961182,0.4580994,4.1609802,1.4850769
	c1.1170959,0.9071045,1.9510803,2.8831177,3.4250793,3.0279541l0.5119629,0.0502014l-0.3469543,0.3798218
	c-0.4720154,0.5150757-1.0859985,0.8699646-1.7050476,0.7440796c0.295929,0.8668823,0.3650513,1.7818604,0.19104,2.6988831
	C154.5447388,66.2610092,154.500824,66.4449692,154.4477844,66.6249619L154.4477844,66.6249619z M154.4477844,121.2029343
	c0.0530396,0.1811829,0.0978088,0.3670959,0.1338196,0.5562134c0.1731567,0.9158325,0.1031799,1.8308411-0.1918945,2.6948853
	c0.6190491-0.1250305,1.2330322,0.2309875,1.7050476,0.7460632l0.3480835,0.3798218l-0.5142212,0.0502014
	c-1.4728699,0.1439819-2.2938232,2.1098022-3.4239502,3.0268021c-1.2648621,1.0270386-2.6149597,1.6940002-4.1609802,1.4851074
	c1.769928,2.0828857,1.881897,5.3608704-0.8240356,6.9199219c-1.8048096,1.0391846-4.8327942,0.0901184-4.8058777-2.1798096
	c0.0189819-1.4830933,1.1559753-2.833252,2.7249756-2.6520996c0.5680237,0.0649109,1.0550232,0.3718872,1.4388123,0.7800903
	c-0.1329041-1.0411987-0.8019104-1.8351746-1.9377136-2.1030273c-2.3881836-0.5621338-4.0470581,1.1958923-4.5011597,3.401825
	c-0.2800598,1.3581238-0.2489014,2.74823,0.4209595,3.9940186c2.0630493,3.8381348,5.9190063,3.7349548,9.428009,2.0049744
	c4.446167-2.1920166,8.1470947-7.1849976,9.1289673-12.2298279c-0.8347778,1.658844-2.2668762,2.8338013-4.3349915,3.2530823
	l-0.9808044,0.1989441l0.7628174-0.6479492c1.7730713-1.505249,3.0559998-4.3931351,3.5809937-6.6121292
	c0.6400452-2.7079163,0.5881653-5.9309387-1.4297791-7.9971313c0.1748962,1.6049805-0.8512268,3.5070496-1.9822693,4.4450378
	L154.4477844,121.2029343L154.4477844,121.2029343z M134.5976257,122.494133
	c2.03302,0.3398743,2.8099976,2.6138306,1.2259827,4.5048523l-0.4479065,0.5340271l-0.0070496-0.697052
	c-0.0218201-2.0840149-1.8399658-3.1838989-3.7820129-2.9579468c-0.1238403,0.0090637-0.2479858,0.0170288-0.3718872,0.0241089
	l-0.6190796,0.040802l0.4079285-0.4668579c0.7531128-0.8631592,1.4751282-1.7529602,2.1611328-2.6710815l0.0370789-0.0490723
	l0.0550232-0.0269165c1.0558777-0.5230103,2.0678711-1.6089478,2.3709106-2.7680054
	c0.0819092-0.3121033,0.1218872-0.6329651,0.1249695-0.9558716l0.0008545-0.0700073l0.0360413-0.0601196
	c0.3871765-0.6519165,0.7591248-1.3129578,1.1131287-1.9830627l0.2880249-0.5448303l0.1848145,0.5878601
	C138.3878479,118.1381454,137.3016052,120.9699326,134.5976257,122.494133L134.5976257,122.494133z M134.5967712,65.3349533
	c2.7039795,1.5230103,3.7910767,4.3531189,2.7788086,7.5579834l-0.1848145,0.5870667l-0.2880249-0.545105
	c-0.3540039-0.6689758-0.7259521-1.3308716-1.1131287-1.9819946l-0.0360413-0.0597839l-0.0008545-0.0692139
	c-0.0030823-0.3228455-0.0430603-0.6448364-0.1249695-0.9569397c-0.3030396-1.1590881-1.315033-2.2450562-2.3709106-2.7668762
	l-0.0550232-0.0269775l-0.0370789-0.0501404c-0.6860046-0.9169922-1.40802-1.8079529-2.1611328-2.6710815l-0.4020081-0.4609375
	l0.6100464,0.0340271c0.1261292,0.0070496,0.2519836,0.0161743,0.3872375,0.026947
	c1.9309082,0.2250671,3.7479553-0.8778992,3.7697754-2.9619446l0.0070496-0.6970215l0.4479065,0.5351868
	C137.4076233,62.7191086,136.6306458,64.995079,134.5967712,65.3349533L134.5967712,65.3349533z M59.6566734,65.3349533
	c-2.0338593-0.3398743-2.8108368-2.6158447-1.2268372-4.5068054l0.4478912-0.5360413l0.0070801,0.6990051
	c0.0218353,2.0817566,1.8399658,3.1858826,3.780014,2.9599304c0.125-0.0098877,0.250824-0.0181274,0.3758698-0.026062
	l0.6159668-0.0379639l-0.4059296,0.4648743c-0.7540283,0.8631287-1.4751587,1.7540894-2.1611481,2.6710815l-0.03685,0.0501404
	L60.996624,67.10009c-1.0547791,0.5218201-2.0679016,1.6077881-2.368927,2.7668762
	c-0.0819092,0.3121033-0.1230469,0.6340942-0.1258545,0.9569397l-0.0011444,0.0700684l-0.0360107,0.0600891
	c-0.388916,0.6499634-0.7591095,1.3118591-1.1139832,1.9819946l-0.2880096,0.5430908l-0.1851044-0.5862122
	C55.8656273,69.6880722,56.9527092,66.8579636,59.6566734,65.3349533L59.6566734,65.3349533z M59.6558189,122.494133
	c-2.7042389-1.5242004-3.7901917-4.3551636-2.7782288-7.5591736l0.1851044-0.5878601l0.2880096,0.5448303
	c0.3548737,0.670105,0.7259521,1.3311462,1.1151276,1.9830627l0.0348663,0.0601196l0.0011444,0.0688782
	c0.0028076,0.3231812,0.0439453,0.6448975,0.1258545,0.9570007c0.3010254,1.1590576,1.3141479,2.2449951,2.368927,2.7680054
	l0.0561066,0.0269165l0.03685,0.0490723c0.6851349,0.9181213,1.4082489,1.8079224,2.1611481,2.6710815l0.4070435,0.4668579
	l-0.6179504-0.040802c-0.124176-0.0070801-0.249176-0.0150452-0.3852386-0.025238
	c-1.9289551-0.224823-3.7479401,0.8761597-3.7697754,2.9590759l-0.0070801,0.697052l-0.4478912-0.5340271
	C56.8458366,125.1079636,57.6228142,122.8340073,59.6558189,122.494133L59.6558189,122.494133z M69.4415512,57.9821701
	c-0.2227783-2.9923096,1.3881836-5.5071716,4.4560852-5.8660278c1.2469788-0.1451416,2.4840393,0.2017822,3.45401,1.0028687
	l0.3069763,0.2540283l-0.3568726,0.1759949c-0.6349487,0.3129272-1.263092,0.6408997-1.8822021,0.9830322l-0.0759277,0.0419922
	l-0.0847778-0.013031c-0.2792053-0.0391541-0.5640869-0.0229797-0.8381958,0.039917
	c-0.9328613,0.2151489-1.6418152,0.7409973-1.9610291,1.6560059l-0.0288696,0.0819397l-0.0731506,0.0481873
	c-0.8537903,0.5638428-1.6877747,1.158783-2.5018616,1.7810364l-0.3781433,0.2879944L69.4415512,57.9821701L69.4415512,57.9821701z
	 M98.8646469,32.9451218c0.7301941-2.722105,4.9240723-1.4170513,3.8239441,1.5227661
	c-0.9169922,2.4491272-4.3129272,2.0032349-5.4637756-0.1638489c-0.0351563-0.0648804-0.0671997-0.1309204-0.0980835-0.1980896
	c-0.0308838,0.0671692-0.0629272,0.1332092-0.0980835,0.1980896c-1.1500244,2.1679382-4.5470581,2.6118469-5.4629517,0.1638489
	c-1.1009521-2.9398174,3.0940247-4.2448711,3.8239441-1.5227661c0.3240356-1.3750591-0.6278687-2.6600323-2.1548767-2.9281902
	c-3.3701172-0.5910339-4.5241089,2.9080791-3.2731934,5.5709209c1.131012,2.4100647,3.507019,4.8030396,5.0652466,7.0350342
	c1.2497864,1.7900696,2.0378418,3.8931274,1.8277588,6.1001587l-0.0217896,0.2310486l-0.2321472,0.0028076
	c-0.7818298,0.0090942-1.5639343,0.0371094-2.3440247,0.0861511l-0.30896,0.0190125l0.0371704-0.3069763
	c0.4949036-4.1521606-5.5202332-9.1530762-6.7731323-13.3761292c-1.0419922-3.5138531,0.3889465-7.8950481,2.9659119-10.4209881
	c2.4372253-2.3898926,5.9850464-3.3930969,6.6191406-7.1541138c0.0218201-0.1947327,0.0459595-0.3858032,0.0748596-0.5799866
	l0.2520142-1.6468821l0.2582092,1.6460581c0.0297852,0.1939087,0.0538635,0.3860779,0.0748291,0.5740356
	c0.6341248,3.7677917,4.1819763,4.7718201,6.6188965,7.1608887c2.578125,2.5259399,4.0090637,6.9060364,2.966156,10.4209881
	c-1.2528687,4.223053-7.2679749,9.2239685-6.7730408,13.3761292l0.0370789,0.3069763l-0.30896-0.0190125
	c-0.781189-0.0490417-1.5630493-0.0770569-2.3450928-0.0861511l-0.2318726-0.0028076l-0.0220947-0.2310486
	c-0.2100525-2.2070313,0.5791016-4.3100891,1.8289185-6.1001587c1.5590515-2.230835,3.9341736-4.6249695,5.0649109-7.0350342
	c1.2512512-2.6628418,0.0980835-6.1619549-3.271759-5.5709209C99.4916611,30.2850895,98.5406113,31.568903,98.8646469,32.9451218
	L98.8646469,32.9451218z M124.3988266,58.1681137c-0.8140869-0.6222534-1.6491699-1.2171936-2.5041199-1.7810364
	l-0.0731201-0.0481873l-0.027771-0.0819397c-0.3191833-0.9150085-1.0270081-1.4408569-1.9601746-1.6560059
	c-0.2749329-0.0628967-0.559021-0.079071-0.8379517-0.039917l-0.0858459,0.013031l-0.0751038-0.0419922
	c-0.6199341-0.3421326-1.2481384-0.670105-1.8830566-0.9830322l-0.3580322-0.1771851l0.3081055-0.2528381
	c0.9708862-0.7999268,2.2079468-1.1488953,3.4548645-1.0028687c3.0679321,0.3588562,4.6799927,2.8737183,4.4560547,5.8660278
	l-0.0359802,0.473938L124.3988266,58.1681137L124.3988266,58.1681137z M72.4596176,131.5709839
	c0.3200684,0.914978,1.0269775,1.4411316,1.9610291,1.6560059c0.2741089,0.0640564,0.5589905,0.0779114,0.8381958,0.039093
	l0.0858765-0.0121765l0.0748291,0.0422058c0.6191101,0.3418579,1.2472534,0.6690063,1.8822021,0.9819336l0.3568726,0.1760254
	l-0.3069763,0.2539673c-0.9699707,0.8019409-2.2070313,1.1500244-3.45401,1.0040588
	c-3.0679016-0.3591309-4.6799622-2.8731995-4.4560852-5.8651733l0.0360413-0.473938l0.3781433,0.2879639
	c0.8140869,0.6210938,1.6480713,1.2149658,2.5018616,1.7802124l0.0731506,0.0478821L72.4596176,131.5709839L72.4596176,131.5709839z
	 M124.8126755,129.8469238c0.223938,2.9919739-1.3889465,5.5060425-4.4560547,5.8651733
	c-1.2469177,0.1459656-2.4848022-0.2021179-3.4548645-1.0040588l-0.3081055-0.2539673l0.3580322-0.1760254
	c0.6360779-0.3121033,1.2631226-0.6400757,1.881897-0.9819336l0.0751343-0.0422058l0.0850525,0.0121765
	c0.2800598,0.0388184,0.5649414,0.0249634,0.8398743-0.039093c0.9331665-0.2140198,1.6409912-0.7410278,1.9601746-1.6560059
	l0.027771-0.0819397l0.0731201-0.0478821c0.85495-0.5652466,1.690033-1.1591187,2.5050049-1.7802124l0.3769836-0.2879639
	L124.8126755,129.8469238L124.8126755,129.8469238z M95.3896408,154.8819275
	c-0.7299194,2.7221375-4.9240723,1.4182129-3.8239441-1.5219116c0.9169922-2.4499817,4.3129272-2.0040588,5.4629517,0.1638489
	c0.0351563,0.0651855,0.0671997,0.1312561,0.0980835,0.1981812c0.0308838-0.066925,0.0629272-0.1329956,0.0980835-0.1981812
	c1.1508484-2.1679077,4.5467834-2.6138306,5.4637756-0.1638489c1.1001282,2.9401245-3.09375,4.2440491-3.8239441,1.5219116
	c-0.3240356,1.3770752,0.6270142,2.6612244,2.1551514,2.9290466c3.3690186,0.5910339,4.5230103-2.90802,3.271759-5.5709229
	c-1.1307373-2.4100037-3.5047302-4.8041382-5.0649109-7.0350342c-1.2498169-1.7900391-2.0389709-3.8930664-1.8289185-6.098999
	l0.0220947-0.2299194l0.2309875-0.0030518c0.7818298-0.0119324,1.5647888-0.0391541,2.3459778-0.0890503l0.30896-0.0189819
	l-0.0370789,0.3069763c-0.4949341,4.1530762,5.5201721,9.1530762,6.7730408,13.3761292
	c1.0429077,3.5149536-0.388031,7.8959351-2.966156,10.421875c-2.435791,2.3878784-5.9847717,3.3938904-6.6177368,7.1529541
	c-0.0221252,0.196167-0.0462036,0.3880615-0.0759888,0.5819092l-0.2582092,1.6461182l-0.2520142-1.6469116
	c-0.0289001-0.1950684-0.0538635-0.3861084-0.0739746-0.5740662c-0.6349792-3.7661133-4.18396-4.7709961-6.6200256-7.1600037
	c-2.5769653-2.5259399-4.0079041-6.9069214-2.9659119-10.421875c1.2528992-4.223053,7.2680359-9.223053,6.7731323-13.3761292
	l-0.0371704-0.3069763l0.30896,0.0189819c0.7809753,0.0490417,1.5630188,0.0771179,2.3459473,0.0890503l0.2302246,0.0030518
	l0.0217896,0.2299194c0.210083,2.2059326-0.5779724,4.30896-1.8277588,6.098999
	c-1.559082,2.230896-3.933075,4.6250305-5.0652466,7.0350342c-1.2509155,2.6629028-0.0958252,6.1619568,3.2731934,5.5709229
	C94.7625961,157.5431519,95.7136765,156.2578735,95.3896408,154.8819275L95.3896408,154.8819275z M99.6637192,38.1631393
	c0,1.4147644-1.1000977,2.6288757-2.5369873,2.6288757s-2.5370178-1.2141113-2.5370178-2.6288757
	c0-1.4141846,1.1021118-2.6251831,2.5370178-2.6251831S99.6637192,36.7489548,99.6637192,38.1631393L99.6637192,38.1631393z
	 M99.6637192,149.6631165c0,1.4138794-1.1009521,2.6279602-2.5369873,2.6279602
	c-1.4360657,0-2.5370178-1.2140808-2.5370178-2.6279602c0-1.4150696,1.1009521-2.6271667,2.5370178-2.6271667
	C98.562767,147.0359497,99.6637192,148.2480469,99.6637192,149.6631165L99.6637192,149.6631165z M117.9137497,146.9231567
	c-0.6851196,0.3718872-1.3410645,0.7959595-1.960144,1.2758484c-2.539032,1.9709473-5.0609741,5.6488647-5.492981,8.8749695
	c-0.3699341,2.7629395,1.2801208,6.3479004,4.1821899,6.993103c1.132782,0.2519531,2.3199158,0.1020203,3.2578735-0.6171265
	c0.7189026-0.5510254,1.2290955-1.4150696,1.2189026-2.3380432c-0.0149841-1.2889099-0.8450012-2.3839111-2.0488586-2.5817871
	c0.447876,0.4589539,0.6938782,1.0729065,0.5870667,1.7558289c-0.3651123,2.3320618-3.2541809,2.0930481-4.1309814,0.2800293
	c-0.8041382-1.6610718,0.3328247-3.6759644,2.0449219-4.1408691c3.0710449-0.8342285,5.7489624,1.5769348,5.6800842,4.665863
	c-0.0209656,0.973114-0.2792358,1.9589844-0.7460632,2.8130798c-1.9199219,3.5059204-6.8012085,3.0949097-9.441925,0.6729431
	c0.0189819,0.7670898-0.1201782,1.5409241-0.5700684,2.1770325c-1.67099,2.3589783-5.5760498,1.269043-7.9829102,1.5060425
	l-0.150238,0.0158691c-1.4028931,0.1752014-2.5520325,1.1760864-3.1090393,2.4471741l-0.4668579,1.066925l-0.026947-1.1639099
	c-0.0490417-2.1800842,1.4277954-3.4230957,3.2879333-4.1589661c1.1530762-0.4561157,3.0160522-0.6230774,4.2218628-1.2302551
	c-1.0187683-0.013031-1.8787537-0.5708923-2.1857605-1.7279968l-0.1000977-0.3789673l0.388092,0.0581055
	c1.7857971,0.2689819,3.3099976-0.2820435,3.8120422-2.1860962c-0.8892212-3.9058838,0.1459961-7.6668701,2.3879089-10.8839111
	c-1.4391785,0.0649414-2.6880798-0.5411377-3.3661804-1.927002l-0.2559204-0.5249634l0.5600891,0.1638794
	c0.6108704,0.1791382,1.2208862,0.2261963,1.8518982,0.1332092c1.3731079-0.2041321,2.8150635-1.098175,4.0271606-1.7521057
	c1.8969421-1.0241699,3.6637878-1.7810059,5.8028259-2.1741943c2.4159546-0.4427185,4.762207-1.863739,6.7331238-3.4468994
	c-4.1051636,1.5119629-6.479126,0.420105-10.6520386-1.8158569c-1.6100769-0.8631897-4.0819092-1.4451294-5.7781372-0.5360413
	c-1.2537537,0.6720581-2.4788818,2.8819885-1.488739,4.1870422c0.2309875,0.3038635,0.527771,0.4739685,0.8518066,0.5179138
	c-0.335083-0.2168579-0.5827942-0.5451355-0.6610718-0.9890442c-0.1068726-0.6040344,0.0300598-1.1950684,0.4810791-1.6270447
	c0.5910034-0.5669556,1.5270081-0.6737976,2.2711182-0.3719177c0.986969,0.4010925,1.4068298,1.3549194,1.3878479,2.3759766
	c-0.0379944,2.0279236-1.836853,3.1691284-3.7429199,2.8269958c-1.2990723-0.2330017-2.3771057-1.1270447-2.8459473-2.3340759
	c-0.2701416,0.2879944-0.6491699,0.5119629-0.9609375,0.6111755c-0.9711609,0.3058777-1.8371582-0.164978-2.467041-0.8940125
	l-0.5410767-0.625946l0.7999268,0.2077942c0.9421997,0.2452087,1.952179-0.6230774,2.4621277-1.3537903
	c0.1479797-0.9431458,0.4209595-1.8921814,0.9578552-2.690094l0.0589905-0.0878601l0.1031799-0.0212708
	c3.1268921-0.6378174,6.1769409-1.612915,9.0960693-2.901001l0.1309814-0.0578003l0.1187744,0.0807495
	c2.7311707,1.8680725,5.6100159,4.2332764,9.1340637,3.1343079c4.9750748-1.5522766,4.8679276-6.6940613,2.3680725-10.419075
	l-0.1250305-0.1870422l0.1669617-0.1491394c0.8450317-0.7548218,1.6631241-1.5409241,2.4499588-2.3569641l0.1610107-0.1669922
	l0.183136,0.143158c1.2410278,0.9688721,2.882843,2.2280579,4.4560547,2.5307922
	c3.4517822,0.6661148,3.8449402-2.7759705,4.8968811-5.117981c0.5380249-1.1990356,1.1630554-2.6347961,2.1809692-3.5039063
	c2.1749878-1.855011,5.6460266-1.2168884,6.3980713,1.7450256c0.4130249,1.6239319-0.0881348,3.4358826-1.5899658,4.321991
	c-2.0159607,1.1868286-4.3641968-0.644928-3.7522278-3.0180664c0.3283081-1.2730103,1.5041199-1.8838806,2.649292-1.461853
	c-0.3322144-0.3900146-0.9720154-0.4220276-1.4351807-0.3271179c-0.7140808,0.1480103-1.3280334,0.6040649-1.6990967,1.2271423
	c-0.4699707,0.7877502-0.7437744,1.559906-1.0298157,2.4227905c-0.2361145,0.7100525-0.4640198,1.3251648-0.7631226,1.9190674
	c1.5791931-0.9720154,3.0699768-0.5419922,4.6780396,0.9920959l0.6811523,0.6488342l-0.9161682-0.2120361
	c-3.52005-0.8129883-4.4078674,1.9411697-6.9970398,3.130043c-2.2209167,1.0190735-4.4378662,0.210022-6.2259827-1.1777954
	c1.0380554,2.0607605,1.1539612,4.2338562,0.6391907,6.6809692c-0.2400513,1.1429443-0.5992432,2.2388306-0.8852234,3.3669739
	c-0.1777344,0.7030029-0.3999634,1.6809387-0.1678162,2.3910522l0.0098877,0.0289001l0.0020142,0.0300293
	c0.2349854,2.8139648,4.9090271,3.5269165,5.4221191-0.151886l0.1408386-1.0060425l0.3560486,0.9519043
	c0.9269409,2.4788513,0.6361084,5.1709595-2.1029968,5.6899719c0.393158,0.1570129,0.835907,0.2239075,1.2330322,0.2151184
	c0.9470825-0.0200806,2.82901-0.9830322,3.7610474-1.3600464c0.6859436-0.276947,1.4088135-0.5332031,2.1390076-0.6610107
	c3.0698853-0.5380554,5.7188721,0.2440186,8.0138245,2.3178711l0.8770447,0.7931213l-1.1270752-0.3560486
	c-0.2587891-0.0819092-0.5249634-0.1210327-0.79599-0.1179199c-1.9139404,0.0190125-4.4769897,2.4689636-6.2197571,3.4699097
	c-3.458252,1.9839783-8.6332092,0.2911072-11.2521362-2.4100342c-1.6868896-1.7398682-2.3439636-3.986084-2.3918457-6.3379517
	c-1.2172012,1.8019409-1.6630936,3.9821167-1.7322464,6.1469421c1.4161453,2.6829834,3.7181778,4.1889954,6.3530045,5.3109741
	c-0.7710266-0.8169861-1.2058716-1.8660583-1.0950012-3.1340027l0.053009-0.6029053l0.3982544,0.4560547
	c2.7589417,3.1578369,6.5698547,4.6697998,10.730835,4.0597839c3.5209045-0.5158997,6.5769348-2.8978271,9.1459656-5.3138123
	c-0.9229431,0.2319031-1.8518677,0.2409363-2.8250122-0.0541382l-0.5569763-0.1689148l0.499176-0.2991028
	c5.9989624-3.5908813,8.8477478-7.8899536,9.2199402-14.5108337c-1.6409607,3.3939514-4.3959351,6.3879089-7.775116,8.0379639
	c-1.9658508,0.9589539-4.1000366,1.4400024-6.2920837,1.3339539c-2.520874-0.1218567-4.5898743-1.2200317-6.3059692-3.0789795
	c-1.4238586-1.7220459-3.7009277-3.9480896-6.1670532-3.4319153l-0.6868286,0.1440125l0.4308777-0.5550537
	c1.2109375-1.5550537,3.4900208-2.4550781,5.1360779-1.2149353c0.1958923-4.3071899,2.5299072-6.8399658,6.9100342-7.6892395
	c2.4199219-0.4688797,4.9390564-1.8507462,5.6219482-4.3928604c0.7449341-2.7790833-1.1230774-5.3050537-3.2210083-6.9040222
	l-0.5510864-0.4198608l0.6922607-0.0422363c3.1427307-0.1929932,6.4779968,1.631073,7.4188232,4.7140198l0.1930237-0.6859436
	c0.9090576-3.2340698-1.7628784-8.2080383-3.7218628-10.6398926c-1.2520752-1.5539551-2.8352051-3.0140381-4.6491089-3.9469604
	c0.7061157,0.6638794,1.2719116,1.4649658,1.5681152,2.4089355c0.38974,1.2441101,0.2398376,2.5899658-0.4620667,3.6949463
	c-0.3690491,0.5819092-0.8722229,1.066925-1.4671631,1.4158936l-0.9269714,0.5419922l0.5799561-0.9039612
	c0.353241-0.5507813,0.2321777-2.1529541,0.0972595-2.7657776c-0.0992126-0.4501343-0.2650452-0.9291992-0.5340271-1.3260498
	c0.8070068,3.7258301-1.9670105,6.7379761-6.0281982,5.8149719l-0.6159668-0.1400452l0.5380554-0.3310547
	c2.7150269-1.6710205,3.5319214-4.5470581,2.2920532-7.4230957c-0.1890564-0.4379578-0.4089966-0.862854-0.6499634-1.2738647
	l-0.0541687-0.0930176l0.0280762-0.1028442c0.3489685-1.3291626,0.6349487-2.6751099,0.8609009-4.0311584l0.0430908-0.2539978
	l0.2539673,0.0419312c0.8421631,0.1411743,1.6800842,0.1040344,2.5101013-0.0910034
	c1.0828247-0.2539673,2.2980042-0.848938,2.7688904-1.9230042c0.8410034-1.9187317-1.4870605-4.4728088-3.4758911-3.6629333
	c-0.6170654,0.2519836-0.9790955,0.9830627-0.9920959,1.6690674c1.1749573-1.2189026,3.4959717,0.329071,2.3858948,2.0760803
	c-0.6428528,1.0119629-1.8317566,1.2228394-2.8499146,0.6338196c-0.0918579-0.0529785-0.1800232-0.1108093-0.2650757-0.1748962
	l-0.1187744-0.0889893l0.0178528-0.1479492c0.1990051-1.6180725,0.3070374-3.2459717,0.3291321-4.8761902l0.0019836-0.1289673
	l0.1048889-0.0759888c0.2341003-0.1689148,0.4821777-0.3129272,0.7429199-0.4308472
	c-0.2607422-0.1181946-0.5088196-0.262207-0.7429199-0.4311829l-0.1048889-0.0759277l-0.0019836-0.1289978
	c-0.0220947-1.6299438-0.130127-3.2589722-0.3291321-4.8769836l-0.0178528-0.1479797l0.1187744-0.0890198
	c0.0850525-0.0640259,0.1732178-0.1230164,0.2650757-0.1759949c1.0190125-0.5879517,2.2070618-0.3739319,2.8499146,0.6380615
	c1.1092224,1.7458496-1.2109375,3.2929688-2.3858948,2.072937c0.0119019,0.6868591,0.3750305,1.4190674,0.9920959,1.6710815
	c1.9888306,0.809845,4.3168945-1.7461548,3.4758911-3.6641235c-0.4708862-1.0740051-1.6860657-1.6690369-2.7688904-1.9229736
	c-0.8300171-0.1950684-1.6679382-0.2318726-2.5101013-0.0910339l-0.2539673,0.0419922l-0.0430908-0.2539978
	c-0.2259521-1.3561096-0.5127869-2.7019653-0.8609009-4.0319824l-0.0280762-0.1029358l0.0541687-0.0921021
	c0.2398071-0.4110413,0.4620667-0.835968,0.6499634-1.2739258c1.2398682-2.8751526,0.4240723-5.7520142-2.2920532-7.4239197
	l-0.5380554-0.3310852l0.6159668-0.1400146c4.0632019-0.9229431,6.8352051,2.0899658,6.0281982,5.8169861
	c0.2678528-0.3960266,0.4339294-0.8739319,0.5340271-1.3249512c0.1349182-0.6130981,0.2559814-2.2161255-0.0972595-2.7680054
	l-0.5799561-0.9050903l0.9269714,0.5439758c0.5971985,0.3500671,1.1012268,0.8370667,1.4711609,1.42099
	c0.6990356,1.1052246,0.8469849,2.4499817,0.4569397,3.6929932c-0.2970581,0.9422302-0.8608704,1.742157-1.5669861,2.4051819
	c1.8139038-0.9331665,3.3970337-2.3930054,4.6479492-3.946991c1.960144-2.4321289,4.6320801-7.4060669,3.7230225-10.6409302
	l-0.1930237-0.6862793c-0.9408264,3.0840759-4.2749329,4.9082031-7.4188232,4.7151184l-0.6911011-0.0430908l0.5499268-0.4189453
	c2.0979309-1.599884,3.9659424-4.125,3.2210083-6.9040833c-0.6828918-2.5429382-3.2020264-3.9239502-5.6219482-4.3928528
	c-4.3809814-0.8489685-6.7141418-3.3819885-6.9100342-7.6889648c-1.6460571,1.2398682-3.9251404,0.3410339-5.1360779-1.2160645
	l-0.4300232-0.553009l0.6859741,0.1431274c2.4661255,0.5147705,4.7431946-1.7101135,6.1772461-3.4432373
	c1.7059021-1.8479309,3.7749023-2.9457703,6.2957764-3.0668335c2.1920471-0.1059875,4.3262329,0.3739319,6.2920837,1.3340149
	c3.3791809,1.6500244,6.1341553,4.6428528,7.775116,8.0370789c-0.3721924-6.6211548-3.2209778-10.9210205-9.2199402-14.5111389
	l-0.499176-0.2990112l0.5569763-0.1689758c0.9731445-0.2959595,1.9020691-0.2859802,2.8250122-0.0549927
	c-2.5690308-2.4159546-5.625061-4.7959595-9.1459656-5.3121338c-4.1598816-0.6088562-7.9710388,0.8991699-10.730835,4.0581055
	l-0.3982544,0.4549255l-0.053009-0.6029053c-0.1108704-1.2679138,0.3239746-2.3158875,1.0960999-3.1331482
	c-2.6359253,1.1222229-4.9379578,2.6279907-6.3541031,5.3121643c0.0699768,2.1650696,0.5150452,4.3440552,1.7322464,6.1469116
	c0.0478821-2.3519287,0.7049561-4.5989075,2.3918457-6.3380127c2.618927-2.7008057,7.7938843-4.3939514,11.2521362-2.40802
	c0.5258179,0.3021851,1.0298157,0.6451416,1.5239258,0.9972534c1.4198608,1.0119629,3.6138916,2.9449158,5.4918213,2.3538818
	l1.1262207-0.3540649l-0.8761902,0.7911682c-2.2957764,2.072998-4.9447632,2.8538818-8.0138245,2.315918
	c-0.7301941-0.1281433-1.4522095-0.3841248-2.1381531-0.6610413c-0.9320679-0.375885-2.8139648-1.3390808-3.7619019-1.3601074
	c-0.3971252-0.0079346-0.8398743,0.0581055-1.2338867,0.2160339c2.7399597,0.518158,3.0307922,3.2119141,2.1038513,5.6911011
	l-0.3560486,0.9510498l-0.1408386-1.0060425c-0.513092-3.6799316-5.1871338-2.9661865-5.4221191-0.1519165l-0.0020142,0.0297241
	l-0.0098877,0.0281067c-0.2321472,0.7100525-0.0099182,1.6879883,0.1678162,2.3909912
	c0.2859802,1.1290588,0.6451721,2.2240906,0.8852234,3.3681641c0.5147705,2.4468384,0.3988647,4.619873-0.6391907,6.6809692
	c1.7881165-1.3869934,4.0050659-2.1971436,6.2259827-1.1769409c2.5891724,1.1879883,3.4761353,3.940979,6.9970398,3.1277161
	l0.9150696-0.210907l-0.678894,0.6491394c-1.6092224,1.5349426-3.1000061,1.9638672-4.6791992,0.9918823
	c0.2991028,0.5941467,0.5270081,1.2089233,0.7631226,1.9198914c0.2860413,0.8631287,0.559845,1.6350098,1.0298157,2.4222107
	c0.3710632,0.6239014,0.9850159,1.0799866,1.6982422,1.2268066c0.4640198,0.0960999,1.1038208,0.0632019,1.4360352-0.3268127
	c-1.144043,0.4217834-2.3209839-0.1879578-2.649292-1.4609985c-0.611969-2.3731384,1.7351074-4.2051697,3.7511292-3.0171814
	c1.5029297,0.8849792,2.0040894,2.6971436,1.5910645,4.3200073c-0.7520447,2.9621887-4.2230835,3.6011353-6.3980713,1.7449646
	c-1.0179138-0.8699036-1.6429443-2.3039551-2.1809692-3.5038757c-1.0519409-2.34198-1.4450989-5.7849426-4.8968811-5.1191101
	c-1.572052,0.3030701-3.2141724,1.5630188-4.4560547,2.532196l-0.183136,0.1420288l-0.1610107-0.1661377
	c-0.7860107-0.8160706-1.6037979-1.6021118-2.4487991-2.355835l-0.1669617-0.150238l0.1246948-0.1859436
	c2.4990311-3.7270203,2.6070633-8.8679504-2.3688965-10.4198914c-3.5240479-1.0989685-6.4028931,1.264801-9.1340637,3.1328735
	l-0.1187744,0.0810242l-0.1309814-0.0581055c-2.9191284-1.2877502-5.9691772-2.2617188-9.0960693-2.8998108l-0.1031799-0.0209961
	l-0.0589905-0.0881348c-0.5379944-0.7988281-0.8098755-1.7478638-0.9578552-2.690918
	c-0.5099487-0.7310486-1.5190735-1.5990295-2.4610291-1.3529663l-0.8019104,0.2088928l0.5419617-0.6270142
	c0.6298828-0.7287903,1.4958801-1.1999512,2.467041-0.8937988c0.3117676,0.098938,0.6907959,0.322876,0.9609375,0.6108704
	c0.4688416-1.2070007,1.546875-2.1010132,2.8459473-2.3340149c1.9049072-0.3418579,3.7049255,0.7990723,3.7429199,2.8269348
	c0.0189819,1.0202026-0.4008789,1.9740906-1.3878479,2.3760071c-0.742981,0.3010864-1.6789856,0.1950684-2.2711182-0.3718567
	c-0.4510193-0.4320068-0.5879517-1.0230408-0.4810791-1.6271362c0.0782776-0.4450073,0.3259888-0.7718506,0.6610718-0.9898071
	c-0.322876,0.0439148-0.6208191,0.2140198-0.8518066,0.5189819c-0.9901428,1.3048096,0.2349854,3.5149536,1.488739,4.1867981
	c1.696228,0.9090881,4.1680603,0.3270874,5.7781372-0.5349121c4.1740112-2.2370911,6.546875-3.32901,10.6528625-1.8158875
	c-1.9709167-1.5839844-4.3179932-3.0061035-6.7339478-3.4491577c-2.1390381-0.3929138-3.9050293-1.1500244-5.8028259-2.1730347
	c-1.2120972-0.6539917-2.6531982-1.5480347-4.0271606-1.7518616c-0.631012-0.0929565-1.2410278-0.0450439-1.8518982,0.1329956
	l-0.5600891,0.1641235l0.2559204-0.5241699c0.6781006-1.3869934,1.927002-1.993866,3.3661804-1.9281006
	c-2.2419128-3.2167358-3.2771301-6.9789104-2.3879089-10.8839397c-0.5031433-1.9039917-2.0262451-2.4539185-3.8120422-2.1860352
	l-0.388092,0.058075l0.1000977-0.3789673c0.3070068-1.157074,1.1669922-1.7149658,2.184967-1.7280273
	c-1.2050171-0.6060181-3.0679932-0.7729797-4.2210693-1.2299194c-1.8601379-0.736145-3.3369751-1.9791565-3.2879333-4.1589966
	l0.026947-1.1630554l0.4668579,1.0661011c0.5570068,1.270752,1.7061462,2.2719727,3.1062012,2.4448547l0.1499634,0.0170288
	c2.4099731,0.2381287,6.315033-0.8520813,7.9860229,1.5069275c0.4498901,0.6360474,0.5890503,1.4099426,0.5700684,2.1769714
	c2.6407166-2.421875,7.5220032-2.8317871,9.441925,0.6741028c0.4668274,0.8540955,0.7250977,1.8391113,0.7460632,2.8119812
	c0.0688782,3.0888977-2.6090393,5.5000286-5.6800842,4.6649475c-1.7120972-0.4639893-2.8490601-2.4788818-2.0449219-4.1399841
	c0.8768005-1.8139038,3.7658691-2.052002,4.1309814,0.2800293c0.1068115,0.6828918-0.1391907,1.2960205-0.5870667,1.7549438
	c1.2038574-0.1970215,2.0338745-1.2920227,2.0488586-2.5817871c0.0101929-0.9221191-0.5-1.7861023-1.2189026-2.3379822
	c-0.9379578-0.7180176-2.1250916-0.8691406-3.2578735-0.617157c-2.9020691,0.6460266-4.552124,4.2309875-4.1821899,6.9950867
	c0.4320068,3.2249432,2.9551086,6.9040508,5.492981,8.8749676c0.6190796,0.4799194,1.2750244,0.9039612,1.960968,1.2758789
	c-1.5519714-2.5160217-1.1329956-4.8719177,0.9680481-7.2158813l0.4461975-0.4980469l0.0028381,0.6690063
	c0.0229187,4.6059875,2.8779907,8.0608521,6.3869629,10.6868896c-0.9648743-2.2719727-1.4739685-4.3378906-2.0780334-6.8099365
	c-0.5969849-2.4369507-1.5908203-4.8429871-3.8658752-6.1608562l-0.5870972-0.3401184l0.6641541-0.1349487
	c1.6679077-0.3401794,3.3718567,0.3988342,4.3109741,1.7509441c-0.2489319-6.8549786-3.5549622-12.2550335-10.8380127-13.550993
	c-2.4179688-0.4300537-4.8101196-0.6448975-7.2391052-0.9558411c-1.7679749-0.2270508-3.63797-0.532074-5.223999-1.3901062
	c-1.7157898-0.9289551-2.8530273-2.3740549-3.7348938-4.0581064c-0.8821716,1.6840515-2.019104,3.1291513-3.7340698,4.0569468
	c-1.586853,0.8591919-3.4559937,1.1642151-5.224823,1.3912659c-2.4281616,0.3109436-4.8200378,0.5257874-7.2391663,0.9558411
	c-7.2830505,1.2959595-10.5890503,6.6960144-10.8379517,13.5521526c0.9399414-1.3521099,2.6419067-2.0922832,4.3109436-1.7521038
	l0.6641235,0.1349487l-0.5870361,0.3401184c-2.2750854,1.3178692-3.27005,3.7250042-3.8661804,6.1608562
	c-0.6037598,2.4729309-1.1117554,4.5379639-2.0778198,6.8099365c3.5090332-2.6260376,6.3640747-6.0809021,6.3870544-10.6868896
	l0.0028381-0.6690063l0.446167,0.4980469c2.1018982,2.342865,2.520874,4.6990356,0.9689026,7.2150269
	c0.6859436-0.3710632,1.3410645-0.795105,1.9598694-1.2750244c2.538147-1.9709167,5.0612488-5.6500244,5.4932556-8.8749676
	c0.3699341-2.7640991-1.2790222-6.3490601-4.1811218-6.9950867c-1.1341248-0.2519836-2.3209839-0.1008606-3.2581177,0.617157
	c-0.7200012,0.5518799-1.230835,1.415863-1.2197876,2.3379822c0.01474,1.2897644,0.8450317,2.3847656,2.0489197,2.5817871
	c-0.4479065-0.4589233-0.6930847-1.072052-0.5870667-1.7549438c0.3639526-2.3320313,3.2530518-2.0930786,4.1309204-0.2800293
	c0.8030701,1.6611023-0.3319092,3.6751099-2.0449219,4.1399841c-3.0710449,0.8350811-5.7500916-1.5760498-5.6800537-4.6649475
	c0.0220947-0.9728699,0.2781067-1.9578857,0.7460938-2.8119812c1.9190674-3.5070496,6.8008728-3.0959778,9.4418945-0.6741028
	c-0.0178223-0.7670288,0.1201782-1.5409241,0.5700378-2.1769714c1.6701965-2.3598328,5.5760803-1.2687988,7.9829712-1.5069275
	l0.1490784-0.0170288c1.4031372-0.1720581,2.5529175-1.1720886,3.1090393-2.4448547l0.4660034-1.0661011l0.0281067,1.1630554
	c0.0518799,2.1809692-1.4272461,3.4228516-3.2862244,4.1589966c-1.1539917,0.4569397-3.0158081,0.6239014-4.2218933,1.2299194
	c1.019043,0.0130615,1.8790283,0.5700989,2.1860352,1.7280273l0.1000977,0.3789673l-0.388092-0.058075
	c-1.7861023-0.2678833-3.3111572,0.2820435-3.8139954,2.1860352c0.8900757,3.9050293-0.1451416,7.6672039-2.3859558,10.8839397
	c1.4380493-0.0657654,2.6858215,0.5411072,3.3650513,1.9281006l0.2559509,0.5241699l-0.5601501-0.1641235
	c-0.611969-0.1780396-1.2208862-0.2259521-1.8518372-0.1329956c-1.3742371,0.2038269-2.8151245,1.0978699-4.0272217,1.7518616
	c-1.8969421,1.0230103-3.6629333,1.7810059-5.8019104,2.1730347c-2.4160156,0.4430542-4.7619629,1.8651733-6.7328796,3.4491577
	c4.1048889-1.5119629,6.4780273-0.4212036,10.6517334,1.8158875c1.6101074,0.8631592,4.0810547,1.4440002,5.7770386,0.5349121
	c1.2540283-0.6718445,2.4800415-2.882843,1.4901733-4.1867981c-0.2310181-0.3049622-0.5300598-0.4750671-0.8540955-0.5189819
	c0.335907,0.2179565,0.5839539,0.5447998,0.6622009,0.9898071c0.106842,0.6040955-0.0300598,1.1951294-0.4801941,1.6271362
	c-0.5918579,0.566925-1.5278625,0.6740417-2.270874,0.3718567c-0.9881592-0.4008179-1.4082031-1.3558044-1.3889465-2.3760071
	c0.0379944-2.0278625,1.8388367-3.1687927,3.7440186-2.8269348c1.2979736,0.2330017,2.3768311,1.1259155,2.8459778,2.3331604
	c0.2690125-0.2871399,0.6479797-0.5110779,0.9598083-0.6100159c0.9699707-0.3061523,1.8370972,0.1650085,2.4669495,0.8937988
	l0.5419922,0.6270142L91.6756821,45.70504c-0.9419556-0.2460632-1.9510498,0.6219177-2.4610596,1.3529663
	c-0.1467896,0.9430542-0.4197998,1.8920898-0.9577637,2.690918l-0.0592651,0.0881348l-0.1029053,0.0209961
	c-3.1260376,0.638092-6.1769714,1.6120605-9.0960693,2.8998108l-0.1309814,0.0581055l-0.1190491-0.0810242
	c-2.730896-1.8680725-5.6109009-4.231842-9.1337891-3.1328735c-4.9759674,1.5519409-4.8670959,6.6940308-2.367218,10.4198914
	l0.125,0.1859436l-0.1678162,0.150238c-0.8450012,0.7537231-1.6630859,1.5397644-2.4499817,2.3547363l-0.1610107,0.1661072
	l-0.1831055-0.1419983c-1.2418633-0.9680786-2.8828392-2.2280273-4.454937-2.5310974
	c-3.4528656-0.6658325-3.8460541,2.7771301-4.897995,5.1191101c-0.5380096,1.1999207-1.1630249,2.6339722-2.1820984,3.5038757
	c-2.1738892,1.8561707-5.644043,1.216095-6.3969421-1.7449646c-0.4130096-1.6228638,0.0881653-3.4358826,1.5899658-4.3200073
	c2.0171204-1.1879883,4.3650513,0.6431885,3.7530518,3.0160828c-0.3291016,1.2789917-1.5080261,1.8819275-2.650116,1.4609375
	c0.3322449,0.3911743,0.9720154,0.4240723,1.4360352,0.3279724c0.7140503-0.1468201,1.327179-0.6029053,1.6990967-1.2268066
	c0.4699707-0.7880554,0.7440796-1.559082,1.0301056-2.4230652c0.2358398-0.710968,0.4637604-1.3248901,0.7619476-1.9190369
	c-1.5791626,0.9719849-3.0710449,0.5430603-4.6791382-0.9918823l-0.678894-0.6491394l0.9150085,0.210907
	c3.522049,0.8132629,4.4078674-1.9388733,6.9970398-3.1277161c2.2209473-1.0202026,4.4379272-0.2112122,6.2260284,1.1769409
	c-1.0380707-2.0610962-1.1539764-4.2341309-0.6392365-6.6809692c0.2412415-1.1440735,0.6000977-2.2391052,0.8861237-3.3681641
	c0.178009-0.7030029,0.3991394-1.6809387,0.1681061-2.3909912l-0.0102234-0.0281067l-0.0019684-0.0297241
	c-0.2358398-2.81427-4.9078979-3.5271606-5.4229736,0.152771l-0.1408844,1.005188l-0.3560333-0.9510498
	c-0.9260712-2.479187-0.6360779-5.1729431,2.1038818-5.6911011c-0.3940125-0.1579285-0.8368073-0.2239685-1.2339172-0.2160339
	c-0.947052,0.0210266-2.8309631,0.9850769-3.7630005,1.3612366c-0.6851349,0.2757874-1.4071198,0.5317688-2.1358795,0.6599121
	c-3.0682373,0.5379639-5.7192078-0.2420959-8.0130005-2.315918l-0.8761902-0.7911682l1.1262207,0.3540649
	c0.2568054,0.0810547,0.5218506,0.119873,0.7919769,0.1179199c1.9128265-0.0178833,4.4787598-2.4689636,6.2217865-3.4690552
	c3.4591064-1.9859314,8.6320648-0.2939453,11.252121,2.40802c1.6868706,1.7391052,2.3439751,3.986084,2.3929863,6.3391113
	c1.216095-1.8039551,1.6619873-3.9829407,1.7308655-6.1480103c-1.4159241-2.6830139-3.7168083-4.1890564-6.3527336-5.3121643
	c0.7707367,0.8180847,1.2070007,1.8652344,1.095871,3.1331482l-0.0518799,0.6029053l-0.3982544-0.4549255
	c-2.7609406-3.1581116-6.5729828-4.6669617-10.7328186-4.0581055c-3.5220642,0.5161743-6.5780945,2.8961792-9.1459961,5.3129578
	c0.9229584-0.2318115,1.8518829-0.2417908,2.8258667,0.0541687l0.5561523,0.1689758l-0.4980469,0.2990112
	c-5.9989624,3.5901184-8.8489075,7.8899841-9.2210999,14.5111389c1.6409607-3.3950806,4.3959656-6.3870544,7.776001-8.0370789
	c1.9661102-0.960083,4.1000214-1.4400024,6.2909241-1.3340149c2.5222626,0.1210632,4.5912781,1.2189026,6.3070831,3.0778809
	c1.4241333,1.7220764,3.7009125,3.9469604,6.1670685,3.4321899l0.6871033-0.1431274l-0.4319916,0.553009
	c-1.2100983,1.5559387-3.4891663,2.4570923-5.1341095,1.2160645c-0.1981506,4.3089905-2.5310669,6.8399963-6.913147,7.6889648
	c-2.4199219,0.4689026-4.9368134,1.8490906-5.6199646,4.3908691c-0.7457886,2.7791138,1.1219635,5.3061829,3.2201538,6.9060669
	l0.5499268,0.4189453l-0.6899414,0.0430908c-3.1439209,0.1930847-6.4780273-1.6298828-7.4191284-4.7140198l-0.1930389,0.6851807
	c-0.9099274,3.2337341,1.7620087,8.2079468,3.7210388,10.639801c1.2520599,1.5539551,2.8340759,3.0149536,4.6490936,3.9481201
	c-0.7069397-0.6641846-1.2718964-1.4649353-1.5669861-2.4091492c-0.3900452-1.2449951-0.2389526-2.5909119,0.4620514-3.6958313
	c0.3699188-0.5811157,0.871933-1.0649719,1.4658051-1.4141846l0.9300385-0.54599l-0.5828094,0.907959
	c-0.3540497,0.5510254-0.2321472,2.1551819-0.097229,2.7680054c0.1000671,0.4501648,0.2661743,0.9280701,0.5351868,1.3240967
	c-0.8081665-3.7258911,1.9638367-6.7399292,6.0270386-5.8169861l0.6148376,0.1400146l-0.5368958,0.3310852
	c-2.7150269,1.6719055-3.5311279,4.5487671-2.2920837,7.4239197c0.1879272,0.4379578,0.4101563,0.8628845,0.6510925,1.2739258
	l0.0538635,0.0921021l-0.0280457,0.1040344c-0.3489532,1.3289185-0.6358032,2.6747742-0.8608856,4.0308838l-0.0430756,0.2539978
	l-0.2539978-0.0419922c-0.8419037-0.1408386-1.6798096-0.1040344-2.5109253,0.0910339
	c-1.0820007,0.2539368-2.2980499,0.8489685-2.7688904,1.9229736c-0.8410339,1.9190674,1.4890442,4.4739685,3.4769745,3.6641235
	c0.6168213-0.2520142,0.9788055-0.9842224,0.9898529-1.6710815c-1.1738281,1.2200317-3.493988-0.3270874-2.3850708-2.072937
	c0.6431885-1.0119934,1.8320313-1.2260132,2.8511047-0.6380615c0.0921173,0.0529785,0.1799774,0.111969,0.2650299,0.1759949
	l0.1179199,0.0898743l-0.0178375,0.1471252c-0.1990204,1.6180115-0.3061523,3.2470398-0.3291321,4.8769836l-0.0019836,0.1289978
	l-0.1048737,0.0759277c-0.2341461,0.1689758-0.4821777,0.3129883-0.7421112,0.4311829
	c0.2599335,0.1179199,0.5079651,0.2619324,0.7421112,0.4308472l0.1048737,0.0759888l0.0019836,0.1289673
	c0.0229797,1.6302185,0.1309662,3.2581177,0.3291321,4.8761902l0.0169983,0.1459656l-0.1159515,0.0898743
	c-0.0850372,0.0651855-0.1740417,0.1230164-0.2661591,0.1759949c-1.0170898,0.5890198-2.2079163,0.3770447-2.8511047-0.6338196
	c-1.1097412-1.7470093,1.2112427-3.2949829,2.3850708-2.0760803c-0.0110474-0.6860046-0.3730316-1.4179077-0.9898529-1.6690674
	c-1.9879303-0.8098755-4.3180084,1.7442017-3.4769745,3.6629333c0.4708405,1.0740662,1.6857605,1.6690369,2.7688904,1.9230042
	c0.8311157,0.1950378,1.6690216,0.2321777,2.5109253,0.0910034l0.255127-0.0419312l0.0419464,0.2539978
	c0.2250824,1.3560486,0.5119324,2.7019958,0.8608856,4.0311584l0.0280457,0.1040344l-0.0549927,0.0918274
	c-0.2409363,0.4110107-0.4620361,0.835907-0.6499634,1.2738647c-1.2390442,2.8752136-0.4229431,5.7520752,2.2920837,7.4230957
	l0.5368958,0.3319092l-0.6148376,0.1391907c-4.0620422,0.9230042-6.8360596-2.0899353-6.0270386-5.8161316
	c-0.2690125,0.3959961-0.4351196,0.875061-0.5351868,1.3260498c-0.1349182,0.6131592-0.2568207,2.216156,0.097229,2.7669373
	l0.581955,0.9062195l-0.929184-0.5442505c-0.5918884-0.3478394-1.0927734-0.8299866-1.4618225-1.408844
	c-0.7041473-1.1049194-0.8569336-2.4519348-0.4671631-3.6980591c0.2950897-0.9450378,0.8611755-1.7478333,1.5681152-2.4128723
	c-1.8150177,0.9329224-3.3978882,2.3950195-4.6490936,3.9489746c-1.9590302,2.4318237-4.6309662,7.4049683-3.7210388,10.6378784
	l0.1930389,0.6859436c0.9411011-3.0829468,4.2752075-4.9070129,7.4191284-4.7140198l0.6899414,0.0422363l-0.5499268,0.4198608
	c-2.0981903,1.6001587-3.9659424,4.1260986-3.2201538,6.9049072c0.6831512,2.5420837,3.2000427,3.9230957,5.6199646,4.3919754
	c4.3820801,0.8492737,6.7149963,3.3811951,6.913147,7.6892395c1.6449432-1.2409973,3.9240112-0.3401184,5.1341095,1.2149353
	l0.4319916,0.5550537l-0.6882477-0.1440125c-2.4638672-0.5161743-4.7429199,1.7098694-6.1750031,3.4418335
	c-1.7067261,1.8490295-3.7757416,2.9472046-6.2980042,3.0690613c-2.1909027,0.1060486-4.3248138-0.375-6.2909241-1.3339539
	c-3.3800354-1.6500549-6.1350403-4.6440125-7.776001-8.0379639c0.3721924,6.6208801,3.2210083,10.921051,9.2210999,14.5108337
	l0.4980469,0.2991028l-0.5561523,0.1689148c-0.9739838,0.2950745-1.9029083,0.2860413-2.8258667,0.0541382
	c2.5690308,2.4159851,5.625061,4.7979126,9.1459961,5.3138123c4.160965,0.6100159,7.9718781-0.901947,10.7328186-4.0597839
	l0.3982544-0.4560547l0.0518799,0.6029053c0.1111298,1.2679443-0.3240204,2.3170166-1.0950165,3.1340027
	c2.6350708-1.1219788,4.935955-2.6279907,6.3518791-5.3109741c-0.0688782-2.1648254-0.5147705-4.3450012-1.7308655-6.1469421
	c-0.0490112,2.3518677-0.706955,4.5980835-2.3929863,6.3379517c-2.6189117,2.7020264-7.7941589,4.3951111-11.252121,2.4100342
	c-0.5269775-0.3030396-1.0309753-0.6468506-1.5258942-1.0000916c-1.4178925-1.0108337-3.6119232-2.9448853-5.4878693-2.3518982
	l-1.1270752,0.3560486l0.8770447-0.7931213c2.2929382-2.0749512,4.9447632-2.8559265,8.0130005-2.3178711
	c0.7299194,0.1278076,1.4507446,0.3829651,2.1370087,0.6598816c0.9309082,0.3761292,2.8159637,1.341095,3.7618713,1.3611755
	c0.39711,0.0087891,0.8399048-0.0581055,1.233078-0.2151184c-2.7391205-0.5190125-3.0291138-3.2119751-2.1030426-5.6899719
	l0.3560333-0.9510803l0.1408844,1.0052185c0.5150757,3.6788025,5.1871338,2.9667053,5.4229736,0.151886l0.0019684-0.0300293
	l0.0102234-0.0289001c0.2310333-0.7101135,0.009903-1.6880493-0.1681061-2.3910522
	c-0.286026-1.1281433-0.6448822-2.2240295-0.8861237-3.3669739c-0.51474-2.447113-0.3988342-4.6202087,0.6392365-6.6809692
	c-1.7881012,1.3878174-4.0050812,2.1968689-6.2260284,1.1777954c-2.5891724-1.1888733-3.4761047-3.9430313-6.9970398-3.130043
	l-0.9161377,0.2120361l0.6811523-0.6488342c1.6078033-1.5340881,3.0988464-1.9641113,4.678009-0.9920959
	c-0.299057-0.5939026-0.5261078-1.2090149-0.7619476-1.9190674c-0.2871552-0.8628845-0.561264-1.6350403-1.0301056-2.4227905
	c-0.3719177-0.6230774-0.9850464-1.0791321-1.6990967-1.2271423c-0.4640198-0.0960693-1.1037903-0.0628967-1.434906,0.3271179
	c1.1440735-0.4220276,2.3210144,0.1879883,2.6489868,1.461853c0.6119995,2.3731384-1.7370605,4.204895-3.7530518,3.0180664
	c-1.5018005-0.8861084-2.0038147-2.6980591-1.5899658-4.321991c0.7528992-2.9619141,4.2219238-3.6000366,6.3969421-1.7450256
	c1.0190735,0.8691101,1.6440887,2.3048706,2.1820984,3.5039063c1.0519409,2.3431091,1.4451294,5.7840958,4.897995,5.117981
	c1.5720978-0.3027344,3.2139282-1.5627747,4.454937-2.5307922l0.1831055-0.143158l0.1610107,0.1669922
	c0.7868958,0.81604,1.6049805,1.6021423,2.4508362,2.3569641l0.1669617,0.1491394l-0.125,0.1870422
	c-2.5007324,3.7250137-2.6078949,8.8667984,2.367218,10.419075c3.5228882,1.0989685,6.4028931-1.2651367,9.1337891-3.1343079
	l0.1190491-0.0807495l0.1309814,0.0578003c2.9179688,1.2891846,5.9691772,2.2631836,9.0960693,2.901001l0.1029053,0.0212708
	l0.0592651,0.0878601c0.5379639,0.7991028,0.8109741,1.7469482,0.9577637,2.690094
	c0.5100098,0.7307129,1.519989,1.598999,2.4622192,1.3537903l0.7999268-0.2077942l-0.5411682,0.625946
	c-0.6298523,0.7290344-1.4969788,1.1998901-2.4669495,0.8940125c-0.3118286-0.0992126-0.6907959-0.3231812-0.9598083-0.6099854
	c-0.4691467,1.2069702-1.5480042,2.099884-2.8459778,2.3328857c-1.9060059,0.3421326-3.7060242-0.7990723-3.7440186-2.8269958
	c-0.0192566-1.0210571,0.4007874-1.9760132,1.3889465-2.3759766c0.7430115-0.3018799,1.6798401-0.1950378,2.270874,0.3719177
	c0.4501343,0.4319763,0.5870361,1.0230103,0.4801941,1.6270447c-0.0782471,0.4439087-0.3262939,0.7721863-0.6610413,0.9890442
	c0.3239746-0.0430908,0.6219177-0.2129211,0.8529358-0.5179138c0.9898682-1.3050537-0.236145-3.5149841-1.4901733-4.1870422
	c-1.6959839-0.9090881-4.1677551-0.3271484-5.7770386,0.5360413c-4.1737061,2.2368164-6.5468445,3.3278198-10.6517334,1.8158569
	c1.9709167,1.5831604,4.316864,3.0041809,6.7328796,3.4468994c2.1389771,0.3931885,3.9049683,1.1500244,5.8019104,2.1741943
	c1.2120972,0.6539307,2.6541138,1.5479736,4.0272217,1.7521057c0.6309509,0.0929871,1.2398682,0.045929,1.8518372-0.1332092
	l0.5609741-0.1638794l-0.2567749,0.5249634c-0.6792297,1.3858643-1.927002,1.9919434-3.3661499,1.927002
	c2.2419128,3.217041,3.2771301,6.9780273,2.3870544,10.8839111c0.5028381,1.9040527,2.0270081,2.4550781,3.8139954,2.1860962
	l0.388092-0.0581055l-0.1000977,0.3789673c-0.3070068,1.1582336-1.1669922,1.7149658-2.1860352,1.7279968
	c1.2049866,0.6071777,3.0679016,0.7741394,4.2218933,1.2302551c1.8601074,0.7358704,3.3381042,1.9777222,3.2862244,4.1598511
	l-0.0281067,1.1630249l-0.4660034-1.066925c-0.5561218-1.2730408-1.7059021-2.2719727-3.105896-2.4460144l-0.1491089-0.0161743
	c-2.408905-0.237854-6.3158875,0.8520813-7.986084-1.506897c-0.4498596-0.6369629-0.5878601-1.4099426-0.5700378-2.1770325
	c-2.6410217,2.4230957-7.5228271,2.8329773-9.4418945-0.6729431c-0.4679871-0.8540955-0.723999-1.8399658-0.7460938-2.8130798
	c-0.0688782-3.0889282,2.6090088-5.4989319,5.6800537-4.665863c1.7130127,0.4649048,2.8479919,2.4789429,2.0449219,4.1408691
	c-0.8778687,1.8130188-3.7669678,2.0520325-4.1309204-0.2800293c-0.1060181-0.6829224,0.1400146-1.2960205,0.5879211-1.7558289
	c-1.2038879,0.197876-2.0350342,1.2928772-2.0497742,2.5817871c-0.0110474,0.9229736,0.4997864,1.7870178,1.2189026,2.3380432
	c0.9380188,0.7191467,2.1248779,0.8699341,3.2590027,0.6171265c2.901001-0.6452026,4.5510559-4.2301636,4.1811218-6.993103
	c-0.4320068-3.2261047-2.9539795-6.9040222-5.4932556-8.8749695c-0.6188049-0.4798889-1.2739258-0.9039612-1.9587708-1.2758484
	c1.5508728,2.5159912,1.1307678,4.8707275-0.9700012,7.2149963l-0.446167,0.4988708l-0.0028381-0.6689453
	c-0.0229797-4.6071777-2.8780212-8.0620422-6.3870544-10.6880188c0.9660645,2.2719727,1.4740601,4.3369751,2.0778198,6.8090515
	c0.5961304,2.4378052,1.591095,4.8438721,3.8670349,6.1619873l0.5870667,0.3409729l-0.6650085,0.1349487
	c-1.6690369,0.3379211-3.3710022-0.4010925-4.3109436-1.7529602c0.2489014,6.8559265,3.5549011,12.2558899,10.8379517,13.5518799
	c2.4191284,0.4300537,4.8110046,0.6452026,7.2399902,0.9561462c1.7680054,0.2259216,3.63797,0.532074,5.223999,1.389801
	c1.7149658,0.9281006,2.8518982,2.3740234,3.7340698,4.0572205c0.8818665-1.683197,2.019104-3.1291199,3.7348938-4.0572205
	c1.5860291-0.8577271,3.4552002-1.1638794,5.223999-1.389801c2.4281616-0.3109436,4.8211365-0.5260925,7.2391052-0.9561462
	c7.2830505-1.29599,10.5890808-6.6959534,10.8380127-13.5518799c-0.9391174,1.3518677-2.6430664,2.0908813-4.3101196,1.7529602
	l-0.665863-0.1349487l0.5879517-0.3409729c2.2750549-1.3181152,3.2688904-3.7241821,3.8658752-6.1619873
	c0.6040649-2.4712219,1.1131592-4.5370789,2.0780334-6.8090515c-3.5089722,2.6259766-6.3640442,6.0808411-6.3869629,10.6880188
	l-0.0028381,0.6689453l-0.4461975-0.4988708C116.7827377,151.7930298,116.3617783,149.4391479,117.9137497,146.9231567
	L117.9137497,146.9231567z M126.4426193,35.2219467c2.8882217-2.6918335,6.1171951-4.743803,10.0901871-5.4230022
	c4.9598389-0.8469849,9.7789917-0.0799255,14.0167847,2.6979961c8.1680298,5.3540955,12.0472412,16.6209717,12.3392334,26.0271912
	c0.1199036,3.8548279-0.3022156,8.3088989-1.9131165,11.9057617c7.6620178-3.2728271,15.0590515,3.7250061,17.4259949,10.6841125
	c1.1409302,3.3519287,2.2719727,8.986084,5.0640564,11.2798767c0.8189392,0.6720886,1.7510071,1.0791626,2.7910156,1.2662354
	l1.4099426,0.2528381l-1.4099426,0.2539978c-1.0400085,0.1871033-1.9720764,0.5941162-2.7910156,1.2670593
	c-2.7909546,2.2949829-3.9231262,7.9270935-5.0640564,11.2799072c-2.3680725,6.9590759-9.7639771,13.9570007-17.4259949,10.684082
	c1.6109009,3.598053,2.03302,8.0501099,1.9131165,11.9060745c-0.1011963,3.2459717-0.6080322,6.5148926-1.4830933,9.6420898
	c-3.2791138,11.7147217-11.7091064,21.3318481-24.8729248,19.0819702c-3.9729919-0.6780396-7.2019653-2.7312012-10.091011-5.4221191
	c0.6179199,3.2950134-0.0371399,7.6628723-1.4570618,10.5139771c-2.7019653,5.4221191-8.1968994,8.1150513-14.0530396,8.5438843
	c-6.1721497,0.4510498-12.2640381,0.6582642-13.5509949,8.1660767l-0.2539673,1.4799652l-0.2539978-1.4799652
	c-1.2869263-7.5078125-7.3779907-7.7150269-13.5498657-8.1660767c-5.8572388-0.428833-11.3510742-3.1217651-14.0542297-8.5438843
	c-1.42099-2.8511047-2.0749512-7.2189636-1.4569855-10.5139771c-2.8879395,2.690918-6.1180077,4.7440796-10.0910454,5.4221191
	c-4.9597778,0.8478394-9.7789612,0.08078-14.0170288-2.6980286c-8.1688843-5.353241-12.0469685-16.6201172-12.3389301-26.0260315
	c-0.1199188-3.8559647,0.3021545-8.3080215,1.9139423-11.9060745c-7.6617603,3.2729187-15.0598927-3.7250061-17.4268341-10.684082
	c-1.1400909-3.3528137-2.2711182-8.9838257-5.0621033-11.2790222c-0.818924-0.6729431-1.7509613-1.0808411-2.7918549-1.2679443
	l-1.4102173-0.2539978l1.4102173-0.2528381c1.0408936-0.1870728,1.9729309-0.5941467,2.7918549-1.2670898
	c2.7909851-2.2940979,3.9220123-7.9270935,5.0621033-11.2790222c2.3669424-6.9591064,9.7639303-13.9569397,17.4268341-10.6841125
	c-1.6117878-3.5968628-2.0338612-8.0509338-1.9139423-11.9057617c0.1011963-3.2470703,0.6080322-6.5179749,1.4839497-9.6459961
	c3.2802277-11.7142334,11.7101898-21.3281536,24.8720093-19.0791912c3.9730377,0.6791992,7.2031059,2.7311687,10.0910454,5.4221172
	c-0.6179657-3.2949505,0.0359955-7.6639996,1.4569855-10.5140057c2.7031555-5.4229431,8.1980896-8.1130371,14.0542297-8.5421753
	c6.1727295-0.4518137,12.2629395-0.6599131,13.5498657-8.1668701l0.2539978-1.4819641l0.2539673,1.4819641
	c1.2869568,7.5080867,7.3780212,7.7150569,13.5509949,8.1668701c5.8549805,0.4291382,11.3510742,3.1200867,14.0530396,8.5421753
	C126.4046555,27.5579166,127.0597153,31.9261112,126.4426193,35.2219467L126.4426193,35.2219467z M97.1057358,184.1400146
	c0.5289307-1.6009827,1.6789856-2.9210663,2.9860229-3.9860687c1.1928406-0.970871,2.3277893-1.5499725,3.6028137-2.3348694
	c1.2141113-0.7469482,3.2059937-0.9771118,4.6150818-1.1080627c0.9901428-0.0918579,1.9831543-0.1519623,2.9741516-0.2239838
	c7.5837708-0.5549927,14.5570068-4.2389221,18.0300369-11.2101135c0.5828247-1.1690369,1.0289917-2.4188538,1.3680115-3.6799927
	l0.0768127-0.2860107l0.2720947,0.1151123c1.5069275,0.6361084,3.0750732,1.0950012,4.6879883,1.3710938
	c20.091095,3.4319458,31.4569092-15.7180786,32.0048523-33.3422241c0.0660095-2.11689-0.01474-4.2500076-0.2817993-6.3519058
	l-0.0311584-0.2400513l0.2389526-0.0447693c7.1971741-1.3612061,13.0362549-7.8012695,15.3311462-14.5463257
	c1.4768982-4.3429565,3.5921021-11.9998779,7.9928589-14.3597412c-4.2927551-2.3331604-6.5417786-10.0901794-7.9928589-14.3560486
	c-2.2948914-6.7461548-8.1339722-13.1859436-15.3311462-14.54599l-0.2389526-0.0450439l0.0311584-0.2409363
	c0.2670593-2.1010742,0.3478088-4.2341309,0.2817993-6.3510132c-0.5479431-17.6241455-11.9137573-36.7741699-32.0048523-33.3411255
	c-1.612915,0.2749329-3.1810608,0.7349854-4.6879883,1.3699646l-0.2720947,0.1139526l-0.0768127-0.2848816
	c-0.3390198-1.2608337-0.7860413-2.5108948-1.3680115-3.6799011c-3.4730301-6.9710093-10.4462662-10.6540537-18.0300369-11.21103
	c-2.0951233-0.1530762-5.8169861-0.2421265-7.5892334-1.3320313c-2.3309021-1.4340515-5.4569397-3.8258967-6.572937-6.5369868
	c-1.1069336,2.493927-4.4898071,5.2600093-6.5627747,6.5369868c-1.2140808,0.7469177-3.2062683,0.9770813-4.6162415,1.1089172
	c-0.9889832,0.0921326-1.9819641,0.151123-2.9729614,0.223114c-7.5838318,0.5558777-14.5559387,4.2408752-18.0300598,11.21103
	c-0.581955,1.1690063-1.0289574,2.4199219-1.3679924,3.6799011l-0.0768127,0.2848816l-0.2721405-0.1139526
	c-1.5068817-0.6358032-3.0749969-1.0950317-4.6870575-1.3699646c-20.0919952-3.4330444-31.4577808,15.7169781-32.0059967,33.3411255
	c-0.0657806,2.1168823,0.0150146,4.249939,0.2820435,6.3510132l0.0311737,0.2409363l-0.2381134,0.0450439
	c-7.1968689,1.3600464-13.0370779,7.7998352-15.3320303,14.54599C9.685832,84.2230148,7.7438154,91.1069565,3.248637,93.8880234
	c4.5269318,2.3099365,6.5381317,10.0131226,8.0240326,14.3838196c2.2949524,6.7462158,8.1351614,13.1851196,15.3320303,14.5463257
	l0.2381134,0.0447693l-0.0311737,0.2400513c-0.2670288,2.1018982-0.3478241,4.2350159-0.2820435,6.3519058
	c0.5482178,17.6241455,11.9140034,36.7741699,32.0051117,33.3422241c1.6129456-0.2760925,3.1810608-0.7349854,4.6879425-1.3710938
	l0.2721405-0.1151123l0.0768127,0.2851563c0.339035,1.2608948,0.7860374,2.5118103,1.3679924,3.6808472
	c3.4730225,6.9711914,10.446228,10.6539917,18.0300598,11.2101135c2.0950623,0.1539612,5.8169861,0.2421112,7.5892029,1.3320465
	C93.1106186,179.3899994,96.0285873,181.2110138,97.1057358,184.1400146L97.1057358,184.1400146z M23.6586552,62.7349777
	c-0.098938-1.4819336-0.1210327-2.9690247-0.0748291-4.4529419c0.0958099-3.1030579,0.5020142-6.1999512,1.1959534-9.2250671
	c3.793869-16.5129395,16.0417957-30.0429974,34.2529755-26.9308147c0.8779144,0.1499329,1.7470093,0.3477783,2.6030884,0.5938416
	c0.201828-0.5028381,0.4237518-0.9980469,0.6658325-1.4839478c3.941021-7.9109201,11.8219109-12.203126,20.4530754-12.8349924
	c0.9720459-0.0711365,1.9448853-0.1289673,2.9148865-0.2199402c0.8299866-0.0779419,2.6572266-0.2602229,3.3440552-0.683166
	c1.5100098-0.9300537,5.0601196-3.7610168,5.5099792-5.4869995c0.3109436-1.1948549,1.3560791-2.0058289,2.591156-2.0109253
	c1.2359009-0.0050964,2.2889709,0.7951355,2.6109924,1.9891052c0.5618286,2.0888367,3.7357788,4.4149475,5.514801,5.5088196
	c1.0811157,0.6661677,4.8770142,0.8019099,6.2579956,0.9031062c8.6321106,0.6318665,16.5121536,4.9248962,20.4531631,12.8349924
	c0.2420349,0.4859009,0.4639893,0.9811096,0.6669617,1.4839478c0.8560791-0.2460632,1.724884-0.4430542,2.6039124-0.5938416
	c6.9020691-1.1791992,13.7520142-0.0101929,19.6250916,3.8848877c10.3130493,6.8399944,15.4499817,20.2960491,15.8230286,32.2709961
	c0.045929,1.4839172,0.0229187,2.9710083-0.0760193,4.4529419c7.1339722,2.3590088,12.7950745,8.869873,15.1770325,15.8709106
	c1.1159973,3.2802734,3.5157776,11.3961487,6.8569946,12.8381042c1.0059814,0.4339905,1.625946,1.375946,1.6247864,2.4709473
	c0,1.0970459-0.6218872,2.038147-1.6287842,2.4710083c-3.4590759,1.4869995-5.7089539,9.4730835-6.8529968,12.8349915
	c-2.3811035,7.0021362-8.0430603,13.512146-15.1770325,15.8719788c0.098938,1.4819946,0.1219482,2.9690323,0.0760193,4.4529495
	c-0.0969543,3.1022644-0.5020447,6.1991272-1.197113,9.2250977c-3.7929993,16.5121155-16.0398254,30.0429993-34.2510071,26.9310913
	c-0.8790283-0.1510315-1.7478333-0.348053-2.6039124-0.5941467c-0.2029724,0.5031738-0.4249268,0.9992371-0.6669617,1.4851074
	c-3.9410095,7.9089355-11.8222122,12.2020264-20.4531631,12.8329926c-0.9708252,0.0708618-1.9439697,0.1301117-2.9128723,0.2210999
	c-0.8319702,0.0779572-2.6580505,0.2599487-3.3451233,0.6828766c-1.9420166,1.1939392-5.0589905,2.7308807-5.4570007,5.2310486
	c-0.2058105,1.292038-1.2809448,2.2320099-2.5880127,2.2668762c-1.3048096,0.0340118-2.427887-0.852951-2.6999817-2.12883
	c-0.5179443-2.4290009-3.5217896-4.1629333-5.4819336-5.3690948c-1.0808716-0.6658478-4.8778687-0.8030548-6.2589417-0.9039764
	c-8.6311646-0.6309662-16.5120544-4.9228973-20.4530754-12.8329926c-0.2420807-0.4858704-0.4628906-0.9819336-0.6658325-1.4851074
	c-0.8560791,0.2460938-1.725174,0.4431152-2.6030884,0.5941467c-6.9020538,1.1801147-13.7519989,0.0091248-19.6250916-3.8859863
	c-10.3138599-6.8391418-15.451952-20.2949524-15.8238392-32.2702026c-0.0462036-1.4839172-0.0241089-2.9709549,0.0748291-4.4529495
	c-7.1339417-2.3598328-12.7950277-8.8698425-15.1769705-15.8719788c-1.1468964-3.369873-3.3020782-11.3669739-6.8190308-12.8200073
	c-0.9810791-0.4059143-1.6038208-1.2888794-1.6588135-2.3490601c-0.0549927-1.0508118,0.4838562-2.0057983,1.4088135-2.5049438
	c3.7890625-2.0449219,5.7579956-9.0870667,7.0690308-12.94104C10.8636274,71.6048508,16.5258427,65.0951157,23.6586552,62.7349777
	L23.6586552,62.7349777z"/>
<path class="st0" d="M127.4574203,63.5833931c-8.0700073-8.0690918-18.9158936-12.565979-30.3309937-12.565979
	c-11.4140015,0-22.2599487,4.4968872-30.329834,12.565979c-8.0700035,8.0700111-12.5651817,18.9158974-12.5651817,30.330143
	c0,11.4140015,4.4951782,22.2598877,12.5651817,30.3309937c8.0698853,8.06884,18.9158325,12.5648727,30.329834,12.5648727
	c11.4151001,0,22.2609863-4.4960327,30.3309937-12.5648727c8.0690994-8.071106,12.5659866-18.9169922,12.5659866-30.3309937
	C140.023407,82.4992905,135.5265198,71.6534042,127.4574203,63.5833931z M125.7133408,122.5003281
	c-7.605957,7.6048508-17.828125,11.8423386-28.586853,11.8423386c-10.7576294,0-20.9798584-4.2374878-28.5857544-11.8423386
	c-7.6058922-7.6069336-11.8425865-17.8291626-11.8425865-28.586792c0-10.7578735,4.2366943-20.9801025,11.8425865-28.5859985
	c7.605896-7.6051674,17.828125-11.8433876,28.5857544-11.8433876c10.758728,0,20.980896,4.2382202,28.586853,11.8433876
	c7.6050491,7.605896,11.8433304,17.828125,11.8433304,28.5859985
	C137.5566711,104.6711655,133.3183899,114.8933945,125.7133408,122.5003281z"/>
</svg>
