<?xml version="1.0" encoding="utf-8"?>
<!-- Generator: Adobe Illustrator 22.1.0, SVG Export Plug-In . SVG Version: 6.00 Build 0)  -->
<svg version="1.1" id="_x38_" xmlns="http://www.w3.org/2000/svg" xmlns:xlink="http://www.w3.org/1999/xlink" x="0px" y="0px"
	 viewBox="0 0 239.6543274 168.9828491" style="enable-background:new 0 0 239.6543274 168.9828491;" xml:space="preserve">
<style type="text/css">
	.st0{fill:#FEFEFE;}
	.st1{fill-rule:evenodd;clip-rule:evenodd;fill:#FEFEFE;}
</style>
<path class="st0" d="M108.9609375,152.1293945c-38.5449219,0-69.7432251-30.296936-69.7432251-67.6141968
	c0-37.3169556,31.1983032-67.6114502,69.7432251-67.6114502c20.6479492,0,39.1889648,8.7238159,51.949707,22.5654297
	C145.480957,15.7504272,118.2290039,0,87.1796875,0C39.0117188,0,0,37.8188477,0,84.5151978
	c0,46.6473999,39.0117188,84.4676514,87.1796875,84.4676514c30.9919434,0,58.2011719-15.6923828,73.6459961-39.3251343
	C148.067627,143.4456177,129.5622559,152.1293945,108.9609375,152.1293945z"/>
<polygon class="st1" points="160.801712,84.5151825 202.2461243,97.5561829 208.9697113,77.4433823 "/>
<polygon class="st1" points="160.801712,84.5151825 202.2461243,71.4750824 208.9697113,91.5375824 "/>
<polygon class="st1" points="190.9150238,44.2900848 190.9150238,86.573288 212.7480164,86.573288 "/>
<polygon class="st1" points="190.9150238,44.2900848 216.5244141,78.4970856 198.9355164,90.9364853 "/>
<polygon class="st1" points="190.9150238,124.6918869 216.5244141,90.4858856 198.9355164,78.0956879 "/>
<polygon class="st1" points="190.9150238,124.6918869 190.9150238,82.4594879 212.7480164,82.4594879 "/>
<polygon class="st1" points="239.6543274,59.6874847 198.2109222,72.7279816 204.9355164,92.7924881 "/>
<polygon class="st1" points="239.6543274,59.6874847 214.0410156,93.8471832 196.3984222,81.4565887 "/>
<polygon class="st1" points="239.6543274,109.3451843 214.0410156,75.135788 196.3984222,87.5751877 "/>
<polygon class="st1" points="239.6543274,109.3451843 198.2109222,96.303688 204.9355164,76.1899872 "/>
</svg>
