<?xml version="1.0" encoding="utf-8"?>
<!-- Generator: Adobe Illustrator 22.1.0, SVG Export Plug-In . SVG Version: 6.00 Build 0)  -->
<svg version="1.1" id="Elements" xmlns="http://www.w3.org/2000/svg" xmlns:xlink="http://www.w3.org/1999/xlink" x="0px" y="0px"
	 viewBox="0 0 50.4497108 37.6870689" style="enable-background:new 0 0 50.4497108 37.6870689;" xml:space="preserve">
<style type="text/css">
	.st0{fill:#47b144;}
</style>
<path id="XMLID_2322_" class="st0" d="M0.0730578,17.6124859c0.2308-3.2598991,3.1280999-3.1541996,5.1216998-1.3903999
	c2.1771002,1.9262009,3.0306005,5.8829002,4.4002113,8.4019012c1.9245892,3.5401993,1.8080883,3.4722004,4.5110884,0.4535999
	c2.4777002-2.7670002,5.2946005-5.3239002,8.1162004-7.7299995c5.2560997-4.4819012,11.1997128-8.3156013,16.8663998-12.2560005
	c2.335598-1.6241999,5.8135986-4.6851001,8.7939987-5.0426998c3.1341019-0.376,3.1376991,1.4784,1.4089012,3.4510999
	c-2.1068993,2.4040999-5.3385887,4.3607001-7.7775879,6.4236002c-2.9159126,2.4663-5.7975121,4.9609003-8.5987129,7.5591002
	c-5.257,4.8757992-10.7702885,9.6889-15.1341991,15.4217014c-3.5710888,4.6912994-6.4940882,7.2084999-10.7901993,1.4627991
	C4.0175576,30.390686-0.5208422,22.7907867,0.0730578,17.6124859C0.1170578,16.9913864-0.1114422,19.2210865,0.0730578,17.6124859z"
	/>
</svg>
