<?xml version="1.0" encoding="utf-8"?>
<!-- Generator: Adobe Illustrator 22.1.0, SVG Export Plug-In . SVG Version: 6.00 Build 0)  -->
<svg version="1.1" id="Слой_1" xmlns="http://www.w3.org/2000/svg" xmlns:xlink="http://www.w3.org/1999/xlink" x="0px" y="0px"
	 viewBox="0 0 645.3579712 800" style="enable-background:new 0 0 645.3579712 800;" xml:space="preserve">
<style type="text/css">
	.st0{clip-path:url(#SVGID_2_);}
</style>
<g>
	<defs>
		<rect id="SVGID_1_" width="645.3579712" height="800"/>
	</defs>
	<clipPath id="SVGID_2_">
		<use xlink:href="#SVGID_1_"  style="overflow:visible;"/>
	</clipPath>
	<path class="st0" d="M60.6272278-0.0001221h407.9999695c7.2879944,2.4759521,12.8640137,7.2949829,17.9410095,12.8869629
		c2.7929993,3.0780029,5.8729858,5.8950195,8.8150024,8.8380127
		c45.5629578,45.559021,90.9649963,91.2789917,136.8179626,136.5419922
		c9.0440063,8.9280396,13.3590088,18.1470337,13.1500244,31.1799927
		c-0.697998,43.4650269-0.1719971,86.9500122-0.1779785,130.427002
		c-0.0110474,75.1279907-0.072998,150.2559814-0.1050415,225.3839722
		c-0.0269775,62.302002,0.0700073,124.6030273-0.1149902,186.9030151
		c-0.0830078,28.2769775-18.0540161,53.5150146-44.625,63.2990112c-5.098999,1.8779907-10.4609985,3.0449829-15.7009888,4.539978
		h-523c-0.7610168-0.2769775-1.5030212-0.7069702-2.2870178-0.8099976
		c-31.3970032-4.1669922-56.2680054-29.9179688-58.6629944-61.5559692
		c-0.9289856-12.2660522-0.6289978-24.6360474-0.6369934-36.9580078
		c-0.0469971-80.4840088-0.0410156-160.9690552-0.0190125-241.4530029
		c0.0200195-75.1530151,0.1080017-150.3049927,0.1170044-225.4569702
		c0.0069885-54.9890137-0.1180115-109.9790039-0.07901-164.9680176C0.0792236,39.8148804,18.1242065,14.1668701,45.347229,4.3318481
		C50.314209,2.5368652,55.5282288,1.4258423,60.6272278-0.0001221 M439.9812012,47.1298828
		c-2.54599,0-4.1799927,0.0009766-5.8139954,0c-62.6589966-0.0280151-125.3179932-0.0750122-187.9769897-0.0780029
		c-57.4930115-0.0020142-114.9909973,0.4229736-172.4769897-0.1900024
		c-15.1340027-0.1610107-26.7539978,9.032959-26.6080017,26.2160034
		c0.5309753,62.6499634,0.3089905,125.3059692,0.3069763,187.9589844
		c-0.0019836,65.1539612-0.1059875,130.3079834-0.1129761,195.4619751
		c-0.006012,56.4879761,0.0740051,112.9769897,0.0899963,169.4660034
		c0.0099792,34.8259888-0.1080017,69.6519775-0.0030212,104.4790039
		c0.0390015,12.9869995,9.0230103,21.9320068,21.9410095,22.3759766c2.9970093,0.1030273,5.9989929,0.1110229,8.9980164,0.1099854
		c85.9919739-0.0279541,171.9819946-0.0759888,257.9729919-0.0949707
		c78.6579895-0.0150146,157.3179932-0.2470093,235.973999,0.2030029
		c16.1819458,0.0929565,25.8049927-11.2349854,25.7769775-26.0570068
		c-0.3280029-167.322998-0.1920166-334.6440125-0.1820068-501.96698v-19.9099731c-2.5839844,0-4.5380249,0.0009766-6.4910278,0
		c-31.1629639-0.0020142-62.3269653,0.0050049-93.4899597-0.0120239
		c-11.6640015-0.0059814-23.3410034,0.2579956-34.9890137-0.1890259
		c-13.0739746-0.5009766-21.9439697-9.5769653-22.8389893-22.6019897c-0.2059937-2.9890137-0.2139893-5.9959717-0.2109985-8.9949951
		c0.0329895-34.4909668,0.0880127-68.9829712,0.1319885-103.4749756
		C439.9891968,62.5158691,439.9812012,55.1998291,439.9812012,47.1298828 M487.4702148,157.5488281h74.4439697
		c-24.6350098-24.7489624-49.7059937-49.9359741-74.4439697-74.7890015V157.5488281z"/>
	<path class="st0" d="M322.2298889,647.4697266c-56.1440125,0-112.2880096,0.0549927-168.4320068-0.03302
		c-17.0529938-0.0270386-27.9259949-13.4760132-24.1569977-29.4459839
		c2.5350037-10.7449951,12.0800018-17.6719971,24.7290039-17.6970215
		c27.4909973-0.052002,54.9819946,0.0050049,82.4720001,0.0040283
		c83.9719849-0.0030518,167.9449768-0.0350342,251.9159851,0.0509644c4.105011,0.0040283,8.4299927,0.3690186,12.2709961,1.6830444
		c11.1110229,3.7999268,16.8959961,14.3959961,14.9219971,26.2049561
		c-1.8569946,11.1019897-11.2689819,19.2260132-22.7869873,19.2709961
		c-29.322998,0.1140137-58.644989,0.0889893-87.9670105,0.1030273c-27.6549988,0.0109863-55.3119812,0.0019531-82.96698,0.0019531
		V647.4697266z"/>
	<path class="st0" d="M322.8403015,317.9937134c56.4859924,0,112.9729919,0.0100098,169.4589844-0.0089722
		c10.4779968-0.0030212,17.9300232,5.0189819,22.1589661,14.2509766c4.2390137,9.2530212,2.1990356,17.9750061-4.5019531,25.4560242
		c-4.1679993,4.6519775-9.6159973,7.2139893-15.8909912,7.321991c-12.4930115,0.2139893-24.9890137,0.242981-37.4830017,0.2389832
		c-65.9770203-0.0209961-131.9560242-0.0959778-197.934021-0.1089783
		c-34.6549835-0.007019-69.3099823,0.0709839-103.9659882,0.1219788
		c-10.9720001,0.0169983-19.5419922-4.1549988-23.9689941-14.5859985
		c-6.4309998-15.1549988,3.7259979-31.4509888,20.1730042-32.5629883c4.9779968-0.3370056,9.993988-0.1669922,14.9919891-0.1679993
		c52.3200073-0.0090027,104.6409912-0.0050049,156.9620056-0.0050049V317.9937134z"/>
	<path class="st0" d="M322.3363953,506.25H185.8773956c-10.3289948,0-20.6580048,0.0040283-30.9869995,0
		c-15.4340057-0.0059814-26.1150055-9.5429993-26.147995-23.34198
		c-0.0340118-14.0970154,10.6989899-23.7990112,26.4509888-23.7950134
		c55.4869995,0.0160217,110.973999,0.0899963,166.4609985,0.0899963c55.8200073,0,111.6399841-0.0249939,167.4599915-0.1349792
		c9.3410034-0.0169983,17.5209961,2.1600037,23.0249634,10.3529968c5.1560059,7.6749878,6.1119995,15.8800049,1.6780396,24.0910034
		c-4.5359802,8.3999939-11.6820068,12.8269958-21.5299988,12.8150024
		c-56.6499939-0.0650024-113.3009949-0.0320129-169.9509888-0.0320129V506.25z"/>
</g>
</svg>
