<?xml version="1.0" encoding="utf-8"?>
<!-- Generator: Adobe Illustrator 22.1.0, SVG Export Plug-In . SVG Version: 6.00 Build 0)  -->
<svg version="1.1" id="Layer_1" xmlns="http://www.w3.org/2000/svg" xmlns:xlink="http://www.w3.org/1999/xlink" x="0px" y="0px"
	 viewBox="0 0 260 198" style="enable-background:new 0 0 260 198;" xml:space="preserve">
<path d="M260,45c0-8.2421265-6.6489258-14.9258423-14.875-14.9937134V30H127.5449829C121.3530273,12.5419922,104.6799927,0,85.125,0
	S48.8980103,12.5419922,42.7050171,30H15.125v0.0062866C15.0828857,30.0059204,15.0421753,30,15,30C6.7156982,30,0,36.7156982,0,45
	s6.7156982,15,15,15c0.0421753,0,0.0828857-0.0059204,0.125-0.0062866V60h27.5800171C48.8970337,77.4580078,65.5700073,90,85.125,90
	s36.2280273-12.5419922,42.4199829-30H245.125v-0.0062866C253.3510742,59.9258423,260,53.2421265,260,45z M85.125,60
	c-8.2709961,0-15-6.7290039-15-15s6.7290039-15,15-15s15,6.7290039,15,15S93.3959961,60,85.125,60z"/>
<path d="M14.875,167.9937134V168h117.5800171c6.1919556,17.4580078,22.8649902,30,42.4199829,30
	s36.2279663-12.5419922,42.4199829-30H244.875v-0.0062866C244.9171143,167.9940796,244.9578247,168,245,168
	c8.2843018,0,15-6.7156982,15-15s-6.7156982-15-15-15c-0.0421753,0-0.0828857,0.0059204-0.125,0.0062866V138h-27.5800171
	c-6.1929932-17.4580078-22.8649902-30-42.4199829-30s-36.2280273,12.5419922-42.4199829,30H14.875v0.0062866
	C6.6489258,138.0741577,0,144.7578735,0,153C0,161.2421265,6.6489258,167.9258423,14.875,167.9937134z M159.875,153
	c0-8.2709961,6.7290039-15,15-15s15,6.7290039,15,15s-6.7290039,15-15,15S159.875,161.2709961,159.875,153z"/>
</svg>
