<?xml version="1.0" encoding="utf-8"?>
<!-- Generator: Adobe Illustrator 22.1.0, SVG Export Plug-In . SVG Version: 6.00 Build 0)  -->
<svg version="1.1" id="Layer_1" xmlns="http://www.w3.org/2000/svg" xmlns:xlink="http://www.w3.org/1999/xlink" x="0px" y="0px"
	 viewBox="0 0 735 483.1000061" style="enable-background:new 0 0 735 483.1000061;" xml:space="preserve">
<style type="text/css">
	.st0{fill:#FFFFFF;}
</style>
<path class="st0" d="M705.2999878,135.1000061C704.5,136.8000031,703.8999634,138,704.2000122,139.2000122
	c0.2000122,1.1000061,2.2000122,3.3000031,2.2000122,3.3000031s1.4000244,1.3999939,2.7000122,2.1999969
	c3.5999756,2.5,5.7000122,3.6000061,5.7000122,3.6000061l1.7000122,2.3999939c0,0-1.7999878,2.1000061-2.7999878,3.6999969
	c-2.2999878,3.6000061-4.2000122,3.8999939-4.5999756,5.8000031c-0.2999878,2-1.5,4.1999969-1.2000122,5.6999969
	c0.2999878,1.3999939,0.4000244,4.1000061,0.4000244,4.1000061s-1.2999878,1-2.5,2.8999939
	c-1.2000122,1.8000031-2.0999756-2.3000031-1.2000122,1.8000031c0.7999878,4.1000061-0.0999756,7,0,8.1000061
	c0.2999878,1.1000061,0.2999878,1.1000061,0.2999878,1.1000061l-1.2999878,1.8000031c0,0-2.0999756,1.5-3.7999878,2.3000031
	c-1.7999878,0.6999969-7.5-2.5-8.5-1.8000031c-1,0.5-2.5999756,0.5-3,2.1000061c-0.5,1.6999969-0.7000122,2.5,1.4000244,3.6999969
	c2.0999756,1.1000061,3.2000122,0.6000061,4.4000244,0.8000031c1.2999878,0.6999969,4.5999756-0.3000031,4.5999756-0.3000031
	l2.0999756-1c3.2999878,1,3.9000244,1.6999969,5,1.5s1.9000244-1.5,3-2.1999969l2,2c0,0,0.0999756,2.6999969,1.2000122,3.6000061
	c0.9000244,1,1.7000122,2.3999939,1.7000122,2.3999939s0.5999756,1.8000031,2.0999756,3
	c3.7000122,3.1999969,6.7999878,1.1999969,5.5,4.3000031c-1.4000244,3-3.0999756,4.1999969-4,4.8000031
	c-1.0999756,0.5-5.2999878,2.5-5.2999878,2.5s-1.5999756,1.8999939-2.0999756,3.1999969
	c-0.5999756,1.1999969-2.2000122,2.6000061-2.2000122,2.6000061s-2.4000244,1.6999969-6.9000244,2.6000061
	c-4.5,0.8999939-7.5999756-1.1999969-9.5,0.6000061c-1.9000244,2-3.5999756,3.5-5.7000122,6.3999939
	c-2.0999756,2.6000061-1.5,4.6999969-5.5,3.6000061c-4.0999756-1.1000061-5.9000244-4.6000061-8.0999756-3.6999969
	c-2.2000122,0.6999969,0.5,4.5-2.2000122,0.6999969c-2.7000122-3.6999969-0.7999878-2.8000031-2.7000122-3.6999969
	c-1.7000122-0.8999939,0.5999756-1.6000061-1.7000122-0.8999939c-2.2000122,0.8999939,0.2000122,2.6999969-2.2000122,0.8999939
	c-2.2999878-1.8999939-1.4000244,0.3999939-2.2999878-1.8999939c-0.7999878-2.1000061-1.2999878-4.6999969-1.2999878-4.6999969
	s0.2999878-4.3000031-2-2.3999939c-2.2999878,2.1000061-3.0999756,4.3999939-1.9000244,5.8999939
	c1,1.3000031,0.7999878,1.6999969,1.4000244,3.1999969c1.0999756,3.1999969,1,4.8000031,1,4.8000031
	c-5.5999756,1.1000061-5.5,1.3999939-7.4000244,1.8000031c-1.9000244,0.3999939-2.5999756,0.1999969-3.9000244,1.6000061
	c-1.2999878,1.5-1.5-0.1000061-3,2.6000061c-1.4000244,2.6000061-0.5999756-1.1000061-1.4000244,2.6000061
	c-0.7999878,3.6000061,1.4000244,1.1999969-0.7999878,3.6000061c-2.2999878,2.3999939-0.5,1.3000031-2.2999878,2.3999939
	c-1.7999878,1.1999969-1.5,2.6000061-4,1.5c-2.4000244-0.8999939,1.0999756-0.5-2.4000244-0.8999939
	c-3.5999756-0.5-0.5999756-3.1000061-3.5999756-0.5s-0.5999756,0.8999939-3,2.6000061
	c-2.4000244,1.6999969-2.5999756,2-4.0999756,2.6000061c-1.4000244,0.8000031,1.2000122,0.1999969-1.4000244,0.8000031
	c-2.7000122,0.5,1.2000122,2.5-2.7000122,0.5s-3.7000122-1.1999969-5.2999878-3.3000031
	c-1.4000244-2-1.4000244-1.6000061-3-3.3000031c-1.4000244-1.6000061-4.9000244-7.5-6.7999878-7.1000061
	c-1.9000244,0.3000031-14.5999756-7.5-16.2000122-7.3000031c-1.5,0.3000031-12.7999878-2.3999939-14.4000244-2.5
	c-1.5999756-0.1000061-19.7000122,4.1999969-20.7999878,4.5c-1.0999756,0.1999969-6.2000122,3.5-7.4000244,5.3000031
	c-1.2999878,1.8000031-6.2999878,7.5-7.5999756,8.8000031c-1.2000122,1.3999939-4.4000244,5.1999969-5.5999756,7
	c-1.0999756,1.6999969-2.7999878,3.5999908-2.9000244,4.8000031c-0.0999756,1.2000122,0.5999756,4.5,1.7000122,4.7000122
	c1.2000122,0.1000061,4.7000122,2.7000122,6.7999878,1.3999939c2.0999756-1.2000122,7.2999878-0.6000061,3.4000244,1.6000061
	c-3.7999878,2.3999939-7.0999756,5.2999878-7.0999756,5.2999878l0.2000122,5c0,0,1.5,2.1000061,3,3.7000122
	c1.5,1.7000122-2.0999756,2.7999878-2.0999756,2.7999878l-4.7999878-2.6000061l-6.7999878,0.6000061l-5,0.1000061
	c0,0-2.5-2.5-3.4000244-1.6000061c-1,0.8999939-1.7000122,1.1000061-2.5,2.7000122
	c-0.7999878,1.7000122-2.2000122,0.3999939-2.6000061,3c-0.2999878,2.2000122-0.2999878,2.6000061,0.7999878,3.7000122
	c1,1,2.6000061-0.2999878,2.8999939,0.8999939c0.7000122,3.2999878,1.9000244,1.8999939,0.7000122,3.2999878
	c-1.3999939,1.2999878-1.3999939,1.2999878-1.3999939,1.2999878l-5.1000061,1.5c0,0-8.6000061,9.1000061-8.8999939,15.6000061
	c-0.2999878,6.7000122,0,9.7999878-1.8999939,12.1000061c-1.7999878,2.2999878-4.6000061,6.2000122-4.6000061,6.2000122
	s-2.1000061,2.6000061-4.3999939,0.7999878c-2.2999878-1.2999878-2.3999939-4.1000061-4-4.1000061
	c-1.6000061-0.2000122-2.8999939-0.7000122-4.1000061-0.7999878c-1.2000122-0.2000122-2.2000122-1.5-2.7000122-2.6000061
	c-0.6000061-1.1000061-2.3999939-2.2999878-2.3999939-2.2999878l-4.7000122-0.2000122c0,0-1.6000061,0.2999878-2.7000122,2.1000061
	c-1.2000122,1.7000122-1.2000122,1.7000122-2.5,2.7999878c-1.3999939,1.1000061-2.5,1-3.6000061,2
	c-0.8999939,0.7999878-2.1000061,1.1000061-2.3999939,3.1000061c-0.5,2-0.1000061,1.8999939-2.2000122,2.2999878
	c-2.2999878,0.5-5,0.7000122-5,0.7000122l-3.2000122-0.5l-2.2999878,1.8999939
	c-3.3999939-1.6000061-1.1000061-1.7000122-3.3999939-1.6000061c-2.2999878,0,0-2-2.2999878,0
	c-2.2999878,2.1000061-4.2000122,2.3999939-5.2000122,2.8999939c-1,0.7000122-3.6000061,0-4.5,0.6000061
	c-1.1000061,0.6000061-2.5,1.2999878-3.5,1.7999878c-1,0.7000122-3.5,3.8999939-3.5,3.8999939s-3,2.2000122-4.1000061,3.1000061
	c-0.8999939,1.1000061-13.8999939,10.2000122-13.8999939,10.2000122L397,363l-5.7999878,3.8999939L385.4000244,372.5
	c0,0-1.6000061,3.6000061-2.7999878,5.7000122C381.5000305,380.3000183,378.7000427,384,378.7000427,384
	s-5.2000122,8.3999939-5.3999939,9.7000122c-0.1000061,1.1000061-0.7999878,5.6000061-0.7999878,5.6000061
	s-0.8999939,1.2999878-0.6000061,3.1000061c0.3999939,1.8999939-1,2.8999939-1.1000061,4.3999939
	c0,1.6000061-0.7000122,4.1000061-0.7000122,4.1000061c-0.3999939,3.7999878,0.2000122,5.5-1,6.7999878
	c-2.2999878,1.8999939-3.5,1.7000122-5.2000122,2.8999939c-1.7000122,1-1-1.3999939-1.7000122,1
	C361.5,424.1000061,360,426,359,427.3000183c-0.8999939,1.2999878-1.7999878,2.7000122-2.7999878,3.6000061
	c-0.8999939,1,0.5,2.7000122-2.1000061,3.2000122c-2.5,0.5-7.3999939,1.5-9.7000122,1.6000061
	c-2.2999878,0-5.8999939-0.3999939-5.8999939-0.3999939c-0.6000061,5-1.7000122,3.2999878-1.5,7.7000122
	c-0.1000061,4.1000061-0.5,5.7999878-0.2000122,6.8999939c0.2000122,1,0.7000122,1.5-1,3.2000122
	c-1.5,1.8999939-1.3999939,3.7999878-2.5,4.5c-4.2999878,2-4.1000061,1.5-5.7999878,2.2999878
	c-1.7999878,0.7000122-3.7999878,0.7000122-5,2.1000061s-2.3999939,4-2.3999939,4l-2.7999878,3.2000122
	c0,0-12.5,3.2000122-14.5,3.2000122c-1.7999878,0-3.2999878,0.6000061-6.8999939,0.2999878
	c-3.7000122-0.6000061-5-1.3999939-6.8999939-1.3999939c-2,0-2.8999939-1.2999878-4.7999878,1.2999878
	c-1.7999878,2.7000122-2,3.1000061-5.1000061,5.7000122c-3,2.5,1.1000061,1.3999939-3,2.5
	c-4,1.2999878-5.6000061,3-8.1000061,2.1000061c-2.6000061-1.2000122-4.2999878-2.3999939-5.2000122-3.2999878
	c-2.8999939-2.5-3.2999878-2.8999939-3.8999939-3.8999939s-1.1000061-1.7000122-3.1000061-2
	c-2-0.3999939-3.1999969,1.1000061-4.1000061-1.2000122c-0.8000031-2.2000122-0.3999939,1.2999878-0.8000031-2.2000122
	c-0.3000031-3.3999939-0.6999969-5.2999878-0.6999969-5.2999878s-0.3999939-0.7000122-1.8999939-1.7999878
	c-1.3999939-1.2999878-2.8000031-2.2000122-4-2.5c-1.1000061-0.2000122-2.5-2.8999939-4.3000031-2.2000122
	c-1.8000031,0.7999878-2,0-3.5,0.3999939c-1.5,0.2999878-2.3000031,0-3.3000031,0.6000061
	c-1.1000061,0.5-3.8999939,2.6000061-5,2.2000122c-3-1.3999939-4.6000061-3.7999878-4.6000061-3.7999878
	s-1.3999939-1.7999878-2.8000031-0.5c-4.1000061,3-3.6000061,1.3999939-5.3999939-2.1000061
	c-1.8999939-3.5-4.1999969-1.7999878-5.8999939-2.7000122c-1.8000031-0.8999939-10.1999969-4.7000122-10.1999969-4.7000122
	l-4.3000031-4.1000061c0,0,1.8000031-4.6000061,4.3999939-3.2000122c2.6999969,1.5,3.3999939,1.2999878,4.1000061-0.7999878
	c0.8000031-1.8999939-0.8000031-2.1000061,2.8000031-3.8999939c3.5-1.8999939,4.1000061-2.7999878,5.5-3.1000061
	c1.5-0.2999878,1.5-0.7000122,3.8000031-0.3999939c2.3999939,0.2999878,4.5,1.5,4.5,1.5s1.3999939,0.8999939,3.1999969,0.2999878
	c1.8000031-0.8999939,3.3000031-1.2000122,3.3000031-1.2000122s2.6000061,3,3.5,2.1000061
	c1-1,2.1999969-2.3999939,2.1999969-2.3999939s0.3000031-2.7999878-1.1999969-2.7999878
	c-1.6000061-0.2000122-3.5-2-4.6999969-1.7999878c-1,0.2000122-5.5-0.5-5.5-0.5l-2.6999969,0.2000122
	c-0.1000061-2.7000122,1.5-6.1000061,1.5-6.1000061s0.1000061-1.2999878,1.1000061-2.2000122
	c0.8999939-0.8999939,0.6999969-2.3999939,0.3000031-4.2999878c-0.3999939-1.7999878-1.1999969-4-1.8999939-5.7000122
	c-0.8000031-1.7999878-2.1000061-4.6000061-1.8999939-5.8999939c0.1000061-1.2000122-0.1999969-4.6000061-0.1999969-4.6000061
	s-1.3999939-3.5-1.3999939-5.5s-0.5-4.5-0.8000031-6.1000061c-0.3000031-1.3999939-0.5-2.6000061-0.8000031-4
	c-0.3999939-1.5-0.8000031-4.1000061,0-5.7999878c2.1000061-4.7999878,1.1000061-3.7000122,2.1000061-4.7999878
	c1-1,2.1999969-0.7999878,3.8999939-1.6000061c1.8000031-0.7000122,2.3000031-2.3999939,2.3000031-2.3999939l0.8000031-3.6000061
	c0,0-1.3999939-9-1.8999939-11.6000061c-0.6000061-2.7000122-0.6999969-5.2999878-1.5-7.8999939
	c-0.8999939-2.5-3.1999969-6-3.3999939-7.3999939c-0.3000031-1.6000061-1.6999969-0.8999939-0.1999969-5.1000061
	s1.5-6.3999939,1.5-6.3999939s-1-2.8999939-2.6999969-3.7999878c-1.6999969-0.7999878-3.3999939-1.5-2.6000061-3.2999878
	c0.8999939-1.7000122,1.8000031-0.7000122,5.1999969-1.2999878c3.3999939-0.7000122,8.6999969-3,5.3000031-4.2000122
	c-3.3999939-1.3999939-4.6999969-2.6000061-6.5-2.1000061c-1.8999939,0.3999939-3.8000031,0.7000122-5.1999969,1
	c-1.5,0.3999939-3.1000061-0.2000122-3.3000031-1.2999878c-0.1999969-1-1.3000031-2.7999878-1.3000031-2.7999878
	l-2.3999939-2.2000122c0,0-2.3999939-2-0.6999969-3.3999939c1.6000061-1.3999939,5.6000061-2.7999878,5.6000061-2.7999878
	l5.1000061,0.2999878c0,0-0.1999969-5-2-4.7000122c-1.8999939,0.3999939-5.6999969,0.7999878-5.6999969,0.7999878
	s-1.5-0.1000061-2.6000061,0.5c-1,0.5-4.6999969,3.6000061-4.6999969,3.6000061s-1.1999969-0.1000061-2.3999939,0.1000061
	c-1.1000061,0.2999878-2.8999939-1-3.1999969-2.3999939c-0.3000031-1.5-0.3000031-3.3999939-0.3000031-3.3999939
	l3.3999939-2.2000122c0,0,1.5-2.6000061,1.6000061-4.1000061c0-1.6000061-0.3000031-3.2000122-0.3000031-3.2000122l2.3999939-2
	l-0.5-2.5c0,0-3.1999969-0.2000122-3.1000061-2.1000061c0-2-1.3999939,1,0-2c1.3000031-3,2.1999969-4.7999878,2.1999969-4.7999878
	s-0.1000061-1.8999939-1.1000061-3.2000122c-1-1.3999939-1.8999939-1.8999939-4.3999939-0.7000122
	c-2.3999939,1.2999878-4.6999969,0.1000061-5.8000031,1.8999939c-1.1999969,1.7999878-3.8000031,2.2999878-4.8999939,4.5
	c-1.1000061,2.1000061-2.1000061,3.1000061-3.8999939,3.7000122c-1.8000031,0.7000122-5,1.7999878-5,1.7999878
	s-2.3000031,0.7999878-2.8999939-0.2000122c0,0-2.6000061-1.3999939-3.6999969-1.2000122
	c-1.1000061,0.2999878-1.5,0.3999939-2.5,1.2999878c-1,1-2.6999969,3.8999939-2.6999969,3.8999939l-0.5,3.2000122
	l0.1999969,2.7000122c-1.8999939,3.8999939-1.5,4.2000122-3.1999969,5c-1.8000031,0.7000122-2.5,1.2999878-3.6000061,1.8999939
	l-2.5,6.7000122c0,0-1.8999939,2.2999878-4.5,1c-2.6000061-1.5-2.3000031-3.6000061-3.8999939-4.3999939
	c-1.6999969-0.7999878-6.8000031-4.7999878-6.8000031-4.7999878s-3.5-0.1000061-4.6000061,0.1000061
	c-1.1000061,0.2999878-2.3000031-1.8999939-4-2.2999878c-1.5999985-0.5-7.6999969-3.8999939-7.6999969-3.8999939l-5-3.7000122
	c0,0-1.4000015-5.1000061-2.8000031-6c-1.1999969-0.8999939,0-3.8999939-1.8000031-5.7999878
	c-1.9000015-2-1.9000015-5.5-4.1999969-3.3999939c-2.3000031,2-0.0999985-0.3999939-2.3000031,2
	c-2.1999969,2.3999939,0.8000031,4-2.1999969,2.3999939c-3.0999985-1.7000122-5.3000031-1.3999939-4.4000015-4.6000061
	c0.9000015-3.2999878,0.1999969-4.7000122,1.1999969-6l5.3000031-4.2999878c0,0-2.0999985-2.8999939,2.3000031-6.5
	c4.3000031-3.6000061,6.9000015-8,8.9000015-10c1.9000015-1.8999939,9.5-12.3000031,9.5-12.3000031
	s2.1999969-3.1000061-1.5999985-2.3000031c-3.6999969,0.6999969-5.4000015,4.5-6.5,6.3000031
	c-1.1999969,1.8000031-4.5,6.3000031-5.8000031,7.6999969s-3.9000015,3.8000031-5.5999985,5.3000031
	c-1.5999985,1.5-4.5999985,2.5-7.1999969,4.8999939c-2.5999985,2.5-2.5999985,2.5-5.3000031,4.1999969
	c-2.8000031,1.6000061-1,1-4.8000031,1.7000122c-3.6999969,0.7000122-6,1.2000122-10.5999985,1
	c-4.6999969-0.2000122-5.3000031-0.6000061-9.5999985,0.2999878c-4.5,0.8999939-13,1.3999939-14.7000008,2.1000061
	c-1.7999992,0.7000122-5.7999992,1.8999939-8.1000023,4c-2.4000015,1.8999939-5.2999992,3-6.2999992,5.3999939
	c-1,2.5-1.5999985,3.7999878-3.2999992,5c-1.7000008,1-2.5,3.1000061-5.8999996,1.3999939
	c-3.3999996-1.6000061-2.6000004-1.7999878-6.6000004-1.7000122c-3.8999996-0.1000061-6.6000004-2.2999878-9.1000004-1
	c-2.3999996,1.2999878-0.8999996,1.2999878-5.3999996,1.8999939c-4.5,0.3999939-3.0999999-4.1000061-2.4000001-6.2000122
	c0.6999998-2,3.4000001-5.1000061,1.7999997-5.2999878c-6-0.7999878-9.3000002,2.2000122-7.9000001-2.3999939
	s6.3000002-15.5,7.5000005-17.3000031c1.1000004-1.8000031,3.5-5.5,6.5-7.8999939c3-2.5,4-3.8999939,6.2999992-5.6000061
	c2.3999996-1.6000061,2.2000008-2.6999969,5.8999996-5c3.7999992-2.3000031,1.7999992-0.8000031,5.9999981-3.3999939
	c4.0999985-2.8000031,3.5999985-1.1000061,6-4.6999969c0,0,2-1.5,4.9000015-4.1000061
	c3.0999985-2.5,2.7000008,2.1000061,2.7000008,2.1000061s3.0999985,5.6999969,6,1.3000031c3-4.5,1.0999985-6.5,4.7000008-7.8999939
	c3.5-1.5,7.4000015-1.8999939,7.8000031-3.5c0.4000015-1.6999969-2.2999992-3.8000031-6.0999985-3.5
	c-3.7999992,0.3999939-6.5999985,1.6999969-1.5-3.6000061c5.2000008-5.3000031,6.8000031-7,8.5999985-9.8000031
	c1.6999969-2.6999969,6.5999985-7.6000061,9.1999969-9.6000061c2.6999969-2.1000061,5.0999985-3.8000031,7.6999969-6.1999969
	c2.6999969-2.5,4.3000031-5.5,6.6999969-7.6000061c2.4000015-1.8999939,4.5999985-3.8999939,6.0999985-4.6000061
	c1.4000015-0.6000061-0.1999969,1.3000031,4.6999969-1.6000061c4.9000015-2.8999939,4-1.3000031,6.3000031-3.6999969
	c2.1999969-2.3999939,2.1999969-2.3999939,2.1999969-2.3999939s-0.0999985-6.1999969,6.6999969-5.1000061
	c6.8000031,1.1000061,5.6999969,1.3000031,10.5999985-3.3000031c4.9999924-4.5,7.5999985-6.6000061,9.2000046-8.3000031
	c1.6000061-1.8999939,3.6000061-3.3999939,5.5-5.6999969c1.8000031-2.3000031,0.6999969-5.6000061,3.1000061-6.0000076
	c2.1999969-0.4000015,1.6999969,0.5,4.8000031,1c3.1999969,0.6000137,4.6000061,1.5000076,5.8000031-0.5999985
	c1-2.3000031-1.8000031-3-0.3999939-5.5c1.5-2.5999985-0.5-4.5999985,4.1000061-3.0999985
	c4.6000061,1.4000015,3.3999939,1.5999985,7.1000061,2.4000015c3.6000061,0.8000031,0.8999939,4.8000031,3.6000061,0.8000031
	c2.8000031-4,0.6000061-5,2.3999939-7.8000031c1.8000031-2.6999969,1.6999969-3,3.3999939-4.5999985
	c1.6000061-1.5,0.8999939-1.5999985,1.6999969-2.9000015c0.8999939-1.4000015,5.6000061-1.0999985,8.6000061,2.1999969
	c3,3.3000031,6.1999969,3.8000031,4.6000061,6c-1.3999939,2.3000031-2.3999939,7.4000015,0.6000061,5.3000031
	c3.1000061-2.1999969,6.3999939-0.9000015,4.3000031-6.1999969c-2.1999969-5.3000031-3.3000031-6.4000015-2.6999969-9.5999985
	c0.5-3.1999969-0.1999969-7.1999969,1.1000061-6c1.3999939,1.3000031,4.3999939,4.8000031,4.1000061,1.5
	c-0.1999969-3.4000015-2.1000061-4.6999969,0.5-5.1999969c2.6999969-0.5,3.8000031,1.6999969,4.1999969,3.8000031
	c0.5,2.1999969,1,0.9000015,2.3000031,3.4000015c1.1999969,2.5,1.1000061,1.4000015,0.8000031,5.8000031
	c-0.3000031,4.3000031,0.8999939,8.5999985,3.3999939,5.4000015s2.8999939-3,3-6.4000015
	c0-3.5999985,0.3999939,0.3000031,0-3.5999985c-0.3000031-3.8000031,0.5-1.5999985-0.3000031-5.4000015
	c-0.6999969-3.6999969,1.3999939-3-1.5-5.5c-2.8000031-2.5-5.1000061-4.4000015-7.6999969-5.8000031
	c-2.6000061-1.4000015-3-3.4000015-5.6000061-2.9000015c-2.6999969,0.5-2.8999939-0.8000031-6,1.1999969
	c-3,2.1999969-4,3.0999985-7.1999969,4.5999985c-3.1999969,1.4000015-0.6000061,4.8000031-3.1999969,1.4000015
	c-2.6000061-3.4000015-3-3.3000031-2.3999939-6.5c0.6000061-3.0999985,1.3000031-3.3000031,1.1999969-5.3000031
	c0.1000061-1.9000015,0.6000061-2.8000031,2-3.5c1.5-0.6999969,3-2.5,3-2.5c1.1000061-4.5,3.8999939-5.9000015-2.6999969-6
	c-6.6000061-0.1999969-7,1.6999969-8.1000061-1.9000015c-1.1999969-3.5999985-2.3999939-2.2000008-0.3999939-5.7999992
	s3.8000031,1.2000008,2-3.5999985c-1.6999969-4.7000008-1.1000061-3.2000008-3.3999939-5.4000015
	c-2.3999939-2.2999992-4.6999969-5.7000008-5-7.5999985c-0.3999939-1.7999992-4.1000061-1.0999985-0.3999939-4.2000008
	c3.6999969-3,3-2.9000015,7.3999939-5.5999985c4.5-2.7999992,8-6.2000008,10.1000061-9.3999996
	c2.1000061-3.1000004,2.3000031-6,6.3000031-4c3.8000031,2.1000004,2.8000031,0.7000008,5.8000031,2.3999996
	c3,1.6000004,3.6999969,3.1000004,5.8999939,2.2999992c2.1000061-0.7999992,2.8999939-2.8999996,4.3999939-0.7999992
	c1.6000061,1.8999996,2,3.7999992,3.8999939,5.7000008c2,2,2.8999939,2.8999996,4.8000031,3
	c1.8999939,0.1000004,3.1999969,0.5999985,5,1.7000008c1.8000031,1.2000008,2.5,1,5.6999969,3.5
	c3.1999969,2.4000015,3.3000031,2.9000015,7.3999939,2c4.1000061-0.7999992,9.1000061-1.4000015,12.3999939-2
	c3.3999939-0.7000008,1.1000061-2.7999992,9,2.0999985c8,5,11.7000122,6.2000008,16.3999939,6.5
	c4.7000122,0.2000008,4.2999878-1.7000008,8-0.7999992c3.5,0.7000008,3.7000122,3.0999985,6.3999939,1
	c2.7000122-2.2000008,3.5-4.2000008,6.7999878-2.9000015c3.3999939,1.4000015,4.8999939,1.5,7.7000122,2
	c2.7999878,0.5999985,6.2999878,2.2999992,7.8999939,4.5999985c1.6000061,2.4000015,3.8999939,6.2000008,5.7999878,6.2000008
	c2,0,5.1000061,2.0999985,6.8999939,3.2999992s5.2000122,0.9000015,6.2999878,6.1000023
	c1.1000061,5.3000031,0.8999939,6.4000015,3.1000061,9.8000031c2.2999878,3.4000015,3.7999878,5.1999969,5.2000122,2.8000031
	c1.6000061-2.1999969,1.6000061-6,2.7999878-7.8000031c1.2000122-1.8000031,4-4.5999985,6.3999939-4.5
	c2.5,0.4000015,5.6000061-1,3.6000061-3.7000008c-2.2000122-2.7000008-3.5-2.0999985-4.3999939-4.7000008
	c-0.7999878-2.5-1-5.5-1-5.5s1-2.5,3.7000122-1c2.5,1.2999992,4,4.5,6.2000122,4.0999985
	c2.2000122-0.5,5.2000122-1.0999985,5.7999878,2c0.6000061,3,0.6000061,3,0.1000061,6.5999985
	s1.7999878,6.5999985-0.6000061,8.5999985c-2.3999939,1.8000031-2.6000061,3.0999985-5.7999878,4.1999969
	c-3.2000122,1-1.8999939-1.5-4.1000061,2.6999969c-2.2000122,4.3000031-2.1000061,4.3000031-3.3999939,6.4000015
	c-2.8999939,4.9000015-3.8999939,3.5-3.8999939,7.8000031c0.1000061,4.3000031-2.5,5.0999985,0.1000061,6.0999985
	c2.5,1.0999985,2,0.4000015,4.7000122-1.6999969c2.7000122-2,3.2999878-1,5.6000061-5
	c2.2999878-3.9000015,3.6000061-5.3000031,5.7000122-8.5c2.1000061-3,3.6000061-5.1999969,5.8999939-6.9000015
	c2.3999939-1.5999985,5.6000061-3.6999969,7.3999939-3.6999969c2-0.0999985,5.2000122,0.5,2.2000122,3
	c-3,2.5999985-2.6000061,2.5-4.1000061,4.6999969c-1.6000061,2.1999969-2.7999878,4-2.7000122,5.9000015
	c0,2-1.2999878,1.0999985,0.2999878,3.5c1.7000122,2.4000015,2.7999878,2.5,5.2999878,1.1999969
	c2.2999878-1.1999969,4-3.1999969,4.3999939-5c0.3999939-2,1.1000061-2.9000015,3.8999939-1.9000015
	c2.8999939,0.9000015,4,0.5999985,4.7999878,2.5c0.7000122,1.8000031,0.7000122,1.8000031,0.7000122,1.8000031
	s3.5,2.0999985,2.2999878,5.4000015c-1.2999878,3.4000015-0.6000061,3.1999969-3.3999939,6.5
	c-2.7999878,3.1999969-2.5,3.1999969-5,4c-2.6000061,0.9000015-3.7999878,0.4000015-4.7999878,3.1999969
	c-0.8999939,3-4,0.8000031-0.8999939,3c3,1.9000015,6.2000122,1.8000031,8.8999939,0.0999985
	c2.7000122-1.6999969,4.2999878-3.0999985,7.7000122-4.1999969c3.2999878-1.0999985,7.7999878-1.5,10.2000122-3.1999969
	c2.3999939-1.5999985,4.6000061-2.4000015,5.8999939-3.4000015c1.3999939-1.1999969,4.7999878-5.1999969,1.8999939,1.5
	c-2.8999939,6.9000015-3.6000061,7.4000015-2.7999878,9.0999985c0.7000122,1.8000031,1.8999939,5.9000015,3.5,2.6999969
	c1.7999878-2.9000015,2.2000122-6.5999985,4.2999878-3.8000031c2.1000061,2.5999985,1,5.1999969,3.5,5.8000031
	c2.5,0.6999969,1.8999939,0,4.5,1.0999985c2.3999939,1,1.1000061,2.0999985,4.2999878,2.1999969
	c3.1000061,0.1999969,5.5-1.8000031,8-0.6999969c2.5,1,3.2999878-2.6999969,5.2999878,3.4000015
	s2.1000061,0.8000031,3.2999878,2.9000015c1.2000122,2.0999985,2.2000122,1.1999969,3.7000122,4.7000122
	c1.5,3.6000061,1.7999878,5.1000061,2.7000122,6c1,0.8999939,3.1000061-0.3000031,3.6000061,2.6999969
	c0.7000122,3.1000061,1.6000061,6,2.6000061,7.3000031c1.1000061,1.3000031,4.3999939,5,4.7999878,6.8000031
	c0.3999939,1.8999939,1.7999878,3.1000061,1.6000061,5.5c-0.2999878,2.3999939,2,2.3999939-1.1000061,4.8000031
	c-2.8999939,2.5-3.8999939,1.6000061-5.6000061,5c-1.6000061,3.5-4.8999939,0.8999939-3.7999878,3.8999939
	c1,3,1.5,3.8999939,4.2999878,6.3999939c2.8999939,2.6000061,3.7000122,6.6999969,5.2999878,7.1000061
	c1.7000122,0.5,2.6000061,1.5,4.1000061,3.3999939c1.6000061,2,1,2.6000061,3.8999939,3.1999969
	c2.7999878,0.6000061,3.6000061,0.8000031,5.6000061,2.8000031c1.8999939,1.8000031,1.8999939,2.1000061,3.7000122,3.5
	c1.7999878,1.3000031,4.1000061-0.8000031,4.7000122-3.3000031c0.7999878-2.3999939,1.3999939-3.6999969,4.3999939-1.6000061
	c3.1000061,2.1000061,5.1000061,2.1999969,7,2.5c2.1000061,0.5,3.5,2,6.7000122,2.5s10.2000122,0.8000031,12.1000061,2.3999939
	c1.7999878,1.5,4.9000244-0.6000061,6.0999756,1c1,1.6999969-0.5999756,1.3000031-0.4000244,4
	c0.0999756,2.6999969-0.7000122,8.6000061,3.2999878,5.1000061c3.9000244-3.3999939,3.2000122-5.1999969,6.4000244-6.6000061
	c3.0999756-1.3999939,5.7999878-0.3999939,6.0999756-2.3999939c0.2999878-1.8999939,2.4000244-3.1999969-2-6.1999969
	s-9.2000122-5.3999939-12.2000122-8.8000031c-2.9000244-3.3000031-4.5999756-3.6999969-10.8999939-8.3000031
	c-6.2999878-4.6000061-15-9.1000061-18.6000061-13.8999939c-3.6000061-4.6000061-7.2999878-10.1000061-13.3999939-15.1999969
	c-6-4.8999939-10.6000061-10.5-13.5-13.6000061c-2.8999939-2.8999939-2.2999878-1.5-7.8999939-7
	c-5.7000122-5.4000092-9.8999939-6.5000076-11.2999878-10.1000061s-0.2000122-3-3.2999878-4.8000031
	c-3.1000061-1.6999969-3.7000122-2.6999969-6.7999878-4.9000015c-3.1000061-2-10-11.5-13.7000122-18.1999969
	c-3.7000122-6.5999985-1.5-7.8000031-7-12.0999985c-5.5-4.4000015-6.8999939-9.0999985-8.2000122-6.5
	c-1.5,2.6999969,0.6000061,2.9000015-3.5,6c-4,3.3000031-6.2999878,5.1999969-7.2000122-0.8000031
	c-0.7999878-6,0.8999939-9,0.7000122-12.1999969c-0.2000122-3,0.5-3.0999985-1.1000061-7.0999985
	c-1.6000061-3.9000015-3-5.5999985-3.3999939-7.5s0.1000061-2-1.3999939-5.2000008s-0.6000061-8.7999992-3.1000061-11.7000008
	c-2.5-3.1000004-5.3999939-4.3999996-6.6000061-10.3999996c-1.2000122-5.8999996-2.2999878-7.5999994-3.1000061-12.999999
	c-0.5-5.3000002-3.7999878-11.6999998,0.5-9.6999998c4.2999878,1.9000001,5.3999939-0.3,5.8999939,4.1999998
	c0.6000061,4.5,0.5,6.1000004,2.2000122,10.8999996c1.7000122,4.6999998,3.6000061,10.8999987,4.8999939,12.8999987
	c1.2000122,2.2000008,4.2000122,7.6999989,4.2000122,7.6999989s-1.6000061,1.5999985,0.5,6.5
	c2.2000122,5,1.2999878,4.4000015,4.1000061,9c2.7000122,4.4000015,3.7000122,5.0999985,4.8999939,7.0999985
	c1.1000061,2.0999985,1.7000122,2.7999992,3.7000122,5.5c2.1000061,2.5999985,4.5,4.9000015,6.2999878,8.5
	c1.8999939,3.5,2.2000122,3.0999985,4.2999878,6.0999985c2.2000122,3.0999985,4,4.3000031,5.7999878,7.9000015
	c1.8999939,3.4000015,2.7000122,4.4000015,4.5,6.8000031c1.6000061,2.4000015,2.7000122,3.6999969,4.2999878,6.0999985
	c1.6000061,2.4000015,1.6000061,2.0999985,3.2000122,4c1.5,2.0999985,1.1000061,2.1999969,4.2999878,4.5999985
	c3.2000122,2.4000015,4.1000061,3.0999985,5.6000061,5.1999969c1.6000061,2,2.6000061,2.5999985,4,4.1999969
	c1.5,1.5999985,1,1.6999969,3.3999939,3.5999985c2.2999878,1.8000031,3.8999939,2.3000031,5.7999878,3.8000031
	c1.8999939,1.5999985,9.7000122,7.8000107,11.7999878,10.9000015c2.1000061,3,1.7000122,0.8000031,5.5,5.8999939
	c3.7000122,5,4.1000061,4.8999939,6.2000122,8c2.1000061,3.1999969,3.8999939,4.1999969,6.2999878,6.1000061
	c2.2999878,1.8999939,4.6000061,1.8999939,7.5,5.1000061c3,3.3000031,11,8.6999969,13.2999878,10.6999969
	c2.3999939,1.6999969,5.7999878,3.5,9.2999878,5.3999939c3.5,2,0.5999756,1.5,5.5999756,4.8000031
	c4.9000244,3.3000031,5,4,7.2000122,5.5c2.2999878,1.5,3.4000244,1.3000031,5.2999878,3.1999969
	c2.0999756,2,2.0999756,2.3000031,4.9000244,2.8999939c2.9000244,0.6000061,1,1.3000031,4.5999756-0.1999969
	c3.5999756-1.3999939,1.4000244,1,6-3c4.5999756-4.1000061,1-2.6000061,4.5999756-4.1000061s7-7.6000061,11.2999878-9.1000061
	c4.2999878-1.6999969,8.9000244-3.8000031,11.4000244-5.3999939c2.2999878-1.6999969,4.0999756-5,4.7000122-7.1000061
	c0.7999878-2,2.4000244-1.6000061,1.0999756-4.1000061c-1.2000122-2.3999939-3.5-2.3999939-1.0999756-5.3000031
	c2.5999756-2.6999969,3.5999756-3.6999969,4.7000122-5.8999939c1.2000122-2.1000061,2.2999878-4,2.0999756-5.3999939
	c-0.4000244-1.6000061-1.2000122-4,0.4000244-6c1.5999756-1.8000031,2-3.3999939,3.9000244-3.8000031
	c1.9000244-0.3000031,4.5-2.5,3.7000122,0.8000031c-1,3.3000031-0.5999756-1.1000061-1,3.3000031
	c-0.2000122,4.3999939-2.5999756,6,0,7.5c2.5999756,1.3000031,2.2000122,1.3999939,4.5,1.3000031
	c2.2000122-0.1000061,1.5999756-3.3999939,4.7999878,1s5.2999878,4.8000031,6.5,5.3000031
	c1.2999878,0.6000061,3.0999756,0.1999969,4.7000122,0.1999969c1.5,0.1999969,5.0999756,0.3999939,6.2000122,0
	c1.0999756-0.1000061,2,0.3000031,4.2000122-0.1999969c2.2999878-0.3999939,6.2000122-4.6999969,6.2000122-4.6999969
	l2.2000122-4.3000031c0,0,0.7000122-0.5,0.0999756-3.5c-0.5-2.8999939-2.5-2.6000061-0.9000244-4.8000031
	C636.3000488,133.1000519,638,131.6000519,638,131.6000519s-0.7000122-2.8999939,1.9000244-4.3000107
	c2.4000244-1.1999969,5.2999878-2.1999969,8-4.3000031c2.7999878-1.9000015,8.4000244-2.8000031,9.5-3.3000031
	c1-0.6999969,6.4000244-0.9000015,7.4000244-1.5c1.0999756-0.6999969,0.9000244-1.5,3.5-2.3000031
	c2.5-0.6999969,2.7999878-1.3000031,5.7000122-0.1999969c2.7999878,1,5.2000122,0.9000015,7.2000122-0.5999985
	c2-1.6999969,4.0999756-0.5,6.7999878,1c2.5,1.3000031,3.0999756,0.5,6,1.0999985
	c2.7999878,0.5999985,4.5999756,1.3000031,6.7999878,0.5999985c2.0999756-0.8000031,0.2000122-2.8000031,4.5999756-2.0999985
	c4.2999878,0.6999969,5.2000122,2.5,7.2000122,2.9000015c2.0999756,0.4000015,5.4000244,0,6.9000244-0.3000031
	s2.7000122-2,4.7999878-2.8000031c2.2000122-0.8000031,9-3,9.2999878-1.9000015
	c0.2000122,1.1999969-1.5999756,6.0999985-1.5999756,6.0999985s0.2000122,2.6999969,1.0999756,5.1999969
	c0.7999878,2.5,3.7000122,5.1000061,2.2000122,7c-1.5999756,1.8000031-2.7999878,3.6000061-5.4000244,3.8000031
	c-2.7999878,0-6.2999878,1.8000031-8.5,0.3999939c-2.2000122-1.5-7.0999756-2.8000031-7.0999756-2.8000031
	s-3.9000244-2.3999939-5.4000244-1.6999969C706.7000122,132.8000031,706,133.3999939,705.2999878,135.1000061z"/>
</svg>
