<?xml version="1.0" encoding="utf-8"?>
<!-- Generator: Adobe Illustrator 22.1.0, SVG Export Plug-In . SVG Version: 6.00 Build 0)  -->
<svg version="1.1" id="Capa_1" xmlns="http://www.w3.org/2000/svg" xmlns:xlink="http://www.w3.org/1999/xlink" x="0px" y="0px"
	 viewBox="0 0 475.2000122 475.2000122" style="enable-background:new 0 0 475.2000122 475.2000122;" xml:space="preserve">
<g>
	<g>
		<path d="M405.6000061,69.5999908c-44.8999939-44.8999977-104.5-69.5999985-168-69.5999985s-123.0999985,24.7000008-168,69.5999985
			S0,174.1000061,0,237.6000061s24.7000008,123.1000061,69.5999985,168s104.5000076,69.6000061,168,69.6000061
			s123.1000061-24.7000122,168-69.6000061s69.6000061-104.5,69.6000061-168S450.5,114.4999924,405.6000061,69.5999908z M386.5,386.5
			c-39.7999878,39.7999878-92.7000122,61.7000122-148.8999939,61.7000122S128.5,426.3000183,88.7000122,386.5
			c-82.0999985-82.1000061-82.0999985-215.6999969,0-297.7999878C128.5,48.8999939,181.3999939,26.9999924,237.6000061,26.9999924
			S346.7000122,48.8999939,386.5,88.6999893C468.6000061,170.8000031,468.6000061,304.3999939,386.5,386.5z"/>
		<path d="M342.2999878,132.8999939c-5.2999878-5.3000107-13.7999878-5.3000107-19.1000061,0L237.5999756,218.5L152,132.8999939
			c-5.3000031-5.3000107-13.8000031-5.3000107-19.1000061,0c-5.3000031,5.3000031-5.3000031,13.8000031,0,19.1000061
			L218.5,237.6000061l-85.6000061,85.6000061c-5.3000031,5.2999878-5.3000031,13.7999878,0,19.1000061
			c2.6000061,2.6000061,6.1000061,4,9.5,4s6.8999939-1.2999878,9.5-4L237.5,256.7000122l85.6000061,85.6000061
			c2.6000061,2.6000061,6.1000061,4,9.5,4c3.5,0,6.8999939-1.2999878,9.5-4c5.2999878-5.2999878,5.2999878-13.7999878,0-19.1000061
			l-85.3999939-85.6000061L342.3000183,152C347.6000061,146.6999969,347.6000061,138.1999969,342.2999878,132.8999939z"/>
	</g>
</g>
</svg>
