<?xml version="1.0" encoding="utf-8"?>
<!-- Generator: Adobe Illustrator 22.0.1, SVG Export Plug-In . SVG Version: 6.00 Build 0)  -->
<svg version="1.1" id="Capa_1" xmlns="http://www.w3.org/2000/svg" xmlns:xlink="http://www.w3.org/1999/xlink" x="0px" y="0px"
	 viewBox="0 0 512 512" style="enable-background:new 0 0 512 512;" xml:space="preserve">
<style type="text/css">
	.st0{fill:#EFEEED;}
	.st1{fill:#C1BEBC;}
	.st2{fill:#666666;}
	.st3{fill:#ED1C28;}
	.st4{fill:#FFFFFF;}
</style>
<path class="st0" d="M391,45v467H45c-24.9,0-45-21.1-45-46V151l10.8-3.9L141.6,17.4L150,0h196C370.9,0,391,20.1,391,45z"/>
<path class="st1" d="M0,151h135c8.3,0,15-6.7,15-15V0L0,151z"/>
<path class="st2" d="M301.2,406c0,8.4-6.9,15-15,15H75c-8.4,0-15-6.6-15-15c0-8.4,6.6-15,15-15h211.2
	C294.3,391,301.2,397.6,301.2,406z"/>
<path class="st2" d="M301.2,406c0,8.4-6.9,15-15,15H195v-30h91.2C294.3,391,301.2,397.6,301.2,406z"/>
<path class="st2" d="M303.9,346c0,8.4-6.9,15-15,15H75c-8.4,0-15-6.6-15-15c0-8.4,6.6-15,15-15h213.9C297,331,303.9,337.6,303.9,346
	z"/>
<path class="st2" d="M303.9,346c0,8.4-6.9,15-15,15H195v-30h93.9C297,331,303.9,337.6,303.9,346z"/>
<path class="st2" d="M275.7,286c0,8.4-6.9,15-15,15H75c-8.4,0-15-6.6-15-15c0-8.4,6.6-15,15-15h185.7
	C268.8,271,275.7,277.6,275.7,286z"/>
<path class="st2" d="M275.7,286c0,8.4-6.9,15-15,15H195v-30h65.7C268.8,271,275.7,277.6,275.7,286z"/>
<path class="st2" d="M331,226c0,8.4-7.6,15-16,15H75c-8.4,0-15-6.6-15-15c0-8.4,6.6-15,15-15h240C323.4,211,331,217.6,331,226z"/>
<path class="st2" d="M331,226c0,8.4-7.6,15-16,15H195v-30h120C323.4,211,331,217.6,331,226z"/>
<path class="st2" d="M331,166c0,8.4-7.6,15-16,15H195c-8.4,0-15-6.6-15-15c0-8.4,6.6-15,15-15h120C323.4,151,331,157.6,331,166z"/>
<path class="st2" d="M331,166c0,8.4-7.6,15-16,15H195v-30h120C323.4,151,331,157.6,331,166z"/>
<path class="st2" d="M331,106c0,8.4-7.6,15-16,15H195c-8.4,0-15-6.6-15-15s6.6-15,15-15h120C323.4,91,331,97.6,331,106z"/>
<path class="st2" d="M331,106c0,8.4-7.6,15-16,15H195V91h120C323.4,91,331,97.6,331,106z"/>
<path class="st3" d="M391,271c-66.3,0-121,53.7-121,120c0,66.3,54.7,121,121,121s121-54.7,121-121C512,324.7,457.3,271,391,271z"/>
<path class="st4" d="M446.5,386.5L391,442l-4.5,4.5c-2.7,3-6.6,4.5-10.5,4.5s-7.8-1.5-10.5-4.5l-30-30c-6-5.7-6-15.3,0-21
	c5.7-6,15.3-6,21,0l19.5,19.2l15-15l34.5-34.2c5.7-6,15.3-6,21,0C452.5,371.2,452.5,380.8,446.5,386.5z"/>
</svg>
