<?xml version="1.0" encoding="iso-8859-1"?>
<!-- Generator: Adobe Illustrator 19.0.0, SVG Export Plug-In . SVG Version: 6.00 Build 0)  -->
<svg version="1.1" id="Layer_1" xmlns="http://www.w3.org/2000/svg" xmlns:xlink="http://www.w3.org/1999/xlink" x="0px" y="0px"
	 viewBox="0 0 512 512" style="enable-background:new 0 0 512 512;" xml:space="preserve">
<g>
	<polygon style="fill:#F0C419;" points="335.448,92.062 335.448,35.309 158.897,35.309 158.897,92.062 203.034,92.062 
		203.034,167.723 273.655,167.723 273.655,92.062 	"/>
	<polygon style="fill:#4482C3;" points="273.655,167.725 450.207,167.725 450.207,88.277 273.655,88.277 	"/>
	<polygon style="fill:#E64C3C;" points="61.793,167.725 203.034,167.725 203.034,88.277 61.793,88.277 	"/>
	<polygon style="fill:#805333;" points="370.759,158.898 353.103,158.898 353.103,476.691 476.69,476.691 476.69,264.829 	"/>
	<polygon style="fill:#A57656;" points="35.31,247.174 35.31,476.691 353.103,476.691 353.103,158.898 	"/>
	<polygon style="fill:#F9EBB0;" points="105.931,423.725 282.483,423.725 282.483,317.794 105.931,317.794 	"/>
	<g>
		<path style="fill:#C9B881;" d="M167.724,361.932h-17.655c-4.882,0-8.828-3.955-8.828-8.828s3.946-8.828,8.828-8.828h17.655
			c4.882,0,8.828,3.955,8.828,8.828S172.606,361.932,167.724,361.932"/>
		<path style="fill:#C9B881;" d="M238.345,397.243H220.69c-4.882,0-8.828-3.955-8.828-8.828c0-4.873,3.946-8.828,8.828-8.828h17.655
			c4.882,0,8.828,3.955,8.828,8.828C247.172,393.288,243.226,397.243,238.345,397.243"/>
		<path style="fill:#C9B881;" d="M238.345,361.932h-35.31c-4.882,0-8.828-3.955-8.828-8.828s3.946-8.828,8.828-8.828h35.31
			c4.882,0,8.828,3.955,8.828,8.828S243.226,361.932,238.345,361.932"/>
		<path style="fill:#C9B881;" d="M194.207,397.243h-44.138c-4.882,0-8.828-3.955-8.828-8.828c0-4.873,3.946-8.828,8.828-8.828
			h44.138c4.882,0,8.828,3.955,8.828,8.828C203.034,393.288,199.089,397.243,194.207,397.243"/>
	</g>
	<polygon style="fill:#805333;" points="317.793,247.174 0,247.174 35.31,158.898 353.103,158.898 	"/>
	<polygon style="fill:#A57656;" points="512,264.829 406.069,264.829 370.759,158.898 476.69,158.898 	"/>
	<polygon style="fill:#603E26;" points="450.207,476.691 476.69,476.691 476.69,264.829 450.207,264.829 	"/>
	<polygon style="fill:#B79178;" points="35.31,476.691 61.793,476.691 61.793,247.174 35.31,247.174 	"/>
	<polygon style="fill:#EC7063;" points="61.793,158.898 88.276,158.898 88.276,88.277 61.793,88.277 	"/>
	<polygon style="fill:#F7DC75;" points="158.897,88.277 185.379,88.277 185.379,35.312 158.897,35.312 	"/>
	<polygon style="fill:#336292;" points="423.724,158.898 450.207,158.898 450.207,88.277 423.724,88.277 	"/>
</g>
<g>
</g>
<g>
</g>
<g>
</g>
<g>
</g>
<g>
</g>
<g>
</g>
<g>
</g>
<g>
</g>
<g>
</g>
<g>
</g>
<g>
</g>
<g>
</g>
<g>
</g>
<g>
</g>
<g>
</g>
</svg>
