<?xml version="1.0" encoding="utf-8"?>
<!-- Generator: Adobe Illustrator 22.1.0, SVG Export Plug-In . SVG Version: 6.00 Build 0)  -->
<svg version="1.1" id="Слой_1" xmlns="http://www.w3.org/2000/svg" xmlns:xlink="http://www.w3.org/1999/xlink" x="0px" y="0px"
	 viewBox="0 0 1013.4400024 994.5819702" style="enable-background:new 0 0 1013.4400024 994.5819702;" xml:space="preserve" fill="#ed1c28">
<style type="text/css">
	.st0{clip-path:url(#SVGID_2_);}
</style>
<g>
	<defs>
		<rect id="SVGID_1_" width="1013.4359741" height="994.5819702"/>
	</defs>
	<clipPath id="SVGID_2_">
		<use xlink:href="#SVGID_1_"  style="overflow:visible;"/>
	</clipPath>
	<path class="st0" d="M506.5252991,994.5244141H10.97229c-1.6659546,0-3.3399658-0.1199951-4.9939575,0.0159912
		c-4.2870483,0.3519897-5.8000488-1.5180054-5.8930054-5.81604c-1.1960449-55.4840088,10.1090088-107.9689941,38.8609619-155.815979
		c43.5090332-72.4039917,106.8850098-117.2410278,189.6950073-134.4450073
		c26.28302-5.4589844,52.9110107-5.2130127,79.5469971-5.0479736c7.3130188,0.0439453,15.428009,1.7099609,21.7170105-0.8909912
		c6.2870178-2.6020508,10.8009949-9.5620117,15.9989929-14.7070313c8.6380005-8.552002,17.1500244-17.2319946,25.8320007-25.7399902
		c2.1900024-2.1469727,3.178009-4.4370117,3.1360168-7.4959717c-0.1220093-8.8240356-0.1459961-17.6520386,0.0109863-26.4750366
		c0.0610046-3.4309692-1.0140076-5.9650269-3.5529785-8.315979c-24.8160095-22.9790039-44.8170166-49.6060181-59.8790283-79.8900146
		c-1.6469727-3.3129883-3.9589844-3.8859863-7.2139893-3.875c-23.4790039,0.0800171-46.9580078,0.0599976-70.4370117,0.0360107
		c-27.6809998-0.0269775-46.0499878-18.3890076-46.0599976-46.0349731
		c-0.0130005-38.4660034-0.0090027-76.9320068,0.0030212-115.3970337
		c0.0079956-22.8189697,11.3259888-38.2199707,33.1869812-44.6549683c3.7060242-1.0910034,4.0039978-3.2560425,4.0480042-6.2789917
		c0.2200012-14.809021-0.1059875-29.6110229,0.5740051-44.4320068
		c2.8259888-61.5970459,23.6010132-116.4380493,62.2030029-164.2870483
		c38.631012-47.8829956,87.8659973-80.4519653,147.5839844-95.3659668
		c91.9379883-22.9619751,175.8629761-4.7810059,249.7109985,54.6109619
		c54.4199829,43.7680054,86.8939819,101.2890015,99.2910156,170.0320435
		c4.3629761,24.1929932,4.4439697,48.6699829,4.2359619,73.1469727c-0.0150146,1.8309937,0.1640015,3.6820068-0.0339966,5.4910278
		c-0.4699707,4.30896,0.947998,6.3579712,5.5599976,7.5869751c18.8560181,5.0289917,31.6069946,21.8190308,31.6530151,41.2620239
		c0.0969849,40.4639893,0.1079712,80.927002-0.0059814,121.3899841
		c-0.0549927,20.0549927-14.0980225,37.4620056-33.7750244,41.631012c-4.3469849,0.9219971-5.9279785,2.9319458-7.1309814,6.8429565
		c-11.5930176,37.6680298-36.9089966,60.3400269-75.493042,67.9960327
		c-12.6519775,2.5100098-25.5650024,1.2019653-38.3659668,1.401001c-1.9979858,0.0299683-4.0469971,0.2909546-5.9869995-0.0440063
		c-9.8389893-1.7049561-17.3300171,1.8609619-23.4290161,9.5250244c-1.7719727,2.2259521-2.9240112,4.2290039-2.8959961,7.0859375
		c0.0910034,9.1570435,0.085022,18.3170166,0.0050049,27.473999c-0.0220337,2.6800537,0.8300171,4.7449951,2.7470093,6.6480713
		c13.1199951,13.0189819,26.2059937,26.0719604,39.1969604,39.2209473c2.1110229,2.1359863,4.4330444,2.5640259,7.2010498,2.5550537
		c15.8199463-0.052002,31.6469727-0.3480225,47.4569702,0.0419922
		c83.1730347,2.0579834,152.7460327,34.0339355,208.0430298,96.1509399
		c36.8399658,41.3829956,58.7269897,90.039978,66.9580078,144.7850342
		c2.7249756,18.132019,3.2639771,36.4359741,3.1380005,54.7630005c-0.026001,3.8249512-1.5130005,5.5510254-5.3470459,5.3220215
		c-1.8249512-0.1110229-3.6629639-0.0060425-5.4939575-0.0060425
		c-142.5390015,0.0010376-285.0780029,0.0010376-427.6170044,0.0010376H506.5252991z M589.9672852,601.0043945h-5.3469849
		c-31.6359863-0.0009766-63.2739868,0.0450439-94.9110107-0.0269775
		c-12.8309937-0.0290527-20.9389954-8.1610107-21.0910034-20.8980103
		c-0.0649719-5.4949951-0.1119995-10.992981,0.0180054-16.4850464c0.2799988-11.8569336,8.4940186-19.93396,20.3580017-20.0089722
		c11.6560059-0.072998,23.3119812-0.0469971,34.9679871-0.0089722c10.6149902,0.0349731,17.0440063,4.7199707,20.2200317,15.0379639
		c0.8899536,2.8880615,2.2639771,3.9370117,5.282959,3.927002c26.9750366-0.0949707,53.9500122-0.0839844,80.9249878-0.0119629
		c2.757019,0.0079956,4.6230469-0.9240112,6.3850098-3.0410156c25.9509888-31.18396,43.0700073-66.5809937,51.7089844-106.2449951
		c6.6340332-30.4630127,4.3730469-61.2940063,4.8520508-92.0289917c0.0499878-3.2000122-1.5500488-3.9180298-4.3390503-3.9089966
		c-7.1799927,0.0230103-14.242981-1.1680298-21.2379761-2.6300049
		c-29.7180176-6.2089844-54.4439697-20.9249878-74.1549683-43.9899902
		c-2.2710571-2.6560059-3.3870239-3.3110352-5.5690308,0.1989746
		c-19.3319702,31.1110229-47.4400024,46.4880371-84.0449829,46.4730225
		c-58.446991-0.0230103-116.8929749-0.007019-175.3399963-0.0060425c-1.4979858,0-3.0010071,0.0790405-4.493988-0.0049438
		c-2.7009888-0.1530151-4.0039978,0.9299927-3.9450073,3.7579956c0.5700073,26.9219971-1.6860046,53.9299927,2.8860168,80.723999
		c10.7809753,63.1829834,41.2459717,114.7849731,91.6380005,154.2579956
		c33.071991,25.907959,71.0439758,35.5310059,112.6219788,30.2009277
		C550.149292,623.3653564,571.0442505,615.0263672,589.9672852,601.0043945 M398.3403015,318.7044067
		c35.8000183,0,71.598999,0.0209961,107.3989868-0.0059814c31.9700012-0.0250244,56.5929871-24.6970215,56.6399841-56.7040405
		c0.0159912-10.8239746,0.0870361-21.6480103-0.0289917-32.4689941c-0.0369873-3.4320068,1.2869873-4.7789917,4.7069702-4.7199707
		c7.3240356,0.1269531,14.6520386,0.0279541,21.9780273,0.0269775c11.7070313-0.0029907,11.7070313-0.0009766,12.8800049,11.7630005
		c3.5900269,36.0120239,30.7279663,68.0720215,65.835022,78.2479858c19.9469604,5.7820435,40.3139648,3.2579956,60.532959,3.81604
		c2.677002,0.072998,2.7070313-1.6390381,2.5839844-3.7130127c-0.5649414-9.6279907-0.8789673-19.2529907-2.3769531-28.8250122
		c-8.8760376-56.7119751-35.2090454-103.7410278-79.5230103-140.0109863
		c-50.4190063-41.2680054-108.6199951-57.28302-173.1380005-48.6600342
		c-57.6589661,7.7059937-105.1229858,34.7200317-142.1149902,79.4260254
		c-32.25,38.973999-49.2909851,84.039978-50.7909851,134.789978c-0.2080078,7.0250244-0.2940063,7.0270386,6.5209961,7.0270386
		C325.7423096,318.6954346,362.0413208,318.694397,398.3403015,318.7044067 M235.5053101,955.4693604
		c63.1029968,0,126.20401,0.0030518,189.3059998-0.0039673c6.644989-0.0010376,6.6629944-0.0280151,6.6640015-6.6150513
		c0.0059814-36.6289673,0.0059814-73.2579346,0.0010071-109.8869629c-0.0010071-6.1080322-0.0100098-6.0980225-5.4980164-3.0419922
		c-33.5879822,18.7059937-67.177002,37.4119873-100.769989,56.1090088c-6.2600098,3.4830322-6.5710144,3.2879639-6.571991-4.1030273
		c-0.0080261-35.9630127-0.0040283-71.9259644-0.0040283-107.8880005c0-14.3189697-0.1109924-28.6389771,0.0680237-42.9550171
		c0.0499878-3.9369507-1.2709961-5.3239746-5.1870117-5.1549683c-5.8160095,0.25-11.6520081,0.1420288-17.4790039,0.0480347
		c-21.5059814-0.3480225-42.9289856,0.480957-64.0220032,5.1009521
		c-67.2610168,14.7299805-119.571991,51.1060181-156.6990051,109.0550537
		C55.2172852,877.5003662,43.8543091,912.043396,39.5883179,948.977417
		c-0.6790161,5.8789673-0.085022,6.4840088,6.1129761,6.4849854
		C108.9692993,955.4733887,172.2382813,955.4693604,235.5053101,955.4693604 M778.0133057,955.4703979h186.3029785
		c1.4990234,0,3.0130005-0.1450195,4.492981,0.0230103c4.7300415,0.5339355,5.8120117-1.9130249,5.1950073-6.0050049
		c-0.7940063-5.2620239-1.2719727-10.5789795-2.2619629-15.8010254
		c-13.8890381-73.3299561-52.6260376-129.5859985-116.5150146-168.1740112
		c-29.0159912-17.5249634-60.6619873-27.7329712-94.3770142-31.742981
		c-19.7540283-2.348999-39.5440063-1.5799561-59.3309937-1.7659912c-6.5950317-0.0610352-6.6130371,0.0079956-6.6140137,6.5739746
		c-0.0050049,49.2819824-0.0020142,98.5629883-0.0039673,147.8439941c0,1.4980469-0.0430298,2.9970093-0.0150146,4.4949951
		c0.0559692,2.9720459-1.0499878,4.0960693-3.9150391,2.5369873c-0.8779907-0.4779663-1.7669678-0.9329834-2.6399536-1.4189453
		c-33.5900269-18.7010498-67.1790161-37.4030151-100.7670288-56.1070557c-5.492981-3.05896-5.5050049-3.0649414-5.5059814,3.0270386
		c-0.0040283,36.4619751-0.0040283,72.9230347,0,109.3839722c0,7.1120605,0.0100098,7.1280518,7.1530151,7.1280518
		C652.1452637,955.4724121,715.0782471,955.4703979,778.0133057,955.4703979 M469.9942932,882.918396
		c0,22.1409912,0.0849915,44.28302-0.071991,66.4219971c-0.0299988,4.3269653,0.9639893,6.2720337,5.7969971,6.2210083
		c20.8070068-0.2199707,41.6170044-0.1740112,62.4249878-0.0280151c4.1409912,0.0289917,5.4699707-1.4209595,5.460022-5.5220337
		c-0.1069946-44.7799683-0.0900269-89.5609741-0.0180054-134.34198c0.0050049-3.0509644-1.0209961-4.8739624-3.7449951-6.2999878
		c-6.9260254-3.6290283-13.6190186-7.7070313-20.585022-11.2540283c-3.8109741-1.9419556-7.1669922-6.6349487-12.4329834-3.0119629
		c-0.25,0.1710205-1.0360107-0.1119995-1.3519897-0.4140015c-2.3410034-2.2280273-4.3280029-0.5310059-6.3070068,0.5620117
		c-8.3009949,4.5869751-16.4970093,9.3759766-24.8990173,13.7689819c-3.2819824,1.7149658-4.3589783,3.8800049-4.3379822,7.4780273
		C470.0622864,838.6373901,469.9942932,860.7783813,469.9942932,882.918396 M357.2442932,774.7473755
		c0,16.6500244,0.0700073,33.2999878-0.0499878,49.9490356c-0.0289917,3.8879395,0.8080139,4.7459717,4.446991,2.71698
		c36.1930237-20.1870117,72.4250183-40.3049927,108.7099915-60.3280029
		c3.6330261-2.0029907,3.9490051-3.3380127,0.8860168-6.3760376
		c-24.5930176-24.3829346-49.0870056-48.8679199-73.4549866-73.4759521
		c-2.9210205-2.9509888-4.5339966-2.5050049-7.1450195,0.1719971
		c-9.8819885,10.1290283-19.9060059,20.1220093-30.0139771,30.0269775
		c-2.4530029,2.4040527-3.4710083,4.9279785-3.4420166,8.3640137
		C357.3233032,742.1123657,357.2442932,758.4293823,357.2442932,774.7473755 M656.2893066,774.5983887
		c0-16.3140259-0.0620117-32.6290283,0.0539551-48.9420166c0.0220337-3.2230225-0.8399658-5.6689453-3.1799927-7.9649658
		c-10.2149658-10.0290527-20.3900146-20.1060181-30.3430176-30.3950195
		c-2.8349609-2.9289551-4.4299927-2.5510254-7.117981,0.1550293
		c-24.2869873,24.4449463-48.7130127,48.7509766-73.0910034,73.1069336
		c-3.9129639,3.9090576-3.9129639,3.9640503,1.1990356,6.8040161
		c35.9299927,19.9609985,71.8859863,39.8779907,107.7810059,59.9000244c3.5829468,1.9979858,4.8109741,1.742981,4.7659912-2.7229614
		C656.18927,807.8933716,656.2893066,791.2463989,656.2893066,774.5983887 M281.5993042,422.5264282
		c0-19.9609985-0.1009827-39.9240112,0.0820007-59.8840332c0.0379944-4.1920166-1.3670044-5.4219971-5.4500122-5.367981
		c-13.9709778,0.1859741-27.9459839,0.0239868-41.9179993,0.0410156c-6.6299744,0.0079956-8.0039978,1.3299561-8.0079956,7.7989502
		c-0.0209961,38.0940552-0.0229797,76.1860352,0.0030212,114.2800293c0.0049744,6.5639954,1.6319885,8.1279907,8.3609924,8.144989
		c13.8070068,0.0360107,27.6159973-0.1539917,41.4179993,0.1069946c4.4779968,0.0849915,5.644989-1.4299927,5.6019897-5.7349548
		C281.4913025,462.1184082,281.6022949,442.3223877,281.5993042,422.5264282 M731.932251,422.1453857
		c0,19.9609985,0.1210327,39.9230347-0.0939941,59.882019c-0.0479736,4.4579773,1.4020386,5.6869812,5.723999,5.6119995
		c13.802002-0.2380066,27.6100464-0.0610046,41.4170532-0.1020203c6.6459961-0.0189819,8.2449951-1.6109924,8.2489624-8.2659607
		c0.0220337-38.092041,0.0230103-76.184021-0.0009766-114.2750244c-0.0040283-6.2189941-1.4500122-7.6690063-7.6329956-7.6809692
		c-14.1390381-0.026001-28.2789917,0.1589966-42.4150391-0.0480347c-4.2459717-0.0620117-5.3540039,1.4660034-5.3209839,5.4960327
		C732.0213013,382.5563965,731.932251,402.3513794,731.932251,422.1453857 M599.6212769,646.2143555
		c-0.026001-3.6289673-0.4689941-3.7779541-4.4060059-1.6789551c-27.7130127,14.776001-57.3850098,22.0749512-88.6759644,22.0009766
		c-31.2810059-0.0749512-60.9389954-7.4099731-88.5899963-22.3209839c-0.9810181-0.5280151-2.0090027-1.6480103-3.1820068-0.9939575
		c-1.4199829,0.7919922-0.7640076,2.3689575-0.7990112,3.631958c-0.0499878,1.8270264,1.0640259,3.072998,2.2650146,4.2730103
		c29.3029785,29.2969971,58.6159973,58.585022,87.868988,87.93396c1.9700012,1.9769897,3.2700195,2.0650024,5.2860107,0.0430298
		c29.2519531-29.3499756,58.5639648-58.6390381,87.8800049-87.9249878
		C598.7522583,649.6954346,599.807251,648.1063843,599.6212769,646.2143555 M297.7203064,158.3104248
		c54.2269897-65.7180176,123.5570068-101.6990356,209.065979-101.697998
		C592.3272705,56.6134033,661.7113037,92.675415,715.90625,158.4523926
		C667.2592773,81.5883789,597.7952881,39.1134033,506.4902954,39.1994019
		C415.405304,39.2854004,346.136322,81.7703857,297.7203064,158.3104248 M691.0523071,562.4383545
		c1.7709961,0,2.9449463,0.0900879,4.1009521-0.0179443c2.6490479-0.2470093,5.3170166-0.4389648,7.9290161-0.9169922
		c18.9979858-3.4710083,32.7449951-13.9180298,41.367981-31.2000122c1.677002-3.3600464,0.7550049-4.3300171-2.84198-4.2839966
		c-10.9869995,0.1400146-21.9769897,0.1660156-32.9619751-0.0140381c-3.3619995-0.0539551-5.1220093,1.28302-6.4900513,4.1940308
		c-4.1089478,8.75-9.1889648,16.9679565-14.164978,25.2449951c-1.2199707,2.0289917-4.2890015,4.0010376-2.9349976,6.3209839
		C686.1422729,563.6293945,689.3963013,562.1544189,691.0523071,562.4383545"/>
</g>
</svg>
