<?xml version="1.0" encoding="utf-8"?>
<!-- Generator: Adobe Illustrator 22.1.0, SVG Export Plug-In . SVG Version: 6.00 Build 0)  -->
<svg version="1.1" id="Слой_1" xmlns="http://www.w3.org/2000/svg" xmlns:xlink="http://www.w3.org/1999/xlink" x="0px" y="0px"
	 viewBox="0 0 489.8389893 334.5830078" style="enable-background:new 0 0 489.8389893 334.5830078;" xml:space="preserve" fill="#ed1c28">
<style type="text/css">
	.st0{clip-path:url(#SVGID_2_);}
</style>
<g>
	<defs>
		<rect id="SVGID_1_" width="489.8389893" height="334.5830078"/>
	</defs>
	<clipPath id="SVGID_2_">
		<use xlink:href="#SVGID_1_"  style="overflow:visible;"/>
	</clipPath>
	<path class="st0" d="M-0.0001,200.2104034c0.265-0.2779999,0.544-0.5429993,0.791-0.8349915
		c1.6099999-1.8999939,3.628-2.9839935,6.1449995-2.9839935c32.7719955-0.0070038,65.5449982-0.0120087,98.3179932,0.0049896
		c4.3190002,0.0010071,7.8940048,3.7070007,7.875,8.0319977c-0.0199966,4.4039917-3.5239944,7.9949951-7.8789978,7.9960022
		c-32.7730026,0.0100098-65.5459976,0.0050049-98.3179932,0.0050049c-2.48,0-4.4660001-1.0330048-6.0650001-2.8850098
		c-0.278-0.321991-0.5779999-0.6260071-0.867-0.9379883V200.2104034z"/>
	<path class="st0" d="M69.4726028,20.0785217v1.4430237c0,15.0329895-0.0070038,30.065979,0.0019989,45.0979919
		c0.0099945,18.469986,0.0309982,36.9389954,0.0519943,55.4099884c0.0070038,6.5549927,0.1430054,13.1119995,0.0009995,19.6629944
		c-0.1209946,5.5380096-4.7759933,9.6589966-10.4029922,9.5390015c-5.2560005-0.1109924-9.670002-4.5919952-9.6840019-9.9570007
		c-0.0429993-16.269989-0.0470009-32.5419922-0.0610008-48.8129883c-0.0060005-7.3170013-0.0109978-14.6330109,0.0010033-21.9489899
		c0.0329971-20.1860046,0.0769997-40.3710022,0.112999-60.5570068c0.0089989-5.4360046,4.382-9.8299866,9.9209976-9.9530029
		c0.2400017-0.0050049,0.4799995-0.0010071,0.7200012-0.0010071c84.4380035,0,168.8759918,0,253.3139801,0.0010071
		c5.0380249,0,8.927002,2.7619934,10.1690063,7.3070068c0.2810059,1.026001,0.4030151,2.125,0.4060059,3.1919861
		c0.0279846,11.3540039,0.0169983,22.7090149,0.0169983,34.0620117v1.4429932h1.6220093
		c27.4259949,0,54.8529968,0.0039978,82.2799988-0.0069885c2.5379944-0.0010071,4.776001,0.7380066,6.7369995,2.3639832
		c12.2779846,10.177002,24.5639954,20.3440247,36.8479919,30.5140076
		c11.3280029,9.3799896,22.6400146,18.7799988,33.9970093,28.1259918c2.927002,2.4089966,4.3439941,5.3939972,4.3139954,9.1719971
		c-0.0650024,8.1950073-0.0549927,16.3899994-0.0939941,24.5850067c-0.053009,11.3909912-0.1239929,22.7829895-0.1839905,34.173996
		c-0.0810242,15.1889954-0.1600037,30.3769989-0.2400208,45.5659943
		c-0.0799866,15.1090088-0.1619873,30.2180023-0.2399902,45.3260193c-0.0289917,5.8199768-3.0169983,9.7369995-8.2409973,10.742981
		c-0.6220093,0.1199951-1.2690125,0.1419983-1.9060059,0.1430054c-6.677002,0.0100098-13.3540039,0.0119934-20.0299988,0.0039978
		c-5.2080078-0.0069885-9.5700073-3.8280029-10.0379944-8.7740173c-0.5100098-5.3919678,2.8779907-10.0509644,8.1829834-10.9619751
		c1.7900085-0.3060303,3.6660156-0.1229858,5.5030212-0.1400146c1.7989807-0.0169983,3.5999756-0.0540161,5.3970032,0.0150146
		c0.9709778,0.0379944,1.3239746-0.2250061,1.2999878-1.2540131c-0.0620117-2.6360016-0.0039978-5.276001,0.0029907-7.9149933
		c0.0190125-7.076004,0.0240173-14.151001,0.0559998-21.227005c0.053009-11.7910004,0.1230164-23.5809937,0.184021-35.371994
		c0.0809937-15.6289978,0.1559753-31.2579956,0.2419739-46.8869934c0.0420227-7.553009,0.0810242-15.1060028,0.1860046-22.6590118
		c0.0160217-1.1549988-0.3389893-1.894989-1.223999-2.6269989c-19.3209839-15.9599915-38.6170044-31.9499969-57.9159851-47.9349976
		c-1.723999-1.427002-3.40802-2.9079895-5.1889954-4.2590027c-0.5820007-0.440979-1.4170227-0.7739868-2.1360168-0.7749939
		c-25.9869995-0.0390015-51.973999-0.0249939-77.9609985-0.0569763c-1.1719971-0.0020142-1.4500122,0.3519897-1.4490051,1.4839783
		c0.026001,62.7279968,0.0280151,125.4570007-0.0090027,188.1859894c-0.0010071,1.2940216,0.4309998,1.4980011,1.5720215,1.4889984
		c6.276001-0.0469971,12.5529785-0.0660095,18.8299866-0.0069885c5.1260071,0.0490112,9.0190125,3.7059937,9.7109985,8.9719849
		c0.605011,4.6060181-2.5570068,9.2480164-7.2309875,10.5379944c-0.8370056,0.230011-1.7279968,0.3650208-2.5950012,0.3660278
		c-40.7400208,0.0169983-81.480011,0.0169983-122.2190094,0.0119934c-5.3239899-0.0010071-9.7319946-4.3220215-9.8430023-9.6040039
		c-0.1179962-5.6099854,3.9980011-10.0769958,9.4860077-10.2919922c0.4799957-0.0180054,0.9599915-0.0079956,1.4400024-0.0079956
		h79.1599884h1.743988V20.0785217H69.4726028z"/>
	<path class="st0" d="M343.9553833,143.2441101c0-13.3909912,0.0209961-26.7819977-0.0159912-40.1719971
		c-0.0090027-3.3440094,0.9490051-6.2089996,3.5369873-8.4160004c1.7960205-1.5319977,3.8869934-2.3670044,6.2520142-2.3690033
		c17.2279968-0.0119934,34.4559937-0.0139923,51.6839905,0.0010071c2.4509888,0.0019989,4.6029968,0.8769989,6.4299927,2.522995
		c10.0660095,9.0619965,20.1410217,18.1130066,30.184021,27.1999969c2.1099854,1.9089966,3.1869812,4.3370056,3.1860046,7.230011
		c-0.0050049,18.345993,0.0049744,36.6929932,0.0029907,55.0410004c0,5.4869995-4.4100037,9.8869934-9.9110107,9.8880005
		c-27.1409912,0.0039978-54.2819824,0.0039978-81.4230042,0c-5.2989807-0.0010071-9.7999878-4.1840057-9.848999-9.4380035
		c-0.1069946-11.4710083-0.0619812-22.9430084-0.0769958-34.4140015
		C343.9523926,147.9591064,343.9553833,145.6021118,343.9553833,143.2441101 M363.9364014,174.2651062h1.4289856
		c19.5010071,0,39.0020142-0.0089874,58.5029907,0.0240021c1.131012,0.0010071,1.4880066-0.2740021,1.4840088-1.4499969
		c-0.0419922-12.6269989-0.0320129-25.2550049-0.0109863-37.8829956c0.0019836-0.8220062-0.2120056-1.404007-0.8410034-1.9670105
		c-7.4960022-6.7159882-14.9590149-13.4689941-22.4649963-20.1729889c-0.447998-0.3990021-1.1920166-0.6549988-1.7990112-0.6560059
		c-11.6679993-0.0379944-23.3370056-0.0289917-35.006012-0.026001c-0.42099,0.0010071-0.84198,0.0400085-1.2939758,0.0630035
		V174.2651062z"/>
	<path class="st0" d="M156.1575928,334.5819092c-23.7890015,0.1900024-45.6599884-19.5360107-45.2949905-45.5970154
		c0.3290024-23.6009827,19.9199905-44.3029785,45.5629959-44.3009949
		c24.4589996,0.0020142,44.3569946,20.276001,44.3419952,45.1650085
		C200.752594,314.5328979,180.7556,334.5839233,156.1575928,334.5819092 M156.2196045,264.6459045
		c-13.7960052,0.026001-25.4660034,11.5-25.4450073,25.0180054c0.0189972,13.5429993,11.6990051,25.0159912,25.4600067,25.0099792
		c13.6769867-0.0049744,24.6179962-11.2679749,24.5999908-25.3249817
		C180.8175964,275.835907,169.6416016,264.6209106,156.2196045,264.6459045"/>
	<path class="st0" d="M400.3128967,334.5819092c-24.2700195,0.2070007-45.5890198-20.0310059-45.3690186-45.2869873
		c0.2140198-24.473999,20.6350098-44.7050171,45.6140137-44.5910034
		c24.3160095,0.1109924,44.3089905,19.9119873,44.2969971,44.9539795
		C444.8418884,315.4059143,423.9528809,334.7489014,400.3128967,334.5819092 M400.2919006,264.6459045
		c-13.7840271-0.0019836-25.401001,11.4450073-25.3960266,25.0230103
		c0.0050049,13.5699768,11.6419983,25.0169983,25.4210205,25.0049744
		c13.3670044-0.0099792,24.3759766-11.1679688,24.6049805-24.4899902
		C425.1539001,276.6278992,414.401886,264.6519165,400.2919006,264.6459045"/>
	<path class="st0" d="M52.0028992,158.7514038c15.2629929,0,30.5249939-0.0309906,45.7879944,0.0090027
		c13.7440033,0.0370026,27.4880066,0.1460114,41.2319946,0.2369995c1.4750061,0.0100098,2.9660034-0.019989,4.4210052,0.1800079
		c4.5789948,0.6320038,7.5350037,4.4640045,7.1950073,9.1880035c-0.3090057,4.2949982-4.0390015,7.7999878-8.3910065,7.8079987
		c-6.1129913,0.0110016-12.227005-0.0149994-18.3409958-0.0490112c-8.590004-0.048996-17.1780014-0.1329956-25.7669983-0.1819916
		c-15.7020035-0.0870056-31.4050064-0.1549988-47.1070023-0.2460022c-4.4729996-0.026001-8.9459991-0.098999-13.4189987-0.1589966
		c-4.7029991-0.0619965-8.3199997-3.8010101-8.3069992-8.576004c0.0119991-4.7129974,3.7299995-8.4550018,8.428997-8.4750061
		c2.3979988-0.0089874,4.7960014-0.0019989,7.1940002-0.0019989h7.0730019V158.7514038z"/>
	<path class="st0" d="M69.4726028,257.0248108h1.6189957c6.1940002,0.0010071,12.3880005-0.0289917,18.5810013,0.0110168
		c5.0510025,0.0319824,9.1660004,3.7469788,9.8059998,8.7529907c0.612999,4.8029785-2.4899979,9.446991-7.2480011,10.7600098
		c-0.8730011,0.2419739-1.8069992,0.3649902-2.7129974,0.3669739c-9.9899979,0.0249939-19.9810028,0.0190125-29.9700012,0.0140076
		c-5.6359978-0.0029907-10.0319977-4.394989-10.0369987-10.026001c-0.0099983-12.1879883-0.0169983-24.375-0.0149994-36.5629883
		c0.0009995-5.2450104,4.204998-9.6560059,9.4420013-9.9360046c5.2059975-0.2779999,9.7849998,3.5709991,10.3959923,8.7569885
		c0.0840073,0.7109985,0.1320038,1.4300079,0.1330032,2.1460114c0.0090027,8.0319977,0.0060043,16.0649872,0.0060043,24.095993
		V257.0248108z"/>
</g>
</svg>
