<?xml version="1.0" encoding="utf-8"?>
<!-- Generator: Adobe Illustrator 22.1.0, SVG Export Plug-In . SVG Version: 6.00 Build 0)  -->
<svg version="1.1" id="Слой_1" xmlns="http://www.w3.org/2000/svg" xmlns:xlink="http://www.w3.org/1999/xlink" x="0px" y="0px"
	 viewBox="0 0 421.7650146 357.8859863" style="enable-background:new 0 0 421.7650146 357.8859863;" xml:space="preserve">
<style type="text/css">
	.st0{clip-path:url(#SVGID_2_);fill:none;stroke:#ed1c28;stroke-width:20;stroke-miterlimit:10;}
</style>
<g>
	<defs>
		<rect id="SVGID_1_" width="421.7650146" height="357.8859863"/>
	</defs>
	<clipPath id="SVGID_2_">
		<use xlink:href="#SVGID_1_"  style="overflow:visible;"/>
	</clipPath>
	<path class="st0" d="M183.0415039,179.7840881H37.0005035c-14.9120026,0-27,12.0880127-27,27v114.1020203
		c0,14.9119873,12.0879974,27,27,27h146.0410004c14.9119873,0,27-12.0880127,27-27V206.7840881
		C210.0415039,191.8721008,197.9534912,179.7840881,183.0415039,179.7840881z"/>
	<path class="st0" d="M384.7640991,179.7840881H238.7230988c-14.9120026,0-27,12.0880127-27,27v114.1020203
		c0,14.9119873,12.0879974,27,27,27h146.0410004c14.9119873,0,27-12.0880127,27-27V206.7840881
		C411.7640991,191.8721008,399.6760864,179.7840881,384.7640991,179.7840881z"/>
	<path class="st0" d="M282.9028015,10H136.8618011c-14.9120026,0-27,12.0890198-27,27v114.1029968c0,14.9120026,12.0879974,27,27,27
		h146.0410004c14.9119873,0,27-12.0879974,27-27V37C309.9028015,22.0890198,297.8147888,10,282.9028015,10z"/>
	<polyline class="st0" points="260.4721069,341.1620789 260.4721069,225.1710968 359.6531067,225.1710968 359.6531067,290.7310791
		309.2221069,290.7310791 	"/>
	<path class="st0" d="M254.7601929,66.3515015c-10.5010071-15.3129883-39.4970093-13.6809998-64.7640076,3.6460266
		c-25.2659912,17.3269958-37.2369995,43.7879791-26.7359924,59.0999756
		c10.5019989,15.3139954,39.496994,13.6820068,64.7649994-3.644989
		C253.2911835,108.1245117,265.2621765,81.6645203,254.7601929,66.3515015z"/>
	<path class="st0" d="M102.571701,288.257782c0-11.9299927-9.6710052-21.6009827-21.6010056-21.6009827
		c-11.9279938,0-21.5989952,9.67099-21.5989952,21.6009827c0,11.9290161,9.6710014,21.6000061,21.5989952,21.6000061
		C92.9006958,309.8577881,102.571701,300.1867981,102.571701,288.257782z"/>
	<ellipse class="st0" cx="108.7430038" cy="239.657196" rx="33.9430008" ry="25.4569988"/>
	<path class="st0" d="M105.6567001,288.3426819c0-12.7809753,9.3259964-23.1429749,20.8289948-23.1429749
		s20.8279953,10.3619995,20.8279953,23.1429749c0,12.7820129-9.3249969,23.1440125-20.8279953,23.1440125
		S105.6567001,301.1246948,105.6567001,288.3426819z"/>
</g>
</svg>
