<?xml version="1.0" encoding="utf-8"?>
<!-- Generator: Adobe Illustrator 22.1.0, SVG Export Plug-In . SVG Version: 6.00 Build 0)  -->
<svg version="1.1" id="Слой_1" xmlns="http://www.w3.org/2000/svg" xmlns:xlink="http://www.w3.org/1999/xlink" x="0px" y="0px"
	 viewBox="0 0 213 167.3999939" style="enable-background:new 0 0 213 167.3999939;" xml:space="preserve" fill="#ed1c28">
<path class="st0" d="M93.5999985,165.8999939h24.2999954v-94H93.5999985V165.8999939z M97.5999985,75.8999939h16.2999954v86
	H97.5999985V75.8999939z"/>
<g>
	<defs>
		<rect id="SVGID_1_" width="213" height="167.3999939"/>
	</defs>
	<clipPath id="SVGID_2_">
		<use xlink:href="#SVGID_1_"  style="overflow:visible;"/>
	</clipPath>
	<path class="st1" d="M93.5999985,165.8999939h24.2999954v-94H93.5999985V165.8999939z M97.5999985,75.8999939h16.2999954v86
		H97.5999985V75.8999939z"/>
</g>
<path class="st0" d="M56.9000015,165.8999939h24.2999954V88.7999954H56.9000015V165.8999939z M60.9000015,92.8999939h16.2999954
	v69.1009979H60.9000015V92.8999939z"/>
<g>
	<defs>
		<rect id="SVGID_3_" width="213" height="167.3999939"/>
	</defs>
	<clipPath id="SVGID_4_">
		<use xlink:href="#SVGID_3_"  style="overflow:visible;"/>
	</clipPath>
	<path class="st2" d="M56.9000015,165.8999939h24.2999954V88.7999954H56.9000015V165.8999939z M60.9000015,92.8999939h16.2999954
		v69.1009979H60.9000015V92.8999939z"/>
</g>
<path class="st0" d="M20.2000008,165.8999939H44.5v-37.8990021H20.2000008V165.8999939z M24.2000008,132H40.5v29.8989868H24.2000008
	V132z"/>
<g>
	<defs>
		<rect id="SVGID_5_" width="213" height="167.3999939"/>
	</defs>
	<clipPath id="SVGID_6_">
		<use xlink:href="#SVGID_5_"  style="overflow:visible;"/>
	</clipPath>
	<path class="st3" d="M20.2000008,165.8999939H44.5v-37.8990021H20.2000008V165.8999939z M24.2000008,132H40.5v29.8989868
		H24.2000008V132z"/>
	<path class="st4" d="M169.9001007,79.4000015c-22.9000092,0-41.6000061,18.6999969-41.6000061,41.5999985
		s18.6999969,41.5999908,41.6000061,41.5999908s41.5999908-18.6999969,41.5999908-41.6009979
		C211.5000916,98.0999985,192.8000946,79.4000015,169.9001007,79.4000015 M169.9001007,158.5999908
		c-20.7000122,0-37.6000061-16.8999939-37.6000061-37.5999908s16.8999939-37.5999985,37.6000061-37.5999985
		S207.5000916,100.2999954,207.5000916,121C207.5000916,141.7999878,190.6000977,158.5999908,169.9001007,158.5999908"/>
	<path class="st3" d="M169.9001007,79.4000015c-22.9000092,0-41.6000061,18.6999969-41.6000061,41.5999985
		s18.6999969,41.5999908,41.6000061,41.5999908s41.5999908-18.6999969,41.5999908-41.6009979
		C211.5000916,98.0999985,192.8000946,79.4000015,169.9001007,79.4000015z M169.9001007,158.5999908
		c-20.7000122,0-37.6000061-16.8999939-37.6000061-37.5999908s16.8999939-37.5999985,37.6000061-37.5999985
		S207.5000916,100.2999954,207.5000916,121C207.5000916,141.7999878,190.6000977,158.5999908,169.9001007,158.5999908z"/>
	<path class="st4" d="M177.3005066,93.8995972h-14c-0.3010101,0-0.5,0.1009979-0.7000122,0.1009979
		c-1.1009979,0-1.901001,0.8990021-1.901001,2v22.6989975h-10.6999969c-1.098999,0-2,0.9000015-2,2c0,1.1010056,0.901001,2,2,2
		h10.6009979v5.9999924h-10.6009979c-1.098999,0-2,0.9000092-2,2c0,1.1010132,0.901001,2,2,2h10.6009979v17.5
		c0,1.1010132,0.8990021,2,2,2c1.098999,0,2-0.8989868,2-2v-17.5h15.098999c1.1010132,0,2-0.8989868,2-2
		c0-1.0999908-0.8989868-2-2-2h-15.098999v-5.9999924h12.7000122c8,0,14.3989868-6.5,14.3989868-14.3989944
		C191.8005066,100.3005981,185.3005066,93.8995972,177.3005066,93.8995972 M177.3005066,118.6995926h-12.7000122V97.8995972
		h12.7000122c5.6989899,0,10.3989868,4.6999969,10.3989868,10.401001
		C187.8005066,114.0005951,183.1004944,118.6995926,177.3005066,118.6995926"/>
	<path class="st3" d="M177.3005066,93.8995972h-14c-0.3010101,0-0.5,0.1009979-0.7000122,0.1009979
		c-1.1009979,0-1.901001,0.8990021-1.901001,2v22.6989975h-10.6999969c-1.098999,0-2,0.9000015-2,2c0,1.1010056,0.901001,2,2,2
		h10.6009979v5.9999924h-10.6009979c-1.098999,0-2,0.9000092-2,2c0,1.1010132,0.901001,2,2,2h10.6009979v17.5
		c0,1.1010132,0.8990021,2,2,2c1.098999,0,2-0.8989868,2-2v-17.5h15.098999c1.1010132,0,2-0.8989868,2-2
		c0-1.0999908-0.8989868-2-2-2h-15.098999v-5.9999924h12.7000122c8,0,14.3989868-6.5,14.3989868-14.3989944
		C191.8005066,100.3005981,185.3005066,93.8995972,177.3005066,93.8995972z M177.3005066,118.6995926h-12.7000122V97.8995972
		h12.7000122c5.6989899,0,10.3989868,4.6999969,10.3989868,10.401001
		C187.8005066,114.0005951,183.1004944,118.6995926,177.3005066,118.6995926z"/>
	<path class="st4" d="M120.9001007,60.5999908L161.0000916,9l0.5,9.3999939c0.1000061,1.1000061,0.9000092,1.9000092,2,1.9000092
		h0.1000061c1.0999908-0.1000061,2-1,1.8999939-2.1000061l-0.6999969-14.8000031
		c-0.1000061-1.0999908-1-1.8999939-2.1000061-1.8999939l-15.5,0.6999969c-1.0999908,0.1000061-2,1-1.8999939,2.1000061
		c0.1000061,1.0999908,1,2,2.1000061,1.8999939l11.1999969-0.5l-39.6999969,51.0999985l-36.5-22.4000015
		c-0.5-0.3000031-1-0.3999939-1.5-0.1999969c-0.5,0.1000061-1,0.5-1.2000046,0.8999939L58.7000999,69.8999939L34.9001007,80.9999924
		c-0.5,0.2000046-0.9000015,0.7000046-1.0999985,1.3000031l-8.8000031,30.0999985l-21.5,0.2999954c-1.0999985,0-2,0.9000015-2,2
		s0.9000015,2,2,2l23-0.2999954c0.9000015,0,1.5999985-0.6000061,1.9000015-1.4000015l9-30.6999969l23.5-10.9000015
		c0.4000015-0.1999969,0.7000008-0.4000015,0.9000015-0.8000031l20.1999969-33.6999969l36.2999954,22.3000031
		C119.2000961,61.6999969,120.3000946,61.3999939,120.9001007,60.5999908"/>
	<path class="st3" d="M120.9001007,60.5999908L161.0000916,9l0.5,9.3999939c0.1000061,1.1000061,0.9000092,1.9000092,2,1.9000092
		h0.1000061c1.0999908-0.1000061,2-1,1.8999939-2.1000061l-0.6999969-14.8000031
		c-0.1000061-1.0999908-1-1.8999939-2.1000061-1.8999939l-15.5,0.6999969c-1.0999908,0.1000061-2,1-1.8999939,2.1000061
		c0.1000061,1.0999908,1,2,2.1000061,1.8999939l11.1999969-0.5l-39.6999969,51.0999985l-36.5-22.4000015
		c-0.5-0.3000031-1-0.3999939-1.5-0.1999969c-0.5,0.1000061-1,0.5-1.2000046,0.8999939L58.7000999,69.8999939L34.9001007,80.9999924
		c-0.5,0.2000046-0.9000015,0.7000046-1.0999985,1.3000031l-8.8000031,30.0999985l-21.5,0.2999954c-1.0999985,0-2,0.9000015-2,2
		s0.9000015,2,2,2l23-0.2999954c0.9000015,0,1.5999985-0.6000061,1.9000015-1.4000015l9-30.6999969l23.5-10.9000015
		c0.4000015-0.1999969,0.7000008-0.4000015,0.9000015-0.8000031l20.1999969-33.6999969l36.2999954,22.3000031
		C119.2000961,61.6999969,120.3000946,61.3999939,120.9001007,60.5999908z"/>
</g>
</svg>
