<?xml version="1.0" encoding="utf-8"?>
<!-- Generator: Adobe Illustrator 22.1.0, SVG Export Plug-In . SVG Version: 6.00 Build 0)  -->
<svg version="1.1" id="Слой_1" xmlns="http://www.w3.org/2000/svg" xmlns:xlink="http://www.w3.org/1999/xlink" x="0px" y="0px"
	 viewBox="0 0 160.0209961 94.6777039" style="enable-background:new 0 0 160.0209961 94.6777039;" xml:space="preserve" fill="#ed1c28">
<g>
	<defs>
		<rect id="SVGID_1_" y="-0.0002975" width="160.0209961" height="94.6780014"/>
	</defs>
	<clipPath id="SVGID_2_">
		<use xlink:href="#SVGID_1_"  style="overflow:visible;"/>
	</clipPath>
	<path class="st0" d="M159.7931824,49.4783058L159.7931824,49.4783058c-0.1009979-0.5-0.1999969-1-0.401001-1.401001
		l-1.3989868-5.098999c-0.9000092-3.5-1.8010101-6.901001-2.8010101-10.401001
		c-1.1989899-4.2989998-2.3000031-8.7000008-3.5-12.9999962l-2.3000031-8.6000061
		c-0.598999-2.1989975-1.1999969-4.3999939-1.798996-6.5999985c-0.5999908-2.098999-1.901001-3.1999969-2.901001-3.6999969
		c-1.3990021-0.7000046-3-0.8990021-4.598999-0.3990021c-2.701004,0.8990021-5.901001,1.8990021-9.0999908,2.8990021
		c-2.2000122,0.6999969-3.6010056,2.1999969-4.1010056,4.1009979c-1.298996,0.2990036-2.598999,0.598999-3.8989944,0.8990021
		c-3,0.6999969-5.8010025,1.2999954-8.8010025,2c-3.3000031,0.9000015-6.8990021,1.2999954-11,1.2999954
		c-2.098999,0-4.098999-0.1989975-6.3000031-0.3999939c-0.8989944-0.1000061-1.8989944-0.2000046-2.8989944-0.2000046
		c-0.8010025-0.098999-1.6010056-0.098999-2.4000015-0.1999969h-0.201004c-1.9999924-0.0999985-4.0989914-0.3000031-6.0989914-0.5
		c-0.8000031-0.0999985-1.5-0.2000046-2.3000031-0.2000046c-0.1009979-0.6989975-0.5-1.3999939-1.1999969-1.6989975
		l-3.901001-1.7009964c-0.7000046-0.2990036-1.2990036-0.6000061-1.8990021-0.7990036l-0.1999969-0.1009979
		c-1.5-0.5999985-3-1.3000031-4.3000031-1.8990021c-2.6009979-1.2009964-5.1999969-1.401001-8-0.7009964
		c-4,1.0999985-7.5,2.5999985-11.6999969,4.7009964c-3.7000046,1.7990036-7.401001,3.7990036-10.901001,5.6989975
		l-2.598999,1.4000015c-2,1-4,2.2000046-6.3000031,3.401001l0.6989975-2.3010025
		c1.1010056-3.6989975-0.5-6.6989975-4.1989975-7.8999939c-2.8999939-0.9000015-5.8009949-1.9000015-8.8009949-2.7990036
		c-1.6990051-0.5-3.3000031-0.401001-4.6990051,0.2990036c-0.8999939,0.5-2.1999969,1.5999985-2.8009949,3.7009964
		c-1.3000031,4.598999-2.598999,9.2990036-3.8000031,13.7990036l-2,7.9009972
		c-0.798996,2.8989983-1.598999,5.6989975-2.3990021,8.598999c-0.5,1.7999992-1,3.5-1.5,5.2999992
		c-0.6999969,2.6010017-1.5,5.401001-2.1999969,8c-1,3.7000008,0.598999,6.6010017,4.1999969,7.7000008
		c1.3990021,0.401001,2.6990051,0.901001,4.1000061,1.2999992c1,0.2999992,1.8999939,0.6010017,2.8999939,0.901001
		c0.5,0.1999969,1,0.298996,1.3990021,0.3989983l0.701004,0.2000008c0.1999969,0,0.298996,0.1009979,0.5,0.1009979h0.298996
		c2.8000031,0,4.901001-1.6009979,5.8000031-4.1999969c0.5-1.7010002,1.1009979-3.5,1.6009979-5.2999992
		c0.098999-0.2000008,0.098999-0.401001,0.1999969-0.6010017c0.3000031,0.2000008,0.5,0.2999992,0.6990051,0.401001
		c-1,1.3989983-1.5,3-1.5,4.7000008c0,2.098999,0.8009949,4.098999,2.3009949,5.5989952
		c1.3990021,1.401001,3.3000031,2.201004,5.3000031,2.3000031c-1.2000046,3-0.5,6.5,1.7999954,8.8000031
		c1.5,1.5,3.4000015,2.3009949,5.2990036,2.3999939c-1.3990021,3.1000061-0.7990036,6.901001,1.7009964,9.401001
		c1.598999,1.598999,3.7990036,2.5,6,2.5c2,0,3.9000015-0.6999969,5.5-2.1009979c0.2000046,1.8000031,1,3.5,2.4000015,4.901001
		c1.5999985,1.598999,3.5999985,2.3990021,5.8000031,2.3990021c2.1999969,0,4.2999954-0.8990021,5.7999954-2.3990021
		l2.7000046-2.701004c0.6999969,0.6000061,1.598999,1.401001,2.6999969,2
		c2.8000031,1.6000061,5.5999985,2.3000031,8.3990021,2.3000031c0.7999954,0,1.6009979-0.098999,2.2999954-0.1999969
		c3.2000046-0.5,5.8010025-1.8990021,8-4.3990021l0.5-0.6009979h1.3010025h0.3000031
		C93.5931931,88.478302,97.29319,86.3773041,99.79319,82.478302l0.598999-1c0.1010056,0,0.201004-0.1009979,0.3010025-0.1009979
		c5.8000031-1.8990021,9.5-5.6999969,10.6989975-11.098999c0-0.201004,0.1010056-0.401001,0.1010056-0.6009979
		c0.0999985,0,0.2999954-0.1000061,0.3989944-0.1000061c3-1.1999969,5.401001-3,7.3010025-5.1999969
		c1.5-1.7999992,2.5999985-3.8989983,3.3000031-6.5l0.7999954-2.8989983v-0.1010017
		c0.5-0.3989983,0.9000015-0.7000008,1.3000031-0.8989983c1.0999985-0.6010017,2.298996-1.1010017,3.4999924-1.6010017
		c0.798996-0.2999992,1.5-0.7000008,2.298996-1c1.6010132-0.7999992,3.3010101-1.5,4.901001-2.2999992l1.5-0.7000008
		l1.8000031,6.901001c0.6999969,2.7989998,3,4.5,6,4.5h0.1000061h0.0999908c0.5,0,0.9000092-0.1010017,1.3000031-0.2010002
		l1.298996-0.4000015c2.5-0.6989975,5.201004-1.3989983,7.701004-2.0999985
		C158.8921814,56.0773048,160.6921844,52.8773041,159.7931824,49.4783058 M16.3921967,58.0773048
		c-0.298996,0.901001-0.8990021,1.401001-2,1.401001l-0.5-0.1010017c-0.3990021-0.098999-0.798996-0.2000008-1.298996-0.3989983
		c-1-0.3010025-1.901001-0.6010017-2.901001-0.901001c-1.3000031-0.4000015-2.6990051-0.9000015-4.098999-1.2989998
		c-1.6000061-0.5-2-1.2010002-1.5-2.7999992c0.6999969-2.7000008,1.5-5.401001,2.1999969-8c0.5-1.8010025,1-3.5,1.5-5.3010025
		c0.8000031-2.8989983,1.598999-5.6989975,2.3990021-8.5999985l2.1999969-7.8999977
		c1.201004-4.5,2.5-9.0999985,3.8000031-13.8000031c0.1999969-0.598999,0.401001-1,0.8009949-1.1999969
		c0.1000061-0.0999985,0.6000061-0.3000031,1.6000061,0c3,0.9000015,5.798996,1.9000015,8.6999969,2.7999954
		c1.6999969,0.5,2.098999,1.3010025,1.598999,2.9000015l-1.7990036,6.5999985
		c-0.5999985,0.6000061-0.9999924,1.4000015-1.2009964,2.2000046c-1.598999,5.5-3.1999969,10.9999962-4.598999,15.8009987
		c-0.5,1.8989983-1.1009979,3.7999992-1.6009979,5.598999l-1.098999,3.901001c-0.1000061,0.5-0.1000061,1,0.1999969,1.5
		c-0.1999969,0.7999992-0.5,1.598999-0.6999969,2.3989983C17.4931946,54.5773048,16.8921967,56.3773041,16.3921967,58.0773048
		 M25.8921967,61.6773033c-0.8990021-0.8989983-1.298996-2-1.298996-3.1989975c0-1.2000008,0.5-2.3010025,1.298996-3.2000008
		l5.7999954-5.7999992c0.901001-0.901001,2-1.3010025,3.2000046-1.3010025c1.2009964,0,2.2999954,0.4000015,3.2009964,1.3010025
		c1.7990036,1.7999992,1.7990036,4.598999,0,6.3989983l-5.7999954,5.7999992c-0.901001,0.9000015-2,1.3009987-3.2000046,1.3009987
		C27.8921967,62.978302,26.7931976,62.4783058,25.8921967,61.6773033 M33.4931946,66.3773041l10.8000031-10.7999992
		c0.7999954-0.7989998,1.8989944-1.2000008,3-1.2000008c1.098999,0,2.1999969,0.401001,3,1.2000008
		c1.6999969,1.7010002,1.6999969,4.401001,0,6L39.4931946,72.478302c-1.6999969,1.6990051-4.4000015,1.6990051-6,0
		C31.7931976,70.7783051,31.7931976,68.077301,33.4931946,66.3773041 M40.7931976,83.978302
		c-1.6010056-1.6009979-1.6010056-4.1009979,0-5.6999969l15.098999-15.1010017c1.6009979-1.5999985,4.1009979-1.5999985,5.7009964,0
		c1.598999,1.6010017,1.598999,4.1010017,0,5.7000008L46.4931946,83.978302
		C44.9931946,85.577301,42.3921967,85.577301,40.7931976,83.978302 M60.3921967,89.577301
		c-0.7990036,0.8000031-1.8990021,1.201004-3,1.201004c-1.098999,0-2.2000046-0.401001-3-1.201004
		c-1.7000046-1.6999969-1.7000046-4.3999939,0-6l10.7999954-10.798996c0.8010025-0.8000031,1.901001-1.201004,3-1.201004
		c1.1010056,0,2.2000046,0.401001,3,1.201004c0.8010025,0.798996,1.2000046,1.8990021,1.2000046,3
		c0,1.098999-0.3990021,2.1999969-1.2000046,3L60.3921967,89.577301z M116.4931946,61.8773041
		c-1.5,1.6999969-3.4000015,3.1009979-5.8010025,4.1009979c-0.098999,0.098999-0.3990021,0.098999-0.6989975,0
		c-0.7000046-0.1999969-1.5,0.098999-2,0.6990051c-0.5,0.6009979-0.6010056,1.3999939-0.3010025,2.1009979
		c0.1009979,0.298996,0.1999969,0.598999,0.1009979,0.798996c-0.901001,4.1000061-3.6009979,6.701004-8,8.201004h-0.2999954
		c-0.9000015-0.201004-1.8010025,0.298996-2.2000046,1.098999c-0.1009979,0.3000031-0.1999969,0.6009979-0.1999969,0.901001
		l-0.401001,0.6999969c-1.8990021,2.8990021-4.3000031,4.3000031-7.2999954,4.3990021h-0.3990021
		c-0.4000015,0-0.9000015,0.1009979-1.3010025,0h-0.098999c-0.7009964-0.1999969-1.5,0.1009979-2,0.6009979l-1.2009964,1.3990021
		c-1.598999,1.8000031-3.2990036,2.6999969-5.5,3.1009979c-2.7000046,0.3990021-5.3990021-0.1009979-8.2000046-1.6999969
		c-0.598999-0.401001-1.1989975-0.8000031-1.7999954-1.3000031l5.2009964-5.1999969
		c1.598999-1.6009979,2.4000015-3.6009979,2.4000015-5.8000031c0-2.1999969-0.9000015-4.3009949-2.4000015-5.8009949
		c-1.901001-1.8990021-4.5-2.6990051-7-2.3000031c0.5-2.6999969-0.2999954-5.5-2.2999954-7.598999
		c-2.5-2.5-6.2000046-3.1010017-9.2000046-1.7999992c-0.0999985-2-0.901001-3.901001-2.401001-5.401001
		c-2.7999954-2.7989998-7.098999-3.2000008-10.2999954-1.098999c-0.2000046-1.7000008-1-3.401001-2.2990036-4.7000008
		c-3.0999985-3.1010017-8.2009964-3.1010017-11.2999954,0l-3.8000031,3.7989998c-0.3009949-0.2000008-0.5-0.4000015-0.8009949-0.5
		c-0.1990051-0.098999-0.3000031-0.2000008-0.6990051-0.5l-0.8999939-0.7000008c0.798996-2.7000008,1.5-5.2999992,2.298996-8
		l5.1009979-17.4000015c3.6989975-2.0999985,6.8000031-3.6989975,9.8000031-5.2999954l2.598999-1.3990021
		c3.5-1.901001,7.2009964-3.8010025,10.7999954-5.6009979c3.901001-1.8990021,7.3010025-3.3990021,10.901001-4.3990021
		c1.7990036-0.5,3.5-0.3010025,5.2000046,0.5c1.5,0.6989975,2.8989944,1.2990036,4.5,2l0.1999969,0.098999
		c0.5,0.2000046,1,0.401001,1.3990021,0.5999985h-0.2000046c-1.2999954,0.2000046-3.1989975,0.7000046-4.7999954,1.9000015
		c-2,1.5-4,3.0999985-6,4.5999985c-1.7000046,1.4000015-3.5,2.8010025-5.2990036,4.1000061
		c-3.2999954,2.5-5.0999985,5.3999939-5.5,9c-0.0999985,0.7009964-0.2009964,1.4009972-0.401001,2.2009964l-0.1989975,1
		c-0.1999969,0.8989983-0.3010025,1.8989983-0.5,2.7989998c-0.4000015,2.401001-0.9000015,4.901001-1.4000015,7.2999992
		c-0.401001,1.7000008,0,3.401001,0.9000015,4.7000008c1,1.2999992,2.5,2.2010002,4.3000031,2.2999992
		c5.8989944,0.6010017,10.8989944-1.7999992,14.098999-6.7999992c1-1.598999,1.901001-3.2000008,2.7009964-4.7989998
		c0.4000015-0.901001,0.9000015-1.7010002,1.4000015-2.6010017c2.0999985-1.0999985,4.3000031-2.2999992,7.0999985-3.6989975
		c5.2990036,4,10.5,8,16.598999,12.598999c2.401001,1.7999992,4.6999969,3.5999985,7.1009979,5.401001l7.098999,5.3989983
		c1.6010056,1.2000008,3.1010056,1.7999992,4.701004,1.7999992c0.4000015,0,0.798996,0,1.098999-0.0999985
		C118.29319,59.0773048,117.4931946,60.5773048,116.4931946,61.8773041 M135.8921814,44.4783058l-1.8989868,0.8989983
		c-1.6010132,0.7000008-3.2000122,1.5-4.9000092,2.2999992c-0.701004,0.3010025-1.4999924,0.7000008-2.2009964,1
		c-1.298996,0.6010017-2.5,1.1010017-3.6999969,1.7000008c-0.6989975,0.2999992-1.3000031,0.7999992-2,1.2999992
		c-0.3000031,0.2000008-0.6989975,0.5-1,0.7000008c-0.098999,0.1010017-0.1989975,0.1010017-0.3000031,0.2000008
		l-1.3989944,0.0999985c-0.7000046,0.1010017-1.2000046-0.0999985-1.7000046-0.5l-16.5-12.2999992
		c-4.7999954-3.598999-9.7999954-7.2999992-14.6999969-11c-1.7999954-1.4000015-3.9000015-1.5-5.9000015-0.4000015
		c-0.8999939,0.5-1.6999969,0.9000015-2.5999985,1.4000015l-0.2009964,0.1010056
		c-1.1990051,0.598999-2.3990021,1.2999954-3.598999,1.8989944c-1,0.6010017-1.901001,1.401001-2.5,2.5
		c-0.401001,0.7000008-0.7000046,1.5-1.1000061,2.2000008c-0.3009949,0.5999985-0.5999985,1.2010002-0.8999939,1.7999992
		c-1.901001,3.7000008-4.1000061,5.7999992-6.901001,6.7999992c-2.098999,0.7000008-3.598999,0.8010025-5,0.2000008
		c-0.5-0.2000008-0.5-0.7000008-0.5-0.7000008c0.1009979-1,0.3009949-2,0.6009979-3.0999985
		c0.0999985-0.598999,0.3000031-1.2989998,0.3990021-2c0.2009964-1.2989998,0.5-2.5,0.7009964-3.7989998
		c0.2990036-1.901001,0.7000046-3.7999992,1.0999985-5.7009964c0.4000015-2,1-3.2990036,2-4.1000061
		c2.3000031-1.8999939,4.8000031-3.7999954,7.1990051-5.6989975c1.6009979-1.2009964,3.3009949-2.5,4.901001-3.8010025
		c1.5-1.1989975,2.2999954-1.5999985,3-1.6989975c1.1999969-0.1009979,2-0.6009979,2.2999954-0.8010025l0.2000046-0.0999985
		c2.098999-0.098999,4.2999954,0.0999985,6.3999939,0.3000031c2.1000061,0.1999969,4.1990051,0.4000015,6.3000031,0.5h0.1989975
		c0.8010025,0,1.6009979,0.1009979,2.3010025,0.1999969c1,0.0999985,1.8989944,0.0999985,2.8989944,0.2000046
		c2.3000031,0.2009964,4.401001,0.3999939,6.6010056,0.3999939c4.3989944,0,8.2999954-0.5,11.8989944-1.3999939
		c2.8000031-0.7000046,5.6010056-1.4000015,8.6010056-2c1.0999985-0.2000046,2.1989975-0.5,3.2999954-0.7000046
		c0.2000046,0.7000046,0.3990021,1.5,0.598999,2.2000046l0.1010056,0.2999954c0.1999969,0.901001,0.5,1.7000046,0.6999969,2.5999985
		c2.1989899,8.2000046,4.3999939,16.5010033,6.5999908,24.7000008l0.9000092,3.3010025H135.8921814z M154.4931946,53.1773033
		c-2.6010132,0.7000008-5.2000122,1.4000015-7.8010101,2.1010017l-1.1989899,0.2989998h-0.4000092
		c-1.0999908,0-1.8000031-0.5-2.0999908-1.5l-2.5-9.2000008c0.2999878-0.8989983,0.2999878-2,0-3.098999
		c-0.4000092-1.2010002-0.7000122-2.401001-1-3.6010017c-0.2000122-0.5999985-0.3010101-1.1989975-0.5-1.7999992
		l-7.6010132-28.1999969c-0.098999-0.2000046-0.098999-0.3990021-0.1999969-0.5
		c0.1999969-0.3000031,0.6009979-0.5999985,1.1999969-0.8000031c3.201004-1,6.401001-2.098999,9.1010132-2.9000015
		c0.1989899-0.0999985,0.5-0.0999985,0.6989899-0.0999985c0.3010101,0,0.6009979,0.0999985,0.8010101,0.2000046
		c0.5,0.2009964,0.7999878,0.7009964,0.8989868,1.2999954c0.6010132,2.2000046,1.201004,4.401001,1.8000031,6.5999985
		l2.3010101,8.6000061c1.1989899,4.2999954,2.2999878,8.7009964,3.5,12.9999962
		c0.8989868,3.401001,1.8989868,6.901001,2.7999878,10.2999992l1.3990021,5.1010017
		c0.1009979,0.5,0.1999969,0.8989983,0.401001,1.3989983C156.2931824,51.7783051,155.6921844,52.8773041,154.4931946,53.1773033"/>
	<path class="st0" d="M10.6921997,48.6775055c-2.099,0-4.1989994,1.5999985-4.1989994,4.1999969
		c0,1.1010017,0.3989997,2.1010017,1.1989999,2.9000015c0.8010001,0.7999992,1.8010001,1.2010002,2.9009995,1.2010002
		c2.2989998,0,3.9000006-1.5,4-3.901001v-0.098999c0-1.2010002-0.5-2.3009987-1.3000002-3.2010002
		C12.4932003,49.0775032,11.5931997,48.6775055,10.6921997,48.6775055 M10.4932003,52.8775024v-0.1999969
		c0,0.0999985,0.0999994,0.0999985,0.0999994,0.1999969H10.4932003z"/>
</g>
</svg>
