<?xml version="1.0" encoding="utf-8"?>
<!-- Generator: Adobe Illustrator 22.1.0, SVG Export Plug-In . SVG Version: 6.00 Build 0)  -->
<svg version="1.1" id="Слой_1" xmlns="http://www.w3.org/2000/svg" xmlns:xlink="http://www.w3.org/1999/xlink" x="0px" y="0px"
	 viewBox="0 0 115.8496628 176.4691315" style="enable-background:new 0 0 115.8496628 176.4691315;" xml:space="preserve">
<style type="text/css">
	.st0{fill:#ed1c28;}
	.st1{fill:none;stroke:#ed1c28;stroke-width:6;stroke-miterlimit:10;}
</style>
<path class="st0" d="M59.9793167,21.7310181c-19.3929214-0.5239925-35.6139183,14.843586-36.1379089,34.2365074
	C23.3174152,75.3604431,38.6848946,91.5814362,58.077816,92.1054306s35.6139183-14.8435898,36.1379051-34.2364082
	C94.8396759,38.4787025,79.4721985,22.2577114,59.9793167,21.7310181z M58.2128639,87.107254
	C41.518959,86.656189,28.3885174,72.7964783,28.8395824,56.1025734S43.1503563,26.2782269,59.844265,26.7292938
	c16.6939049,0.4510651,29.8243446,14.3107719,29.3732796,31.0046806
	C88.8691483,74.330513,74.9067688,87.5583191,58.2128639,87.107254z"/>
<path class="st0" d="M74.0499954,41.518383c-1.8993073-0.0513191-3.7175598,0.5997086-5.0548935,1.9640846L55.956707,55.8348083
	l-6.3220634-6.6731911c-1.2644119-1.3346405-3.0421486-2.1829643-4.9414558-2.2342834s-3.717556,0.5998077-5.0548973,1.9641838
	c-1.3346367,1.2644119-2.1829643,3.0421486-2.2342834,4.941452c-0.0513153,1.8993073,0.5998116,3.7175598,1.9641876,5.0548973
	l12.6441269,13.346386c0.8753624,0.9239807,2.1586838,1.558876,3.4582062,1.5939865
	c1.2995262,0.0351105,2.6125565-0.4295959,3.539238-1.4049225L78.6186905,53.84618
	c1.3346329-1.2644119,2.1829605-3.0421486,2.2342834-4.941452c0.0513153-1.8993073-0.5998154-3.7174606-1.9641876-5.0548973
	C77.7270355,42.4179268,75.9493027,41.5697021,74.0499954,41.518383z M75.3171616,50.1556625L55.7082443,68.7328033
	l-12.6441307-13.346386c-0.7780991-0.8213158-0.7429848-2.120842,0.078331-2.898941
	c0.410656-0.3890495,0.9158783-0.5754738,1.5156593-0.559269c0.599781,0.0162086,1.0941963,0.229641,1.4832458,0.6402969
	l9.7262535,10.2664528l16.631649-15.7565308c0.4106598-0.3890495,0.9158783-0.57547,1.5156555-0.5592651
	c0.4998169,0.013504,1.0942001,0.2296371,1.4832458,0.6402969C76.1735916,48.0781364,76.1384811,49.3775597,75.3171616,50.1556625z"
	/>
<path class="st0" d="M111.957962,67.6517105c0.4646835-2.3883209,3.7202301-4.401123,3.8850174-6.7975464
	s-2.7719955-4.776516-2.9043961-7.2810059c-0.1351013-2.4046249,2.4396133-5.1359787,2.0046158-7.5486069
	c-0.4349899-2.412632-3.8932037-4.0066185-4.7334518-6.2301254c-0.737587-2.3207664,1.053627-5.6736107,0.0107498-7.8025551
	c-1.0401764-2.2289085-4.8252869-2.8313637-6.1707535-4.8684483s-0.4458237-5.7142258-2.0965881-7.5593853
	c-1.5507965-1.8425598-5.362915-1.4453793-7.2190018-3.0962143c-1.8560944-1.6506357-1.9533844-5.454751-3.9175415-6.8082972
	c-0.6862335-0.5187244-1.6831741-0.6456976-2.6828079-0.6727076c-0.8996735-0.0243092-1.8020401,0.0513458-2.7017136,0.0270367
	s-1.6966782-0.1458797-2.3883209-0.4646778c-2.1721878-1.0590568-3.2745132-4.690155-5.552063-5.5519857
	c-0.2971954-0.1080666-0.6970444-0.1188705-0.9969406-0.1269734c-1.8993073-0.0513189-4.2335739,1.1860838-6.1328812,1.1347651
	c-0.1999283-0.0054021-0.3998566-0.0108039-0.597084-0.1161695c-2.3883209-0.4646778-4.401123-3.7202311-6.7975464-3.8850183
	l-0.0999641-0.002701c-2.3991241-0.0648238-4.7766113,2.7719953-7.1811371,2.9070985
	c-0.0999641-0.002701-0.1999283-0.0054018-0.2998924-0.0081029c-2.0992317-0.056721-4.4470406-2.0208514-6.5462723-2.0775723
	c-0.1999283-0.005402-0.4998169-0.013505-0.702446,0.0810566c-2.4126282,0.4349937-4.0066147,3.8932018-6.2301216,4.7334518
	c-0.5052223,0.1864219-1.0050392,0.1729169-1.6048203,0.1567111c-1.3994865-0.0378137-2.988102-0.4808836-4.3875885-0.5186977
	c-0.6997452-0.0189066-1.302227,0.0648508-1.9101105,0.3485355c-2.2289104,1.0401769-2.8313656,4.8252854-4.8684483,6.1707549
	s-5.7141266,0.4458246-7.5593872,2.0965862c-1.8425598,1.5507984-1.4453793,5.362916-3.0961151,7.2190084
	c-1.6507339,1.8560905-5.4547501,1.9533787-6.8082952,3.9175377s-0.0512915,5.6006565-1.1103487,7.7728462
	c-1.0590572,2.172184-4.6901555,3.2745132-5.5519862,5.5520668c-0.7618675,2.2802505,1.4535627,5.4412422,0.8916221,7.7268982
	c-0.4646778,2.3883209-3.7202311,4.401123-3.8850183,6.7975464s2.7719955,4.7766151,2.9043975,7.281105
	c0.1351032,2.4045258-2.4396122,5.1359825-2.0046184,7.5486031c0.4349937,2.4126358,3.8932021,4.0066223,4.7334518,6.2301254
	c0.7375855,2.3207703-1.053628,5.6736145-0.0107503,7.8025589c1.0401773,2.2289047,4.8252859,2.8313599,6.1707554,4.8684464
	s0.4458246,5.7141266,2.0965862,7.5593872c1.5507975,1.8425598,5.362916,1.4453812,7.2190084,3.0961151
	c1.8560905,1.6507339,1.9533787,5.4547501,3.9175377,6.8082962c0.6862392,0.5187225,1.6831722,0.6456985,2.6828079,0.6727066
	c0.8996716,0.0243073,1.8020439-0.0513458,2.7017174-0.0270386c0.8996696,0.0243073,1.6966782,0.1458817,2.3883209,0.4646759
	c2.172184,1.0590591,3.2745132,4.690155,5.5520668,5.5519867c0.2971878,0.1080704,0.6970406,0.1188736,0.996933,0.126976
	c1.8993073,0.0513229,4.2335815-1.1860809,6.132885-1.1347656c0.1999283,0.0054016,0.3998566,0.0108032,0.5970802,0.1161728
	c0.8942719,0.2242355,1.7804375,0.7483597,2.6612015,1.4724121c1.3724785,1.0374527,2.6368942,2.3720856,4.1363449,2.4126053
	l0.0999641,0.0027008c2.3991241,0.0648193,4.7766151-2.7719955,7.1811409-2.9070969
	c0.0999641,0.0027008,0.1999283,0.0054016,0.2998886,0.0081024c2.0992317,0.0567169,4.4470406,2.0208511,6.5462761,2.0775681
	c0.1999283,0.0054016,0.4998169,0.013504,0.702446-0.0810547c2.2126999-0.4403992,3.7931824-3.3987885,5.8221664-4.4443665
	c0.2026291-0.0945587,0.3052902-0.1918259,0.5052185-0.1864243c0.5052185-0.1864166,1.0050354-0.1729126,1.6048203-0.1567078
	c1.3994827,0.0378113,2.9880981,0.4808807,4.3875885,0.5186996c0.6997452,0.0189056,1.3022232-0.0648499,1.9101105-0.3485413
	c2.2289047-1.0401764,2.8313599-4.8252792,4.8684464-6.1707535c2.0370865-1.3454666,5.7141266-0.4458237,7.5593872-2.0965805
	c1.8425598-1.5508041,1.4453812-5.3629227,3.0961151-7.2190094c1.6507339-1.8560944,5.4546509-1.9533844,6.808197-3.9175415
	c1.3536453-1.9641571,0.0512924-5.6006622,1.1103439-7.77285c1.0590591-2.1721878,4.690155-3.2745132,5.5519867-5.552063
	C113.7087173,73.2010193,111.4932861,70.0401306,111.957962,67.6517105z M110.0288925,61.297287
	c-1.137413,1.3697777-2.4828568,3.0340424-2.9448318,5.322403c-0.4619827,2.2884521,0.0810852,4.4037933,0.6349487,6.1193771
	c0.0918579,0.3025894,0.1837234,0.6051865,0.2728806,1.0077362c-0.3052902,0.1918259-0.6105881,0.3836517-0.815918,0.5781784
	c-1.4291992,1.0617828-3.1636887,2.3153915-4.220047,4.3876114c-1.0590591,2.1721878-1.0158157,4.2741241-0.9644699,6.0761719
	c-0.0081024,0.2998886-0.0189056,0.6997452-0.0270081,0.9996338c-0.3025894,0.0918579-0.7078476,0.280983-0.9104767,0.3755417
	c-1.6183243,0.6565323-3.6391983,1.4022217-5.1872711,3.1610489c-1.5480728,1.7589264-2.1046066,3.8445587-2.5503845,5.5332336
	c-0.1080627,0.2971878-0.118866,0.6970444-0.2269363,0.9942322c-0.3025894,0.0918579-0.702446,0.0810547-1.0023346,0.0729523
	c-1.7047806,0.1540146-3.9120789,0.3944778-5.849205,1.7426529c-1.9371109,1.3480682-2.9880676,3.2204666-3.8282928,4.6983109
	c-0.1080704,0.2971878-0.3161011,0.5916748-0.5241241,0.8861694c-0.2998962-0.0081024-0.597084-0.116272-0.996933-0.1270752
	c-0.8969727-0.1242752-1.7939453-0.2485428-2.8935394-0.2782593c-1.1995621-0.0324097-2.3045654,0.1378098-3.3123016,0.4106903
	c-0.4025574,0.0892563-0.8078156,0.2783813-1.2130661,0.4673996c-1.6237259,0.8564606-2.7557449,2.026413-3.6824265,3.0017395
	c-0.2053223,0.194519-0.5133209,0.4863129-0.7213516,0.7807999c-0.2971878-0.1080704-0.6916428-0.3188019-0.9888306-0.4268646
	c-1.3832779-0.6375961-3.1637192-1.3859558-5.1629868-1.4399796c-0.1999283-0.0054016-0.4998169-0.013504-0.6997452-0.0189056
	c-2.4045258,0.1351013-4.2362823,1.2860489-5.7600441,2.1452026c-0.2053299,0.1945267-0.6105843,0.3836517-0.8132133,0.4782104
	c-0.294487-0.2080307-0.5889778-0.4160614-0.7835007-0.6213913c-0.1945267-0.2053299-0.3917503-0.3106918-0.586277-0.5160217
	c-1.2725143-1.0347443-2.744957-2.0748978-4.7361259-2.4288101c-0.4971123-0.1135635-0.996933-0.1270676-1.4967499-0.1405792
	c-1.699379-0.0459137-3.3123016,0.4106903-4.6226311,0.7754288c-0.3025894,0.0918579-0.7051468,0.1810226-1.0077362,0.2728806
	c-0.1918259-0.3052902-0.3836479-0.6105804-0.5781746-0.8159103c-1.0617828-1.4291992-2.3153915-3.1636963-4.3876152-4.2200546
	c-1.6777725-0.8456192-3.3744507-0.9915009-4.4740486-1.0212097c-0.599781-0.0162125-1.0995998-0.0297165-1.5994186-0.0432205
	c-0.2998905-0.0081024-0.6997433-0.0189056-0.9996338-0.0270081c-0.0918617-0.3025894-0.2809849-0.7078476-0.3755455-0.9104767
	c-0.6565285-1.6183243-1.4022179-3.6391983-3.1610451-5.1872711c-1.7588291-1.5480728-3.8445587-2.1046066-5.5331345-2.5503769
	c-0.2971897-0.1080704-0.6970425-0.1188736-0.994236-0.2268372c-0.0918579-0.3026962-0.0810566-0.702446-0.0729523-1.0023422
	c-0.1540108-1.7047806-0.3944759-3.912178-1.7426472-5.8492966c-1.3481693-1.9371262-3.2204676-2.9880753-4.6983147-3.8282013
	c-0.2971897-0.1080627-0.5916758-0.3161926-0.8861666-0.5241241c0.0081053-0.2999954,0.1188707-0.6970444,0.1269732-0.996933
	c0.2458439-1.693985,0.6051588-3.8851776-0.1351299-6.1058807c-0.7402859-2.2208023-2.2991877-3.7634735-3.5689993-4.8982849
	c-0.1945286-0.2052307-0.4863129-0.5133209-0.7808046-0.7212524c0.1080694-0.297287,0.3187981-0.6916428,0.4268646-0.9888306
	c0.74296-1.5805054,1.5966883-3.5581703,1.4588842-5.8627319c-0.1351013-2.4046288-1.2860479-4.2362823-2.1452045-5.7600441
	c-0.1945257-0.2053299-0.3836484-0.6105843-0.47821-0.8132133c0.2080331-0.29459,0.41606-0.5889778,0.6213918-0.7836037
	c1.137413-1.3697777,2.4828548-3.0340424,2.9448318-5.3223991s-0.0810833-4.4037971-0.6349478-6.1193848
	c-0.0918608-0.3025894-0.1837206-0.6051826-0.2728806-1.0077362c0.3052902-0.1917267,0.6105852-0.3836479,0.8159142-0.5781746
	c1.4291973-1.0616837,3.1636925-2.3153915,4.2200489-4.3876152c1.0590544-2.1720886,1.0158148-4.2741241,0.9644651-6.0760689
	c0.0081062-0.2999897,0.0189075-0.6997433,0.02701-0.9996338c0.3025913-0.0918617,0.7078514-0.2810841,0.9104786-0.3756466
	c1.6183205-0.6564274,3.6392021-1.402216,5.1872692-3.160944c1.5480709-1.7588291,2.1046124-3.8446579,2.5503807-5.5331345
	c0.1080666-0.2971897,0.1188698-0.6970425,0.2269363-0.9942322c0.3025913-0.0918617,0.702446-0.0810566,1.0023365-0.0729542
	c1.7047806-0.1540108,3.9120808-0.3944778,5.8492012-1.7426491s2.9880753-3.2204676,3.8283005-4.6983118
	c0.1080627-0.2971897,0.3160934-0.5916786,0.5241241-0.8861666c0.2998924,0.0081024,0.597084,0.1160688,0.9969368,0.126873
	c0.8969727,0.1242723,1.7939377,0.2486448,2.8935394,0.2783556c1.1995621,0.0324125,2.3045654-0.1379042,3.3122978-0.4106846
	c2.2208061-0.7402859,3.7634773-2.2992878,4.8981895-3.5691023c0.2053299-0.1945252,0.5133209-0.4863129,0.7213516-0.7807012
	c0.2971916,0.1079664,0.6916428,0.3186975,0.9888306,0.4268637c1.3832817,0.6375952,3.1637192,1.3859577,5.1629868,1.4399772
	c0.1999283,0.0054026,0.4998207,0.013505,0.6997452,0.0189075c2.4045258-0.1351037,4.2362862-1.2861481,5.7600441-2.1452045
	c0.2053299-0.1945252,0.6105843-0.3836484,0.8132133-0.47821c0.294487,0.2080302,0.5889778,0.41606,0.7835007,0.6213894
	c1.3697853,1.1373124,3.0340462,2.4828553,5.3224068,2.9447322c0.4971161,0.1134682,0.996933,0.1269732,1.4967499,0.1404781
	c1.699379,0.0459166,3.3123016-0.4106846,4.6226349-0.7754259c0.3025894-0.0918608,0.7051468-0.1810207,1.0077362-0.2728806
	c0.1918259,0.3052921,0.3836441,0.6105843,0.5781708,0.8159132c1.0617828,1.4292002,2.3153915,3.1636934,4.387619,4.2200489
	c1.6777725,0.8456249,3.3744507,0.9915056,4.4740524,1.0212164c0.5997772,0.0162058,1.0995941,0.0297108,1.599411,0.0432158
	c0.2998886,0.0081034,0.6997452,0.0189075,0.9996338,0.02701c0.0918655,0.3025913,0.280983,0.7078476,0.3755493,0.9104757
	c0.6565247,1.6183233,1.4022141,3.6392012,3.1610413,5.1872721c1.7588348,1.5480709,3.8445587,2.1046085,5.5331345,2.5503788
	c0.2971878,0.1080666,0.6970444,0.1188717,0.9942322,0.2269382c0.0918655,0.3025913,0.0810623,0.702446,0.0729599,1.0023365
	c0.154007,1.7047806,0.3944778,3.9120808,1.7426453,5.8492012s3.2204666,2.9880733,4.6983109,3.8282986
	c0.2971878,0.1080666,0.5916824,0.3160973,0.8861694,0.524128c-0.0081024,0.2998886-0.1188736,0.6970406-0.126976,0.996933
	c-0.245842,1.6939774-0.6051559,3.8850708,0.1351318,6.1058769s2.2991867,3.7634735,3.5690002,4.8981857
	c0.1945267,0.2053299,0.4863129,0.5133209,0.7807999,0.7213516c-0.1080627,0.2971916-0.3187943,0.6916428-0.4268646,0.9888306
	c-0.7429581,1.5805092-1.5966873,3.5581741-1.4588776,5.8627357c0.1351013,2.4045258,1.2860413,4.2362823,2.1452026,5.7600441
	c0.1945267,0.2053261,0.3836441,0.6105843,0.4782104,0.8132133
	C110.4422531,60.8082733,110.2342224,61.1027603,110.0288925,61.297287z"/>
<path class="st0" d="M70.1087418,117.0393829c-0.2026291,0.0945587-0.5025177,0.0864563-0.702446,0.0810547
	c-2.0992355-0.0567245-4.4470444-2.020752-6.5462761-2.0774765c-0.0999641-0.0027008-0.1999283-0.0054016-0.2998924-0.0081024
	c-2.4045258,0.1351089-4.7820129,2.9719238-7.1811409,2.9071045l-0.0999603-0.0027008
	c-1.4967537-0.14048-2.8638306-1.377861-4.1363449-2.4126053l11.8582726,60.9424744l8.7507172-20.2710876l15.6862717,15.5294037
	l-11.5043335-59.232399C73.9046249,113.5407333,72.4214096,116.6016846,70.1087418,117.0393829z M75.2503586,152.5913239
	c-0.8753586-0.9239807-2.1640778-1.3590393-3.3636398-1.3914642c-0.3998566-0.0108032-0.6997452-0.0189056-1.1023026,0.0703583
	c-1.6102219,0.3565369-2.9394608,1.4211273-3.679718,2.9016724l-2.3477478,5.4385223l-7.2057495-36.9080429
	c1.6129227-0.456604,2.9340553-1.221199,4.0525627-1.8912354c0.3052902-0.1918182,0.8132133-0.4782028,1.2184677-0.6673279
	c0.2971916,0.1080627,0.7916069,0.3214951,1.1860542,0.5322266c1.3832855,0.6375961,3.1637268,1.3859558,5.2629547,1.4426804
	c0.5997849,0.0162048,1.2022629-0.0675507,1.8047485-0.1513062c0.5025177-0.0864639,1.0077362-0.2728882,1.5129547-0.4593048
	l6.8491058,35.2978668L75.2503586,152.5913239z"/>
<path class="st1" d="M27.5179043,112.755806l-20.916748,41.4943924l15.8216248-7.4626312l6.5829582,17.9221649
	l17.9675159-33.2159119l-0.7438164-13.8753204c0,0-10.2672997,1.1985092-12.3836899-2.3669891
	C31.7293625,111.6860199,34.6829033,110.5798874,27.5179043,112.755806z"/>
</svg>
